<mxfile host="drawio-plugin" modified="2022-08-29T01:51:54.442Z" agent="5.0 (Windows NT 6.1; Win64; x64) AppleWebKit/537.36 (KHTML, like Gecko) Chrome/89.0.4389.114 Safari/537.36" etag="DFXdYPfnq2sXFiRS1t50" version="15.5.4" type="embed" pages="16"><diagram id="XMummyrOwwe7nQMiUzw2" name="1"><mxGraphModel dx="2205" dy="728" grid="1" gridSize="10" guides="1" tooltips="1" connect="1" arrows="1" fold="1" page="1" pageScale="1" pageWidth="827" pageHeight="1169" math="0" shadow="0"><root><mxCell id="0"/><mxCell id="1" parent="0"/><mxCell id="P6bSszZjrtI_A7IxJcvf-2" value="" style="group" parent="1" vertex="1" connectable="0"><mxGeometry x="-250" y="10" width="1050" height="760" as="geometry"/></mxCell><mxCell id="P6bSszZjrtI_A7IxJcvf-1" value="" style="rounded=0;whiteSpace=wrap;html=1;labelBorderColor=none;fontColor=#FF0000;strokeColor=#000000;container=1;" parent="P6bSszZjrtI_A7IxJcvf-2" vertex="1"><mxGeometry width="1050" height="760" as="geometry"/></mxCell><mxCell id="LOFzTLp3bE_ZvoEmJaC1-1" value="&lt;pre style=&quot;background-color:#2b2b2b;color:#a9b7c6;font-family:'JetBrains Mono',monospace;font-size:9.8pt;&quot;&gt;&lt;span style=&quot;color:#cc7832;&quot;&gt;public static void &lt;/span&gt;&lt;span style=&quot;color:#ffc66d;&quot;&gt;main&lt;/span&gt;(String[] args) {&lt;br&gt;    &lt;span style=&quot;color:#cc7832;&quot;&gt;int &lt;/span&gt;x = &lt;span style=&quot;color:#6897bb;&quot;&gt;500&lt;/span&gt;&lt;span style=&quot;color:#cc7832;&quot;&gt;;&lt;br&gt;&lt;/span&gt;&lt;span style=&quot;color:#cc7832;&quot;&gt;    int &lt;/span&gt;y = &lt;span style=&quot;color:#6897bb;&quot;&gt;100&lt;/span&gt;&lt;span style=&quot;color:#cc7832;&quot;&gt;;&lt;br&gt;&lt;/span&gt;&lt;span style=&quot;color:#cc7832;&quot;&gt;    int &lt;/span&gt;a = x / y&lt;span style=&quot;color:#cc7832;&quot;&gt;;&lt;br&gt;&lt;/span&gt;&lt;span style=&quot;color:#cc7832;&quot;&gt;    int &lt;/span&gt;b = &lt;span style=&quot;color:#6897bb;&quot;&gt;50&lt;/span&gt;&lt;span style=&quot;color:#cc7832;&quot;&gt;;&lt;br&gt;&lt;/span&gt;&lt;span style=&quot;color:#cc7832;&quot;&gt;    &lt;/span&gt;System.&lt;span style=&quot;color:#9876aa;font-style:italic;&quot;&gt;out&lt;/span&gt;.println(a + b)&lt;span style=&quot;color:#cc7832;&quot;&gt;;&lt;br&gt;&lt;/span&gt;}&lt;/pre&gt;" style="rounded=0;whiteSpace=wrap;html=1;" parent="P6bSszZjrtI_A7IxJcvf-2" vertex="1"><mxGeometry x="180" y="440" width="120" height="60" as="geometry"/></mxCell><mxCell id="LOFzTLp3bE_ZvoEmJaC1-2" value="方法代码" style="text;html=1;strokeColor=none;fillColor=none;align=center;verticalAlign=middle;whiteSpace=wrap;rounded=0;" parent="P6bSszZjrtI_A7IxJcvf-2" vertex="1"><mxGeometry x="200" y="380" width="60" height="30" as="geometry"/></mxCell><mxCell id="LOFzTLp3bE_ZvoEmJaC1-4" value="&lt;div&gt;&amp;nbsp;&lt;font color=&quot;#ff0000&quot;&gt;0 sipush 500&lt;/font&gt;&lt;/div&gt;&lt;div&gt;&amp;nbsp;3 istore_1&lt;/div&gt;&lt;div&gt;&amp;nbsp;4 bipush 100&lt;/div&gt;&lt;div&gt;&amp;nbsp;6 istore_2&lt;/div&gt;&lt;div&gt;&amp;nbsp;7 iload_1&lt;/div&gt;&lt;div&gt;&amp;nbsp;8 iload_2&lt;/div&gt;&lt;div&gt;&amp;nbsp;9 idiv&lt;/div&gt;&lt;div&gt;10 istore_3&lt;/div&gt;&lt;div&gt;11 bipush 50&lt;/div&gt;&lt;div&gt;13 istore 4&lt;/div&gt;&lt;div&gt;15 getstatic #2 &amp;lt;java/lang/System.out : Ljava/io/PrintStream;&amp;gt;&lt;/div&gt;&lt;div&gt;18 iload_3&lt;/div&gt;&lt;div&gt;19 iload 4&lt;/div&gt;&lt;div&gt;21 iadd&lt;/div&gt;&lt;div&gt;22 invokevirtual #3 &amp;lt;java/io/PrintStream.println : (I)V&amp;gt;&lt;/div&gt;&lt;div&gt;25 return&lt;/div&gt;&lt;div&gt;&lt;br&gt;&lt;/div&gt;" style="rounded=0;whiteSpace=wrap;html=1;align=left;labelBorderColor=none;" parent="P6bSszZjrtI_A7IxJcvf-2" vertex="1"><mxGeometry x="664" y="30" width="340" height="260" as="geometry"/></mxCell><mxCell id="LOFzTLp3bE_ZvoEmJaC1-5" value="字节码指令" style="text;html=1;align=center;verticalAlign=middle;resizable=0;points=[];autosize=1;strokeColor=none;fillColor=none;" parent="P6bSszZjrtI_A7IxJcvf-2" vertex="1"><mxGeometry x="794" width="80" height="30" as="geometry"/></mxCell><mxCell id="LOFzTLp3bE_ZvoEmJaC1-6" value="&lt;font color=&quot;#ff0000&quot;&gt;0&lt;/font&gt;" style="rounded=0;whiteSpace=wrap;html=1;labelBorderColor=none;" parent="P6bSszZjrtI_A7IxJcvf-2" vertex="1"><mxGeometry x="230" y="330" width="130" height="40" as="geometry"/></mxCell><mxCell id="LOFzTLp3bE_ZvoEmJaC1-7" value="程序计数器" style="text;html=1;strokeColor=none;fillColor=none;align=center;verticalAlign=middle;whiteSpace=wrap;rounded=0;labelBorderColor=none;fontColor=#000000;" parent="P6bSszZjrtI_A7IxJcvf-2" vertex="1"><mxGeometry x="252.5" y="300" width="85" height="30" as="geometry"/></mxCell><mxCell id="LOFzTLp3bE_ZvoEmJaC1-8" value="" style="rounded=0;whiteSpace=wrap;html=1;labelBorderColor=none;fontColor=#FF0000;" parent="P6bSszZjrtI_A7IxJcvf-2" vertex="1"><mxGeometry x="430" y="350" width="580" height="360" as="geometry"/></mxCell><mxCell id="LOFzTLp3bE_ZvoEmJaC1-9" value="虚拟机栈" style="text;html=1;strokeColor=none;fillColor=none;align=center;verticalAlign=middle;whiteSpace=wrap;rounded=0;labelBorderColor=none;fontColor=#000000;" parent="P6bSszZjrtI_A7IxJcvf-2" vertex="1"><mxGeometry x="677.5" y="310" width="85" height="30" as="geometry"/></mxCell><mxCell id="LOFzTLp3bE_ZvoEmJaC1-10" value="" style="rounded=0;whiteSpace=wrap;html=1;labelBorderColor=none;fontColor=#FF0000;" parent="P6bSszZjrtI_A7IxJcvf-2" vertex="1"><mxGeometry x="430" y="350" width="430" height="160" as="geometry"/></mxCell><mxCell id="LOFzTLp3bE_ZvoEmJaC1-13" style="edgeStyle=orthogonalEdgeStyle;rounded=0;orthogonalLoop=1;jettySize=auto;html=1;entryX=0.49;entryY=0.011;entryDx=0;entryDy=0;fontColor=#FF0000;entryPerimeter=0;exitX=1;exitY=0.5;exitDx=0;exitDy=0;" parent="P6bSszZjrtI_A7IxJcvf-2" source="LOFzTLp3bE_ZvoEmJaC1-6" target="LOFzTLp3bE_ZvoEmJaC1-10" edge="1"><mxGeometry relative="1" as="geometry"><Array as="points"><mxPoint x="400" y="350"/><mxPoint x="400" y="320"/><mxPoint x="641" y="320"/></Array></mxGeometry></mxCell><mxCell id="LOFzTLp3bE_ZvoEmJaC1-11" value="当前栈帧" style="text;html=1;strokeColor=none;fillColor=none;align=center;verticalAlign=middle;whiteSpace=wrap;rounded=0;labelBorderColor=none;fontColor=#000000;" parent="P6bSszZjrtI_A7IxJcvf-2" vertex="1"><mxGeometry x="680" y="400" width="85" height="30" as="geometry"/></mxCell><mxCell id="LOFzTLp3bE_ZvoEmJaC1-14" value="其他栈帧..." style="rounded=0;whiteSpace=wrap;html=1;labelBorderColor=none;fontColor=#FF0000;strokeColor=#000000;" parent="P6bSszZjrtI_A7IxJcvf-2" vertex="1"><mxGeometry x="430" y="510" width="430" height="100" as="geometry"/></mxCell><mxCell id="LOFzTLp3bE_ZvoEmJaC1-15" value="&lt;table border=&quot;1&quot; width=&quot;100%&quot; height=&quot;100%&quot; cellpadding=&quot;4&quot; style=&quot;width:100%;height:100%;border-collapse:collapse;&quot;&gt;&lt;tbody&gt;&lt;tr style=&quot;background-color:#A7C942;color:#ffffff;border:1px solid #98bf21;&quot;&gt;&lt;th&gt;序号&lt;/th&gt;&lt;th&gt;本地变量表&lt;/th&gt;&lt;/tr&gt;&lt;tr style=&quot;border:1px solid #98bf21;&quot;&gt;&lt;td&gt;0&lt;/td&gt;&lt;td&gt;args&lt;/td&gt;&lt;/tr&gt;&lt;tr style=&quot;background-color:#EAF2D3;border:1px solid #98bf21;&quot;&gt;&lt;td&gt;1&lt;/td&gt;&lt;td&gt;&lt;br&gt;&lt;/td&gt;&lt;/tr&gt;&lt;tr style=&quot;border:1px solid #98bf21;&quot;&gt;&lt;td&gt;2&lt;/td&gt;&lt;td&gt;&lt;br&gt;&lt;/td&gt;&lt;/tr&gt;&lt;tr style=&quot;background-color:#EAF2D3;border:1px solid #98bf21;&quot;&gt;&lt;td&gt;3&lt;/td&gt;&lt;td&gt;&lt;br&gt;&lt;/td&gt;&lt;/tr&gt;&lt;tr&gt;&lt;td&gt;4&lt;/td&gt;&lt;td&gt;&lt;br&gt;&lt;/td&gt;&lt;/tr&gt;&lt;/tbody&gt;&lt;/table&gt;" style="text;html=1;strokeColor=#99FF33;fillColor=#ffffff;overflow=fill;rounded=0;labelBorderColor=none;fontColor=#FF0000;align=center;" parent="P6bSszZjrtI_A7IxJcvf-2" vertex="1"><mxGeometry x="430" y="360" width="160" height="140" as="geometry"/></mxCell><mxCell id="LOFzTLp3bE_ZvoEmJaC1-16" value="&lt;table border=&quot;1&quot; width=&quot;100%&quot; height=&quot;100%&quot; cellpadding=&quot;4&quot; style=&quot;width:100%;height:100%;border-collapse:collapse;&quot;&gt;&lt;tbody&gt;&lt;tr style=&quot;background-color:#A7C942;color:#ffffff;border:1px solid #98bf21;&quot;&gt;&lt;th&gt;操作数栈&lt;/th&gt;&lt;/tr&gt;&lt;tr style=&quot;border:1px solid #98bf21;&quot;&gt;&lt;td&gt;500&lt;/td&gt;&lt;/tr&gt;&lt;tr style=&quot;background-color:#EAF2D3;border:1px solid #98bf21;&quot;&gt;&lt;td&gt;&lt;br&gt;&lt;/td&gt;&lt;/tr&gt;&lt;tr style=&quot;border:1px solid #98bf21;&quot;&gt;&lt;td&gt;&lt;br&gt;&lt;/td&gt;&lt;/tr&gt;&lt;/tbody&gt;&lt;/table&gt;" style="text;html=1;strokeColor=#c0c0c0;fillColor=#ffffff;overflow=fill;rounded=0;labelBorderColor=none;fontColor=#FF0000;align=center;" parent="P6bSszZjrtI_A7IxJcvf-2" vertex="1"><mxGeometry x="602.5" y="360" width="77.5" height="90" as="geometry"/></mxCell><mxCell id="LOFzTLp3bE_ZvoEmJaC1-17" value="其他栈帧信息" style="rounded=0;whiteSpace=wrap;html=1;labelBorderColor=none;fontColor=#FF0000;strokeColor=#99FF33;" parent="P6bSszZjrtI_A7IxJcvf-2" vertex="1"><mxGeometry x="740" y="450" width="110" height="50" as="geometry"/></mxCell><mxCell id="LOFzTLp3bE_ZvoEmJaC1-18" value="其他栈帧..." style="rounded=0;whiteSpace=wrap;html=1;labelBorderColor=none;fontColor=#000000;strokeColor=#000000;" parent="P6bSszZjrtI_A7IxJcvf-2" vertex="1"><mxGeometry x="430" y="610" width="430" height="100" as="geometry"/></mxCell><mxCell id="LOFzTLp3bE_ZvoEmJaC1-20" style="edgeStyle=orthogonalEdgeStyle;rounded=0;orthogonalLoop=1;jettySize=auto;html=1;entryX=-0.012;entryY=0.077;entryDx=0;entryDy=0;entryPerimeter=0;fontColor=#FF0000;" parent="P6bSszZjrtI_A7IxJcvf-2" source="LOFzTLp3bE_ZvoEmJaC1-19" edge="1"><mxGeometry relative="1" as="geometry"><mxPoint x="659.9199999999996" y="43.020000000000095" as="targetPoint"/></mxGeometry></mxCell><mxCell id="LOFzTLp3bE_ZvoEmJaC1-19" value="将short型数据500压入操作数栈中" style="rounded=0;whiteSpace=wrap;html=1;labelBorderColor=none;fontColor=#FF0000;strokeColor=#000000;" parent="P6bSszZjrtI_A7IxJcvf-2" vertex="1"><mxGeometry x="218" y="23" width="362" height="40" as="geometry"/></mxCell><mxCell id="b8mlhJhfT8cdATLgxmI2-1" value="当前栈帧" style="text;html=1;strokeColor=none;fillColor=none;align=center;verticalAlign=middle;whiteSpace=wrap;rounded=0;labelBorderColor=none;fontColor=#000000;" parent="P6bSszZjrtI_A7IxJcvf-2" vertex="1"><mxGeometry x="680" y="400" width="85" height="30" as="geometry"/></mxCell><mxCell id="b8mlhJhfT8cdATLgxmI2-2" value="&lt;font color=&quot;#ff0000&quot;&gt;当前栈帧&lt;/font&gt;" style="text;html=1;strokeColor=none;fillColor=none;align=center;verticalAlign=middle;whiteSpace=wrap;rounded=0;labelBorderColor=none;fontColor=#000000;" parent="P6bSszZjrtI_A7IxJcvf-2" vertex="1"><mxGeometry x="680" y="400" width="85" height="30" as="geometry"/></mxCell><mxCell id="b8mlhJhfT8cdATLgxmI2-3" value="其他栈帧信息" style="rounded=0;whiteSpace=wrap;html=1;labelBorderColor=none;fontColor=#000000;strokeColor=#99FF33;" parent="P6bSszZjrtI_A7IxJcvf-2" vertex="1"><mxGeometry x="740" y="450" width="110" height="50" as="geometry"/></mxCell><mxCell id="b8mlhJhfT8cdATLgxmI2-4" value="其他栈帧..." style="rounded=0;whiteSpace=wrap;html=1;labelBorderColor=none;fontColor=#000000;strokeColor=#000000;" parent="P6bSszZjrtI_A7IxJcvf-2" vertex="1"><mxGeometry x="430" y="510" width="430" height="100" as="geometry"/></mxCell></root></mxGraphModel></diagram><diagram name="2" id="vg2zDpwzCKtE6Jrw-eAd"><mxGraphModel dx="2205" dy="728" grid="1" gridSize="10" guides="1" tooltips="1" connect="1" arrows="1" fold="1" page="1" pageScale="1" pageWidth="827" pageHeight="1169" math="0" shadow="0"><root><mxCell id="FuOIWGd2z3k3mT-xuEIB-0"/><mxCell id="FuOIWGd2z3k3mT-xuEIB-1" parent="FuOIWGd2z3k3mT-xuEIB-0"/><mxCell id="FuOIWGd2z3k3mT-xuEIB-2" value="" style="group" parent="FuOIWGd2z3k3mT-xuEIB-1" vertex="1" connectable="0"><mxGeometry x="-250" y="10" width="1050" height="750" as="geometry"/></mxCell><mxCell id="FuOIWGd2z3k3mT-xuEIB-3" value="" style="rounded=0;whiteSpace=wrap;html=1;labelBorderColor=none;fontColor=#FF0000;strokeColor=#000000;container=1;" parent="FuOIWGd2z3k3mT-xuEIB-2" vertex="1"><mxGeometry width="1050" height="750" as="geometry"/></mxCell><mxCell id="FuOIWGd2z3k3mT-xuEIB-4" value="&lt;pre style=&quot;background-color:#2b2b2b;color:#a9b7c6;font-family:'JetBrains Mono',monospace;font-size:9.8pt;&quot;&gt;&lt;span style=&quot;color:#cc7832;&quot;&gt;public static void &lt;/span&gt;&lt;span style=&quot;color:#ffc66d;&quot;&gt;main&lt;/span&gt;(String[] args) {&lt;br&gt;    &lt;span style=&quot;color:#cc7832;&quot;&gt;int &lt;/span&gt;x = &lt;span style=&quot;color:#6897bb;&quot;&gt;500&lt;/span&gt;&lt;span style=&quot;color:#cc7832;&quot;&gt;;&lt;br&gt;&lt;/span&gt;&lt;span style=&quot;color:#cc7832;&quot;&gt;    int &lt;/span&gt;y = &lt;span style=&quot;color:#6897bb;&quot;&gt;100&lt;/span&gt;&lt;span style=&quot;color:#cc7832;&quot;&gt;;&lt;br&gt;&lt;/span&gt;&lt;span style=&quot;color:#cc7832;&quot;&gt;    int &lt;/span&gt;a = x / y&lt;span style=&quot;color:#cc7832;&quot;&gt;;&lt;br&gt;&lt;/span&gt;&lt;span style=&quot;color:#cc7832;&quot;&gt;    int &lt;/span&gt;b = &lt;span style=&quot;color:#6897bb;&quot;&gt;50&lt;/span&gt;&lt;span style=&quot;color:#cc7832;&quot;&gt;;&lt;br&gt;&lt;/span&gt;&lt;span style=&quot;color:#cc7832;&quot;&gt;    &lt;/span&gt;System.&lt;span style=&quot;color:#9876aa;font-style:italic;&quot;&gt;out&lt;/span&gt;.println(a + b)&lt;span style=&quot;color:#cc7832;&quot;&gt;;&lt;br&gt;&lt;/span&gt;}&lt;/pre&gt;" style="rounded=0;whiteSpace=wrap;html=1;" parent="FuOIWGd2z3k3mT-xuEIB-2" vertex="1"><mxGeometry x="180" y="440" width="120" height="60" as="geometry"/></mxCell><mxCell id="FuOIWGd2z3k3mT-xuEIB-5" value="方法代码" style="text;html=1;strokeColor=none;fillColor=none;align=center;verticalAlign=middle;whiteSpace=wrap;rounded=0;" parent="FuOIWGd2z3k3mT-xuEIB-2" vertex="1"><mxGeometry x="200" y="380" width="60" height="30" as="geometry"/></mxCell><mxCell id="FuOIWGd2z3k3mT-xuEIB-6" value="&lt;div&gt;&amp;nbsp;0 sipush 500&lt;/div&gt;&lt;div&gt;&amp;nbsp;&lt;font color=&quot;#ff0000&quot;&gt;3 istore_1&lt;/font&gt;&lt;/div&gt;&lt;div&gt;&amp;nbsp;4 bipush 100&lt;/div&gt;&lt;div&gt;&amp;nbsp;6 istore_2&lt;/div&gt;&lt;div&gt;&amp;nbsp;7 iload_1&lt;/div&gt;&lt;div&gt;&amp;nbsp;8 iload_2&lt;/div&gt;&lt;div&gt;&amp;nbsp;9 idiv&lt;/div&gt;&lt;div&gt;10 istore_3&lt;/div&gt;&lt;div&gt;11 bipush 50&lt;/div&gt;&lt;div&gt;13 istore 4&lt;/div&gt;&lt;div&gt;15 getstatic #2 &amp;lt;java/lang/System.out : Ljava/io/PrintStream;&amp;gt;&lt;/div&gt;&lt;div&gt;18 iload_3&lt;/div&gt;&lt;div&gt;19 iload 4&lt;/div&gt;&lt;div&gt;21 iadd&lt;/div&gt;&lt;div&gt;22 invokevirtual #3 &amp;lt;java/io/PrintStream.println : (I)V&amp;gt;&lt;/div&gt;&lt;div&gt;25 return&lt;/div&gt;&lt;div&gt;&lt;br&gt;&lt;/div&gt;" style="rounded=0;whiteSpace=wrap;html=1;align=left;labelBorderColor=none;" parent="FuOIWGd2z3k3mT-xuEIB-2" vertex="1"><mxGeometry x="664" y="30" width="340" height="260" as="geometry"/></mxCell><mxCell id="FuOIWGd2z3k3mT-xuEIB-7" value="字节码指令" style="text;html=1;align=center;verticalAlign=middle;resizable=0;points=[];autosize=1;strokeColor=none;fillColor=none;" parent="FuOIWGd2z3k3mT-xuEIB-2" vertex="1"><mxGeometry x="794" width="80" height="30" as="geometry"/></mxCell><mxCell id="FuOIWGd2z3k3mT-xuEIB-8" value="&lt;font color=&quot;#ff0000&quot;&gt;3&lt;/font&gt;" style="rounded=0;whiteSpace=wrap;html=1;labelBorderColor=none;" parent="FuOIWGd2z3k3mT-xuEIB-2" vertex="1"><mxGeometry x="230" y="330" width="130" height="40" as="geometry"/></mxCell><mxCell id="FuOIWGd2z3k3mT-xuEIB-9" value="程序计数器" style="text;html=1;strokeColor=none;fillColor=none;align=center;verticalAlign=middle;whiteSpace=wrap;rounded=0;labelBorderColor=none;fontColor=#FF0000;" parent="FuOIWGd2z3k3mT-xuEIB-2" vertex="1"><mxGeometry x="252.5" y="300" width="85" height="30" as="geometry"/></mxCell><mxCell id="FuOIWGd2z3k3mT-xuEIB-10" value="" style="rounded=0;whiteSpace=wrap;html=1;labelBorderColor=none;fontColor=#FF0000;" parent="FuOIWGd2z3k3mT-xuEIB-2" vertex="1"><mxGeometry x="430" y="350" width="580" height="360" as="geometry"/></mxCell><mxCell id="FuOIWGd2z3k3mT-xuEIB-11" value="虚拟机栈" style="text;html=1;strokeColor=none;fillColor=none;align=center;verticalAlign=middle;whiteSpace=wrap;rounded=0;labelBorderColor=none;fontColor=#000000;" parent="FuOIWGd2z3k3mT-xuEIB-2" vertex="1"><mxGeometry x="677.5" y="310" width="85" height="30" as="geometry"/></mxCell><mxCell id="FuOIWGd2z3k3mT-xuEIB-12" value="" style="rounded=0;whiteSpace=wrap;html=1;labelBorderColor=none;fontColor=#FF0000;" parent="FuOIWGd2z3k3mT-xuEIB-2" vertex="1"><mxGeometry x="430" y="350" width="430" height="160" as="geometry"/></mxCell><mxCell id="FuOIWGd2z3k3mT-xuEIB-13" style="edgeStyle=orthogonalEdgeStyle;rounded=0;orthogonalLoop=1;jettySize=auto;html=1;entryX=0.49;entryY=0.011;entryDx=0;entryDy=0;fontColor=#FF0000;entryPerimeter=0;exitX=1;exitY=0.5;exitDx=0;exitDy=0;" parent="FuOIWGd2z3k3mT-xuEIB-2" source="FuOIWGd2z3k3mT-xuEIB-8" target="FuOIWGd2z3k3mT-xuEIB-12" edge="1"><mxGeometry relative="1" as="geometry"><Array as="points"><mxPoint x="400" y="350"/><mxPoint x="400" y="320"/><mxPoint x="641" y="320"/></Array></mxGeometry></mxCell><mxCell id="FuOIWGd2z3k3mT-xuEIB-14" value="当前栈帧" style="text;html=1;strokeColor=none;fillColor=none;align=center;verticalAlign=middle;whiteSpace=wrap;rounded=0;labelBorderColor=none;fontColor=#FF0000;" parent="FuOIWGd2z3k3mT-xuEIB-2" vertex="1"><mxGeometry x="680" y="400" width="85" height="30" as="geometry"/></mxCell><mxCell id="FuOIWGd2z3k3mT-xuEIB-15" value="其他栈帧..." style="rounded=0;whiteSpace=wrap;html=1;labelBorderColor=none;fontColor=#000000;strokeColor=#000000;" parent="FuOIWGd2z3k3mT-xuEIB-2" vertex="1"><mxGeometry x="430" y="510" width="430" height="100" as="geometry"/></mxCell><mxCell id="FuOIWGd2z3k3mT-xuEIB-16" value="&lt;table border=&quot;1&quot; width=&quot;100%&quot; height=&quot;100%&quot; cellpadding=&quot;4&quot; style=&quot;width:100%;height:100%;border-collapse:collapse;&quot;&gt;&lt;tbody&gt;&lt;tr style=&quot;background-color:#A7C942;color:#ffffff;border:1px solid #98bf21;&quot;&gt;&lt;th&gt;序号&lt;/th&gt;&lt;th&gt;本地变量表&lt;/th&gt;&lt;/tr&gt;&lt;tr style=&quot;border:1px solid #98bf21;&quot;&gt;&lt;td&gt;0&lt;/td&gt;&lt;td&gt;args&lt;/td&gt;&lt;/tr&gt;&lt;tr style=&quot;background-color:#EAF2D3;border:1px solid #98bf21;&quot;&gt;&lt;td&gt;1&lt;/td&gt;&lt;td&gt;500&lt;/td&gt;&lt;/tr&gt;&lt;tr style=&quot;border:1px solid #98bf21;&quot;&gt;&lt;td&gt;2&lt;/td&gt;&lt;td&gt;&lt;br&gt;&lt;/td&gt;&lt;/tr&gt;&lt;tr style=&quot;background-color:#EAF2D3;border:1px solid #98bf21;&quot;&gt;&lt;td&gt;3&lt;/td&gt;&lt;td&gt;&lt;br&gt;&lt;/td&gt;&lt;/tr&gt;&lt;tr&gt;&lt;td&gt;4&lt;/td&gt;&lt;td&gt;&lt;br&gt;&lt;/td&gt;&lt;/tr&gt;&lt;/tbody&gt;&lt;/table&gt;" style="text;html=1;strokeColor=#99FF33;fillColor=#ffffff;overflow=fill;rounded=0;labelBorderColor=none;fontColor=#FF0000;align=center;" parent="FuOIWGd2z3k3mT-xuEIB-2" vertex="1"><mxGeometry x="430" y="360" width="160" height="140" as="geometry"/></mxCell><mxCell id="FuOIWGd2z3k3mT-xuEIB-17" value="&lt;table border=&quot;1&quot; width=&quot;100%&quot; height=&quot;100%&quot; cellpadding=&quot;4&quot; style=&quot;width:100%;height:100%;border-collapse:collapse;&quot;&gt;&lt;tbody&gt;&lt;tr style=&quot;background-color:#A7C942;color:#ffffff;border:1px solid #98bf21;&quot;&gt;&lt;th&gt;操作数栈&lt;/th&gt;&lt;/tr&gt;&lt;tr style=&quot;border:1px solid #98bf21;&quot;&gt;&lt;td&gt;&lt;br&gt;&lt;/td&gt;&lt;/tr&gt;&lt;tr style=&quot;background-color:#EAF2D3;border:1px solid #98bf21;&quot;&gt;&lt;td&gt;&lt;br&gt;&lt;/td&gt;&lt;/tr&gt;&lt;tr style=&quot;border:1px solid #98bf21;&quot;&gt;&lt;td&gt;&lt;br&gt;&lt;/td&gt;&lt;/tr&gt;&lt;/tbody&gt;&lt;/table&gt;" style="text;html=1;strokeColor=#c0c0c0;fillColor=#ffffff;overflow=fill;rounded=0;labelBorderColor=none;fontColor=#FF0000;align=center;" parent="FuOIWGd2z3k3mT-xuEIB-2" vertex="1"><mxGeometry x="602.5" y="360" width="77.5" height="90" as="geometry"/></mxCell><mxCell id="FuOIWGd2z3k3mT-xuEIB-18" value="其他栈帧信息" style="rounded=0;whiteSpace=wrap;html=1;labelBorderColor=none;fontColor=#000000;strokeColor=#99FF33;" parent="FuOIWGd2z3k3mT-xuEIB-2" vertex="1"><mxGeometry x="740" y="450" width="110" height="50" as="geometry"/></mxCell><mxCell id="FuOIWGd2z3k3mT-xuEIB-19" value="其他栈帧..." style="rounded=0;whiteSpace=wrap;html=1;labelBorderColor=none;fontColor=#000000;strokeColor=#000000;" parent="FuOIWGd2z3k3mT-xuEIB-2" vertex="1"><mxGeometry x="430" y="610" width="430" height="100" as="geometry"/></mxCell><mxCell id="FuOIWGd2z3k3mT-xuEIB-20" style="edgeStyle=orthogonalEdgeStyle;rounded=0;orthogonalLoop=1;jettySize=auto;html=1;entryX=-0.012;entryY=0.077;entryDx=0;entryDy=0;entryPerimeter=0;fontColor=#FF0000;" parent="FuOIWGd2z3k3mT-xuEIB-2" edge="1"><mxGeometry relative="1" as="geometry"><mxPoint x="582" y="59.020000000000095" as="sourcePoint"/><mxPoint x="661.9199999999996" y="59.020000000000095" as="targetPoint"/></mxGeometry></mxCell><mxCell id="tCb6H-Wadet-QqsQiS7z-0" value="将操作数栈顶数据500弹出并保存至本地变量表1中" style="rounded=0;whiteSpace=wrap;html=1;labelBorderColor=none;fontColor=#FF0000;strokeColor=#000000;" parent="FuOIWGd2z3k3mT-xuEIB-2" vertex="1"><mxGeometry x="220" y="39" width="362" height="40" as="geometry"/></mxCell></root></mxGraphModel></diagram><diagram name="3" id="LyfpEbqZTqxnT047zKoi"><mxGraphModel dx="2205" dy="728" grid="1" gridSize="10" guides="1" tooltips="1" connect="1" arrows="1" fold="1" page="1" pageScale="1" pageWidth="827" pageHeight="1169" math="0" shadow="0"><root><mxCell id="KSG5uzdACEAePT7BpWXn-0"/><mxCell id="KSG5uzdACEAePT7BpWXn-1" parent="KSG5uzdACEAePT7BpWXn-0"/><mxCell id="KSG5uzdACEAePT7BpWXn-2" value="" style="group" parent="KSG5uzdACEAePT7BpWXn-1" vertex="1" connectable="0"><mxGeometry x="-250" y="10" width="1050" height="750" as="geometry"/></mxCell><mxCell id="KSG5uzdACEAePT7BpWXn-3" value="" style="rounded=0;whiteSpace=wrap;html=1;labelBorderColor=none;fontColor=#FF0000;strokeColor=#000000;container=1;" parent="KSG5uzdACEAePT7BpWXn-2" vertex="1"><mxGeometry width="1050" height="750" as="geometry"/></mxCell><mxCell id="KSG5uzdACEAePT7BpWXn-4" value="&lt;pre style=&quot;background-color:#2b2b2b;color:#a9b7c6;font-family:'JetBrains Mono',monospace;font-size:9.8pt;&quot;&gt;&lt;span style=&quot;color:#cc7832;&quot;&gt;public static void &lt;/span&gt;&lt;span style=&quot;color:#ffc66d;&quot;&gt;main&lt;/span&gt;(String[] args) {&lt;br&gt;    &lt;span style=&quot;color:#cc7832;&quot;&gt;int &lt;/span&gt;x = &lt;span style=&quot;color:#6897bb;&quot;&gt;500&lt;/span&gt;&lt;span style=&quot;color:#cc7832;&quot;&gt;;&lt;br&gt;&lt;/span&gt;&lt;span style=&quot;color:#cc7832;&quot;&gt;    int &lt;/span&gt;y = &lt;span style=&quot;color:#6897bb;&quot;&gt;100&lt;/span&gt;&lt;span style=&quot;color:#cc7832;&quot;&gt;;&lt;br&gt;&lt;/span&gt;&lt;span style=&quot;color:#cc7832;&quot;&gt;    int &lt;/span&gt;a = x / y&lt;span style=&quot;color:#cc7832;&quot;&gt;;&lt;br&gt;&lt;/span&gt;&lt;span style=&quot;color:#cc7832;&quot;&gt;    int &lt;/span&gt;b = &lt;span style=&quot;color:#6897bb;&quot;&gt;50&lt;/span&gt;&lt;span style=&quot;color:#cc7832;&quot;&gt;;&lt;br&gt;&lt;/span&gt;&lt;span style=&quot;color:#cc7832;&quot;&gt;    &lt;/span&gt;System.&lt;span style=&quot;color:#9876aa;font-style:italic;&quot;&gt;out&lt;/span&gt;.println(a + b)&lt;span style=&quot;color:#cc7832;&quot;&gt;;&lt;br&gt;&lt;/span&gt;}&lt;/pre&gt;" style="rounded=0;whiteSpace=wrap;html=1;" parent="KSG5uzdACEAePT7BpWXn-2" vertex="1"><mxGeometry x="180" y="440" width="120" height="60" as="geometry"/></mxCell><mxCell id="KSG5uzdACEAePT7BpWXn-5" value="方法代码" style="text;html=1;strokeColor=none;fillColor=none;align=center;verticalAlign=middle;whiteSpace=wrap;rounded=0;" parent="KSG5uzdACEAePT7BpWXn-2" vertex="1"><mxGeometry x="200" y="380" width="60" height="30" as="geometry"/></mxCell><mxCell id="KSG5uzdACEAePT7BpWXn-6" value="&lt;div&gt;&amp;nbsp;0 sipush 500&lt;/div&gt;&lt;div&gt;&amp;nbsp;3 istore_1&lt;/div&gt;&lt;div&gt;&amp;nbsp;&lt;font color=&quot;#ff0000&quot;&gt;4 bipush 100&lt;/font&gt;&lt;/div&gt;&lt;div&gt;&amp;nbsp;6 istore_2&lt;/div&gt;&lt;div&gt;&amp;nbsp;7 iload_1&lt;/div&gt;&lt;div&gt;&amp;nbsp;8 iload_2&lt;/div&gt;&lt;div&gt;&amp;nbsp;9 idiv&lt;/div&gt;&lt;div&gt;10 istore_3&lt;/div&gt;&lt;div&gt;11 bipush 50&lt;/div&gt;&lt;div&gt;13 istore 4&lt;/div&gt;&lt;div&gt;15 getstatic #2 &amp;lt;java/lang/System.out : Ljava/io/PrintStream;&amp;gt;&lt;/div&gt;&lt;div&gt;18 iload_3&lt;/div&gt;&lt;div&gt;19 iload 4&lt;/div&gt;&lt;div&gt;21 iadd&lt;/div&gt;&lt;div&gt;22 invokevirtual #3 &amp;lt;java/io/PrintStream.println : (I)V&amp;gt;&lt;/div&gt;&lt;div&gt;25 return&lt;/div&gt;&lt;div&gt;&lt;br&gt;&lt;/div&gt;" style="rounded=0;whiteSpace=wrap;html=1;align=left;labelBorderColor=none;" parent="KSG5uzdACEAePT7BpWXn-2" vertex="1"><mxGeometry x="664" y="30" width="340" height="260" as="geometry"/></mxCell><mxCell id="KSG5uzdACEAePT7BpWXn-7" value="字节码指令" style="text;html=1;align=center;verticalAlign=middle;resizable=0;points=[];autosize=1;strokeColor=none;fillColor=none;" parent="KSG5uzdACEAePT7BpWXn-2" vertex="1"><mxGeometry x="794" width="80" height="30" as="geometry"/></mxCell><mxCell id="KSG5uzdACEAePT7BpWXn-8" value="&lt;font color=&quot;#ff0000&quot;&gt;4&lt;/font&gt;" style="rounded=0;whiteSpace=wrap;html=1;labelBorderColor=none;" parent="KSG5uzdACEAePT7BpWXn-2" vertex="1"><mxGeometry x="230" y="330" width="130" height="40" as="geometry"/></mxCell><mxCell id="KSG5uzdACEAePT7BpWXn-9" value="程序计数器" style="text;html=1;strokeColor=none;fillColor=none;align=center;verticalAlign=middle;whiteSpace=wrap;rounded=0;labelBorderColor=none;fontColor=#FF0000;" parent="KSG5uzdACEAePT7BpWXn-2" vertex="1"><mxGeometry x="252.5" y="300" width="85" height="30" as="geometry"/></mxCell><mxCell id="KSG5uzdACEAePT7BpWXn-10" value="" style="rounded=0;whiteSpace=wrap;html=1;labelBorderColor=none;fontColor=#FF0000;" parent="KSG5uzdACEAePT7BpWXn-2" vertex="1"><mxGeometry x="430" y="350" width="580" height="360" as="geometry"/></mxCell><mxCell id="KSG5uzdACEAePT7BpWXn-11" value="虚拟机栈" style="text;html=1;strokeColor=none;fillColor=none;align=center;verticalAlign=middle;whiteSpace=wrap;rounded=0;labelBorderColor=none;fontColor=#000000;" parent="KSG5uzdACEAePT7BpWXn-2" vertex="1"><mxGeometry x="677.5" y="310" width="85" height="30" as="geometry"/></mxCell><mxCell id="KSG5uzdACEAePT7BpWXn-12" value="" style="rounded=0;whiteSpace=wrap;html=1;labelBorderColor=none;fontColor=#FF0000;" parent="KSG5uzdACEAePT7BpWXn-2" vertex="1"><mxGeometry x="430" y="350" width="430" height="160" as="geometry"/></mxCell><mxCell id="KSG5uzdACEAePT7BpWXn-13" style="edgeStyle=orthogonalEdgeStyle;rounded=0;orthogonalLoop=1;jettySize=auto;html=1;entryX=0.49;entryY=0.011;entryDx=0;entryDy=0;fontColor=#FF0000;entryPerimeter=0;exitX=1;exitY=0.5;exitDx=0;exitDy=0;" parent="KSG5uzdACEAePT7BpWXn-2" source="KSG5uzdACEAePT7BpWXn-8" target="KSG5uzdACEAePT7BpWXn-12" edge="1"><mxGeometry relative="1" as="geometry"><Array as="points"><mxPoint x="400" y="350"/><mxPoint x="400" y="320"/><mxPoint x="641" y="320"/></Array></mxGeometry></mxCell><mxCell id="KSG5uzdACEAePT7BpWXn-14" value="当前栈帧" style="text;html=1;strokeColor=none;fillColor=none;align=center;verticalAlign=middle;whiteSpace=wrap;rounded=0;labelBorderColor=none;fontColor=#FF0000;" parent="KSG5uzdACEAePT7BpWXn-2" vertex="1"><mxGeometry x="680" y="400" width="85" height="30" as="geometry"/></mxCell><mxCell id="KSG5uzdACEAePT7BpWXn-15" value="其他栈帧..." style="rounded=0;whiteSpace=wrap;html=1;labelBorderColor=none;fontColor=#000000;strokeColor=#000000;" parent="KSG5uzdACEAePT7BpWXn-2" vertex="1"><mxGeometry x="430" y="510" width="430" height="100" as="geometry"/></mxCell><mxCell id="KSG5uzdACEAePT7BpWXn-16" value="&lt;table border=&quot;1&quot; width=&quot;100%&quot; height=&quot;100%&quot; cellpadding=&quot;4&quot; style=&quot;width:100%;height:100%;border-collapse:collapse;&quot;&gt;&lt;tbody&gt;&lt;tr style=&quot;background-color:#A7C942;color:#ffffff;border:1px solid #98bf21;&quot;&gt;&lt;th&gt;序号&lt;/th&gt;&lt;th&gt;本地变量表&lt;/th&gt;&lt;/tr&gt;&lt;tr style=&quot;border:1px solid #98bf21;&quot;&gt;&lt;td&gt;0&lt;/td&gt;&lt;td&gt;args&lt;/td&gt;&lt;/tr&gt;&lt;tr style=&quot;background-color:#EAF2D3;border:1px solid #98bf21;&quot;&gt;&lt;td&gt;1&lt;/td&gt;&lt;td&gt;500&lt;/td&gt;&lt;/tr&gt;&lt;tr style=&quot;border:1px solid #98bf21;&quot;&gt;&lt;td&gt;2&lt;/td&gt;&lt;td&gt;&lt;br&gt;&lt;/td&gt;&lt;/tr&gt;&lt;tr style=&quot;background-color:#EAF2D3;border:1px solid #98bf21;&quot;&gt;&lt;td&gt;3&lt;/td&gt;&lt;td&gt;&lt;br&gt;&lt;/td&gt;&lt;/tr&gt;&lt;tr&gt;&lt;td&gt;4&lt;/td&gt;&lt;td&gt;&lt;br&gt;&lt;/td&gt;&lt;/tr&gt;&lt;/tbody&gt;&lt;/table&gt;" style="text;html=1;strokeColor=#99FF33;fillColor=#ffffff;overflow=fill;rounded=0;labelBorderColor=none;fontColor=#FF0000;align=center;" parent="KSG5uzdACEAePT7BpWXn-2" vertex="1"><mxGeometry x="430" y="360" width="160" height="140" as="geometry"/></mxCell><mxCell id="KSG5uzdACEAePT7BpWXn-17" value="&lt;table border=&quot;1&quot; width=&quot;100%&quot; height=&quot;100%&quot; cellpadding=&quot;4&quot; style=&quot;width:100%;height:100%;border-collapse:collapse;&quot;&gt;&lt;tbody&gt;&lt;tr style=&quot;background-color:#A7C942;color:#ffffff;border:1px solid #98bf21;&quot;&gt;&lt;th&gt;操作数栈&lt;/th&gt;&lt;/tr&gt;&lt;tr style=&quot;border:1px solid #98bf21;&quot;&gt;&lt;td&gt;100&lt;/td&gt;&lt;/tr&gt;&lt;tr style=&quot;background-color:#EAF2D3;border:1px solid #98bf21;&quot;&gt;&lt;td&gt;&lt;br&gt;&lt;/td&gt;&lt;/tr&gt;&lt;tr style=&quot;border:1px solid #98bf21;&quot;&gt;&lt;td&gt;&lt;br&gt;&lt;/td&gt;&lt;/tr&gt;&lt;/tbody&gt;&lt;/table&gt;" style="text;html=1;strokeColor=#c0c0c0;fillColor=#ffffff;overflow=fill;rounded=0;labelBorderColor=none;fontColor=#FF0000;align=center;" parent="KSG5uzdACEAePT7BpWXn-2" vertex="1"><mxGeometry x="602.5" y="360" width="77.5" height="90" as="geometry"/></mxCell><mxCell id="KSG5uzdACEAePT7BpWXn-18" value="其他栈帧信息" style="rounded=0;whiteSpace=wrap;html=1;labelBorderColor=none;fontColor=#000000;strokeColor=#99FF33;" parent="KSG5uzdACEAePT7BpWXn-2" vertex="1"><mxGeometry x="740" y="450" width="110" height="50" as="geometry"/></mxCell><mxCell id="KSG5uzdACEAePT7BpWXn-19" value="其他栈帧..." style="rounded=0;whiteSpace=wrap;html=1;labelBorderColor=none;fontColor=#000000;strokeColor=#000000;" parent="KSG5uzdACEAePT7BpWXn-2" vertex="1"><mxGeometry x="430" y="610" width="430" height="100" as="geometry"/></mxCell><mxCell id="KSG5uzdACEAePT7BpWXn-20" style="edgeStyle=orthogonalEdgeStyle;rounded=0;orthogonalLoop=1;jettySize=auto;html=1;entryX=-0.012;entryY=0.077;entryDx=0;entryDy=0;entryPerimeter=0;fontColor=#FF0000;" parent="KSG5uzdACEAePT7BpWXn-2" edge="1"><mxGeometry relative="1" as="geometry"><mxPoint x="582" y="72.0200000000001" as="sourcePoint"/><mxPoint x="661.9199999999996" y="72.0200000000001" as="targetPoint"/></mxGeometry></mxCell><mxCell id="KSG5uzdACEAePT7BpWXn-21" value="将byte型数据100压入操作数栈中" style="rounded=0;whiteSpace=wrap;html=1;labelBorderColor=none;fontColor=#FF0000;strokeColor=#000000;" parent="KSG5uzdACEAePT7BpWXn-2" vertex="1"><mxGeometry x="220" y="52" width="362" height="40" as="geometry"/></mxCell></root></mxGraphModel></diagram><diagram name="4" id="UzVmptQqoxkwJJG6p13m"><mxGraphModel dx="2545" dy="1021" grid="1" gridSize="10" guides="1" tooltips="1" connect="1" arrows="1" fold="1" page="1" pageScale="1" pageWidth="827" pageHeight="1169" math="0" shadow="0"><root><mxCell id="mQjZmmKWRFxKrylcZmmF-0"/><mxCell id="mQjZmmKWRFxKrylcZmmF-1" parent="mQjZmmKWRFxKrylcZmmF-0"/><mxCell id="mQjZmmKWRFxKrylcZmmF-2" value="" style="group" vertex="1" connectable="0" parent="mQjZmmKWRFxKrylcZmmF-1"><mxGeometry x="-250" y="10" width="1050" height="750" as="geometry"/></mxCell><mxCell id="mQjZmmKWRFxKrylcZmmF-3" value="" style="rounded=0;whiteSpace=wrap;html=1;labelBorderColor=none;fontColor=#FF0000;strokeColor=#000000;container=1;" vertex="1" parent="mQjZmmKWRFxKrylcZmmF-2"><mxGeometry width="1050" height="750" as="geometry"/></mxCell><mxCell id="mQjZmmKWRFxKrylcZmmF-4" value="&lt;pre style=&quot;background-color:#2b2b2b;color:#a9b7c6;font-family:'JetBrains Mono',monospace;font-size:9.8pt;&quot;&gt;&lt;span style=&quot;color:#cc7832;&quot;&gt;public static void &lt;/span&gt;&lt;span style=&quot;color:#ffc66d;&quot;&gt;main&lt;/span&gt;(String[] args) {&lt;br&gt;    &lt;span style=&quot;color:#cc7832;&quot;&gt;int &lt;/span&gt;x = &lt;span style=&quot;color:#6897bb;&quot;&gt;500&lt;/span&gt;&lt;span style=&quot;color:#cc7832;&quot;&gt;;&lt;br&gt;&lt;/span&gt;&lt;span style=&quot;color:#cc7832;&quot;&gt;    int &lt;/span&gt;y = &lt;span style=&quot;color:#6897bb;&quot;&gt;100&lt;/span&gt;&lt;span style=&quot;color:#cc7832;&quot;&gt;;&lt;br&gt;&lt;/span&gt;&lt;span style=&quot;color:#cc7832;&quot;&gt;    int &lt;/span&gt;a = x / y&lt;span style=&quot;color:#cc7832;&quot;&gt;;&lt;br&gt;&lt;/span&gt;&lt;span style=&quot;color:#cc7832;&quot;&gt;    int &lt;/span&gt;b = &lt;span style=&quot;color:#6897bb;&quot;&gt;50&lt;/span&gt;&lt;span style=&quot;color:#cc7832;&quot;&gt;;&lt;br&gt;&lt;/span&gt;&lt;span style=&quot;color:#cc7832;&quot;&gt;    &lt;/span&gt;System.&lt;span style=&quot;color:#9876aa;font-style:italic;&quot;&gt;out&lt;/span&gt;.println(a + b)&lt;span style=&quot;color:#cc7832;&quot;&gt;;&lt;br&gt;&lt;/span&gt;}&lt;/pre&gt;" style="rounded=0;whiteSpace=wrap;html=1;" vertex="1" parent="mQjZmmKWRFxKrylcZmmF-2"><mxGeometry x="180" y="440" width="120" height="60" as="geometry"/></mxCell><mxCell id="mQjZmmKWRFxKrylcZmmF-5" value="方法代码" style="text;html=1;strokeColor=none;fillColor=none;align=center;verticalAlign=middle;whiteSpace=wrap;rounded=0;" vertex="1" parent="mQjZmmKWRFxKrylcZmmF-2"><mxGeometry x="200" y="380" width="60" height="30" as="geometry"/></mxCell><mxCell id="mQjZmmKWRFxKrylcZmmF-6" value="&lt;div&gt;&amp;nbsp;0 sipush 500&lt;/div&gt;&lt;div&gt;&amp;nbsp;3 istore_1&lt;/div&gt;&lt;div&gt;&amp;nbsp;4 bipush 100&lt;/div&gt;&lt;div&gt;&amp;nbsp;&lt;font color=&quot;#ff0000&quot;&gt;6 istore_2&lt;/font&gt;&lt;/div&gt;&lt;div&gt;&amp;nbsp;7 iload_1&lt;/div&gt;&lt;div&gt;&amp;nbsp;8 iload_2&lt;/div&gt;&lt;div&gt;&amp;nbsp;9 idiv&lt;/div&gt;&lt;div&gt;10 istore_3&lt;/div&gt;&lt;div&gt;11 bipush 50&lt;/div&gt;&lt;div&gt;13 istore 4&lt;/div&gt;&lt;div&gt;15 getstatic #2 &amp;lt;java/lang/System.out : Ljava/io/PrintStream;&amp;gt;&lt;/div&gt;&lt;div&gt;18 iload_3&lt;/div&gt;&lt;div&gt;19 iload 4&lt;/div&gt;&lt;div&gt;21 iadd&lt;/div&gt;&lt;div&gt;22 invokevirtual #3 &amp;lt;java/io/PrintStream.println : (I)V&amp;gt;&lt;/div&gt;&lt;div&gt;25 return&lt;/div&gt;&lt;div&gt;&lt;br&gt;&lt;/div&gt;" style="rounded=0;whiteSpace=wrap;html=1;align=left;labelBorderColor=none;" vertex="1" parent="mQjZmmKWRFxKrylcZmmF-2"><mxGeometry x="664" y="30" width="340" height="260" as="geometry"/></mxCell><mxCell id="mQjZmmKWRFxKrylcZmmF-7" value="字节码指令" style="text;html=1;align=center;verticalAlign=middle;resizable=0;points=[];autosize=1;strokeColor=none;fillColor=none;" vertex="1" parent="mQjZmmKWRFxKrylcZmmF-2"><mxGeometry x="794" width="80" height="30" as="geometry"/></mxCell><mxCell id="mQjZmmKWRFxKrylcZmmF-8" value="&lt;font color=&quot;#ff0000&quot;&gt;6&lt;/font&gt;" style="rounded=0;whiteSpace=wrap;html=1;labelBorderColor=none;" vertex="1" parent="mQjZmmKWRFxKrylcZmmF-2"><mxGeometry x="230" y="330" width="130" height="40" as="geometry"/></mxCell><mxCell id="mQjZmmKWRFxKrylcZmmF-9" value="程序计数器" style="text;html=1;strokeColor=none;fillColor=none;align=center;verticalAlign=middle;whiteSpace=wrap;rounded=0;labelBorderColor=none;fontColor=#FF0000;" vertex="1" parent="mQjZmmKWRFxKrylcZmmF-2"><mxGeometry x="252.5" y="300" width="85" height="30" as="geometry"/></mxCell><mxCell id="mQjZmmKWRFxKrylcZmmF-10" value="" style="rounded=0;whiteSpace=wrap;html=1;labelBorderColor=none;fontColor=#FF0000;" vertex="1" parent="mQjZmmKWRFxKrylcZmmF-2"><mxGeometry x="430" y="350" width="580" height="360" as="geometry"/></mxCell><mxCell id="mQjZmmKWRFxKrylcZmmF-11" value="虚拟机栈" style="text;html=1;strokeColor=none;fillColor=none;align=center;verticalAlign=middle;whiteSpace=wrap;rounded=0;labelBorderColor=none;fontColor=#000000;" vertex="1" parent="mQjZmmKWRFxKrylcZmmF-2"><mxGeometry x="677.5" y="310" width="85" height="30" as="geometry"/></mxCell><mxCell id="mQjZmmKWRFxKrylcZmmF-12" value="" style="rounded=0;whiteSpace=wrap;html=1;labelBorderColor=none;fontColor=#FF0000;" vertex="1" parent="mQjZmmKWRFxKrylcZmmF-2"><mxGeometry x="430" y="350" width="430" height="160" as="geometry"/></mxCell><mxCell id="mQjZmmKWRFxKrylcZmmF-13" style="edgeStyle=orthogonalEdgeStyle;rounded=0;orthogonalLoop=1;jettySize=auto;html=1;entryX=0.49;entryY=0.011;entryDx=0;entryDy=0;fontColor=#FF0000;entryPerimeter=0;exitX=1;exitY=0.5;exitDx=0;exitDy=0;" edge="1" parent="mQjZmmKWRFxKrylcZmmF-2" source="mQjZmmKWRFxKrylcZmmF-8" target="mQjZmmKWRFxKrylcZmmF-12"><mxGeometry relative="1" as="geometry"><Array as="points"><mxPoint x="400" y="350"/><mxPoint x="400" y="320"/><mxPoint x="641" y="320"/></Array></mxGeometry></mxCell><mxCell id="mQjZmmKWRFxKrylcZmmF-14" value="当前栈帧" style="text;html=1;strokeColor=none;fillColor=none;align=center;verticalAlign=middle;whiteSpace=wrap;rounded=0;labelBorderColor=none;fontColor=#FF0000;" vertex="1" parent="mQjZmmKWRFxKrylcZmmF-2"><mxGeometry x="680" y="400" width="85" height="30" as="geometry"/></mxCell><mxCell id="mQjZmmKWRFxKrylcZmmF-15" value="其他栈帧..." style="rounded=0;whiteSpace=wrap;html=1;labelBorderColor=none;fontColor=#000000;strokeColor=#000000;" vertex="1" parent="mQjZmmKWRFxKrylcZmmF-2"><mxGeometry x="430" y="510" width="430" height="100" as="geometry"/></mxCell><mxCell id="mQjZmmKWRFxKrylcZmmF-16" value="&lt;table border=&quot;1&quot; width=&quot;100%&quot; height=&quot;100%&quot; cellpadding=&quot;4&quot; style=&quot;width:100%;height:100%;border-collapse:collapse;&quot;&gt;&lt;tbody&gt;&lt;tr style=&quot;background-color:#A7C942;color:#ffffff;border:1px solid #98bf21;&quot;&gt;&lt;th&gt;序号&lt;/th&gt;&lt;th&gt;本地变量表&lt;/th&gt;&lt;/tr&gt;&lt;tr style=&quot;border:1px solid #98bf21;&quot;&gt;&lt;td&gt;0&lt;/td&gt;&lt;td&gt;args&lt;/td&gt;&lt;/tr&gt;&lt;tr style=&quot;background-color:#EAF2D3;border:1px solid #98bf21;&quot;&gt;&lt;td&gt;1&lt;/td&gt;&lt;td&gt;500&lt;/td&gt;&lt;/tr&gt;&lt;tr style=&quot;border:1px solid #98bf21;&quot;&gt;&lt;td&gt;2&lt;/td&gt;&lt;td&gt;100&lt;/td&gt;&lt;/tr&gt;&lt;tr style=&quot;background-color:#EAF2D3;border:1px solid #98bf21;&quot;&gt;&lt;td&gt;3&lt;/td&gt;&lt;td&gt;&lt;br&gt;&lt;/td&gt;&lt;/tr&gt;&lt;tr&gt;&lt;td&gt;4&lt;/td&gt;&lt;td&gt;&lt;br&gt;&lt;/td&gt;&lt;/tr&gt;&lt;/tbody&gt;&lt;/table&gt;" style="text;html=1;strokeColor=#99FF33;fillColor=#ffffff;overflow=fill;rounded=0;labelBorderColor=none;fontColor=#FF0000;align=center;" vertex="1" parent="mQjZmmKWRFxKrylcZmmF-2"><mxGeometry x="430" y="360" width="160" height="140" as="geometry"/></mxCell><mxCell id="mQjZmmKWRFxKrylcZmmF-17" value="&lt;table border=&quot;1&quot; width=&quot;100%&quot; height=&quot;100%&quot; cellpadding=&quot;4&quot; style=&quot;width:100%;height:100%;border-collapse:collapse;&quot;&gt;&lt;tbody&gt;&lt;tr style=&quot;background-color:#A7C942;color:#ffffff;border:1px solid #98bf21;&quot;&gt;&lt;th&gt;操作数栈&lt;/th&gt;&lt;/tr&gt;&lt;tr style=&quot;border:1px solid #98bf21;&quot;&gt;&lt;td&gt;&lt;br&gt;&lt;/td&gt;&lt;/tr&gt;&lt;tr style=&quot;background-color:#EAF2D3;border:1px solid #98bf21;&quot;&gt;&lt;td&gt;&lt;br&gt;&lt;/td&gt;&lt;/tr&gt;&lt;tr style=&quot;border:1px solid #98bf21;&quot;&gt;&lt;td&gt;&lt;br&gt;&lt;/td&gt;&lt;/tr&gt;&lt;/tbody&gt;&lt;/table&gt;" style="text;html=1;strokeColor=#c0c0c0;fillColor=#ffffff;overflow=fill;rounded=0;labelBorderColor=none;fontColor=#FF0000;align=center;" vertex="1" parent="mQjZmmKWRFxKrylcZmmF-2"><mxGeometry x="602.5" y="360" width="77.5" height="90" as="geometry"/></mxCell><mxCell id="mQjZmmKWRFxKrylcZmmF-18" value="其他栈帧信息" style="rounded=0;whiteSpace=wrap;html=1;labelBorderColor=none;fontColor=#000000;strokeColor=#99FF33;" vertex="1" parent="mQjZmmKWRFxKrylcZmmF-2"><mxGeometry x="740" y="450" width="110" height="50" as="geometry"/></mxCell><mxCell id="mQjZmmKWRFxKrylcZmmF-19" value="其他栈帧..." style="rounded=0;whiteSpace=wrap;html=1;labelBorderColor=none;fontColor=#000000;strokeColor=#000000;" vertex="1" parent="mQjZmmKWRFxKrylcZmmF-2"><mxGeometry x="430" y="610" width="430" height="100" as="geometry"/></mxCell><mxCell id="mQjZmmKWRFxKrylcZmmF-20" style="edgeStyle=orthogonalEdgeStyle;rounded=0;orthogonalLoop=1;jettySize=auto;html=1;entryX=-0.012;entryY=0.077;entryDx=0;entryDy=0;entryPerimeter=0;fontColor=#FF0000;" edge="1" parent="mQjZmmKWRFxKrylcZmmF-2"><mxGeometry relative="1" as="geometry"><mxPoint x="582" y="87.0200000000001" as="sourcePoint"/><mxPoint x="661.9199999999996" y="87.0200000000001" as="targetPoint"/></mxGeometry></mxCell><mxCell id="mQjZmmKWRFxKrylcZmmF-21" value="将操作数栈顶数据100弹出并保存至本地变量表2中" style="rounded=0;whiteSpace=wrap;html=1;labelBorderColor=none;fontColor=#FF0000;strokeColor=#000000;" vertex="1" parent="mQjZmmKWRFxKrylcZmmF-2"><mxGeometry x="220" y="67" width="362" height="40" as="geometry"/></mxCell></root></mxGraphModel></diagram><diagram name="5" id="LiZm5lOc4v1zd8aTcoIl"><mxGraphModel dx="2205" dy="728" grid="1" gridSize="10" guides="1" tooltips="1" connect="1" arrows="1" fold="1" page="1" pageScale="1" pageWidth="827" pageHeight="1169" math="0" shadow="0"><root><mxCell id="L46nd0V_CUVeUWm5lp1i-0"/><mxCell id="L46nd0V_CUVeUWm5lp1i-1" parent="L46nd0V_CUVeUWm5lp1i-0"/><mxCell id="L46nd0V_CUVeUWm5lp1i-2" value="" style="group" parent="L46nd0V_CUVeUWm5lp1i-1" vertex="1" connectable="0"><mxGeometry x="-250" y="10" width="1050" height="750" as="geometry"/></mxCell><mxCell id="L46nd0V_CUVeUWm5lp1i-3" value="" style="rounded=0;whiteSpace=wrap;html=1;labelBorderColor=none;fontColor=#FF0000;strokeColor=#000000;container=1;" parent="L46nd0V_CUVeUWm5lp1i-2" vertex="1"><mxGeometry width="1050" height="750" as="geometry"><mxRectangle width="50" height="40" as="alternateBounds"/></mxGeometry></mxCell><mxCell id="L46nd0V_CUVeUWm5lp1i-4" value="&lt;pre style=&quot;background-color:#2b2b2b;color:#a9b7c6;font-family:'JetBrains Mono',monospace;font-size:9.8pt;&quot;&gt;&lt;span style=&quot;color:#cc7832;&quot;&gt;public static void &lt;/span&gt;&lt;span style=&quot;color:#ffc66d;&quot;&gt;main&lt;/span&gt;(String[] args) {&lt;br&gt;    &lt;span style=&quot;color:#cc7832;&quot;&gt;int &lt;/span&gt;x = &lt;span style=&quot;color:#6897bb;&quot;&gt;500&lt;/span&gt;&lt;span style=&quot;color:#cc7832;&quot;&gt;;&lt;br&gt;&lt;/span&gt;&lt;span style=&quot;color:#cc7832;&quot;&gt;    int &lt;/span&gt;y = &lt;span style=&quot;color:#6897bb;&quot;&gt;100&lt;/span&gt;&lt;span style=&quot;color:#cc7832;&quot;&gt;;&lt;br&gt;&lt;/span&gt;&lt;span style=&quot;color:#cc7832;&quot;&gt;    int &lt;/span&gt;a = x / y&lt;span style=&quot;color:#cc7832;&quot;&gt;;&lt;br&gt;&lt;/span&gt;&lt;span style=&quot;color:#cc7832;&quot;&gt;    int &lt;/span&gt;b = &lt;span style=&quot;color:#6897bb;&quot;&gt;50&lt;/span&gt;&lt;span style=&quot;color:#cc7832;&quot;&gt;;&lt;br&gt;&lt;/span&gt;&lt;span style=&quot;color:#cc7832;&quot;&gt;    &lt;/span&gt;System.&lt;span style=&quot;color:#9876aa;font-style:italic;&quot;&gt;out&lt;/span&gt;.println(a + b)&lt;span style=&quot;color:#cc7832;&quot;&gt;;&lt;br&gt;&lt;/span&gt;}&lt;/pre&gt;" style="rounded=0;whiteSpace=wrap;html=1;" parent="L46nd0V_CUVeUWm5lp1i-2" vertex="1"><mxGeometry x="180" y="440" width="120" height="60" as="geometry"/></mxCell><mxCell id="L46nd0V_CUVeUWm5lp1i-5" value="方法代码" style="text;html=1;strokeColor=none;fillColor=none;align=center;verticalAlign=middle;whiteSpace=wrap;rounded=0;" parent="L46nd0V_CUVeUWm5lp1i-2" vertex="1"><mxGeometry x="200" y="380" width="60" height="30" as="geometry"/></mxCell><mxCell id="L46nd0V_CUVeUWm5lp1i-6" value="&lt;div&gt;&amp;nbsp;0 sipush 500&lt;/div&gt;&lt;div&gt;&amp;nbsp;3 istore_1&lt;/div&gt;&lt;div&gt;&amp;nbsp;4 bipush 100&lt;/div&gt;&lt;div&gt;&amp;nbsp;6 istore_2&lt;/div&gt;&lt;div&gt;&lt;font color=&quot;#ff0000&quot;&gt;&amp;nbsp;7 iload_1&lt;/font&gt;&lt;/div&gt;&lt;div&gt;&amp;nbsp;8 iload_2&lt;/div&gt;&lt;div&gt;&amp;nbsp;9 idiv&lt;/div&gt;&lt;div&gt;10 istore_3&lt;/div&gt;&lt;div&gt;11 bipush 50&lt;/div&gt;&lt;div&gt;13 istore 4&lt;/div&gt;&lt;div&gt;15 getstatic #2 &amp;lt;java/lang/System.out : Ljava/io/PrintStream;&amp;gt;&lt;/div&gt;&lt;div&gt;18 iload_3&lt;/div&gt;&lt;div&gt;19 iload 4&lt;/div&gt;&lt;div&gt;21 iadd&lt;/div&gt;&lt;div&gt;22 invokevirtual #3 &amp;lt;java/io/PrintStream.println : (I)V&amp;gt;&lt;/div&gt;&lt;div&gt;25 return&lt;/div&gt;&lt;div&gt;&lt;br&gt;&lt;/div&gt;" style="rounded=0;whiteSpace=wrap;html=1;align=left;labelBorderColor=none;" parent="L46nd0V_CUVeUWm5lp1i-2" vertex="1"><mxGeometry x="664" y="30" width="340" height="260" as="geometry"/></mxCell><mxCell id="L46nd0V_CUVeUWm5lp1i-7" value="字节码指令" style="text;html=1;align=center;verticalAlign=middle;resizable=0;points=[];autosize=1;strokeColor=none;fillColor=none;" parent="L46nd0V_CUVeUWm5lp1i-2" vertex="1"><mxGeometry x="794" width="80" height="30" as="geometry"/></mxCell><mxCell id="L46nd0V_CUVeUWm5lp1i-8" value="&lt;font color=&quot;#ff0000&quot;&gt;7&lt;/font&gt;" style="rounded=0;whiteSpace=wrap;html=1;labelBorderColor=none;" parent="L46nd0V_CUVeUWm5lp1i-2" vertex="1"><mxGeometry x="230" y="330" width="130" height="40" as="geometry"/></mxCell><mxCell id="L46nd0V_CUVeUWm5lp1i-9" value="程序计数器" style="text;html=1;strokeColor=none;fillColor=none;align=center;verticalAlign=middle;whiteSpace=wrap;rounded=0;labelBorderColor=none;fontColor=#FF0000;" parent="L46nd0V_CUVeUWm5lp1i-2" vertex="1"><mxGeometry x="252.5" y="300" width="85" height="30" as="geometry"/></mxCell><mxCell id="L46nd0V_CUVeUWm5lp1i-10" value="" style="rounded=0;whiteSpace=wrap;html=1;labelBorderColor=none;fontColor=#FF0000;" parent="L46nd0V_CUVeUWm5lp1i-2" vertex="1"><mxGeometry x="430" y="350" width="580" height="360" as="geometry"/></mxCell><mxCell id="L46nd0V_CUVeUWm5lp1i-11" value="虚拟机栈" style="text;html=1;strokeColor=none;fillColor=none;align=center;verticalAlign=middle;whiteSpace=wrap;rounded=0;labelBorderColor=none;fontColor=#000000;" parent="L46nd0V_CUVeUWm5lp1i-2" vertex="1"><mxGeometry x="677.5" y="310" width="85" height="30" as="geometry"/></mxCell><mxCell id="L46nd0V_CUVeUWm5lp1i-12" value="" style="rounded=0;whiteSpace=wrap;html=1;labelBorderColor=none;fontColor=#FF0000;" parent="L46nd0V_CUVeUWm5lp1i-2" vertex="1"><mxGeometry x="430" y="350" width="430" height="160" as="geometry"/></mxCell><mxCell id="L46nd0V_CUVeUWm5lp1i-13" style="edgeStyle=orthogonalEdgeStyle;rounded=0;orthogonalLoop=1;jettySize=auto;html=1;entryX=0.49;entryY=0.011;entryDx=0;entryDy=0;fontColor=#FF0000;entryPerimeter=0;exitX=1;exitY=0.5;exitDx=0;exitDy=0;" parent="L46nd0V_CUVeUWm5lp1i-2" source="L46nd0V_CUVeUWm5lp1i-8" target="L46nd0V_CUVeUWm5lp1i-12" edge="1"><mxGeometry relative="1" as="geometry"><Array as="points"><mxPoint x="400" y="350"/><mxPoint x="400" y="320"/><mxPoint x="641" y="320"/></Array></mxGeometry></mxCell><mxCell id="L46nd0V_CUVeUWm5lp1i-14" value="当前栈帧" style="text;html=1;strokeColor=none;fillColor=none;align=center;verticalAlign=middle;whiteSpace=wrap;rounded=0;labelBorderColor=none;fontColor=#FF0000;" parent="L46nd0V_CUVeUWm5lp1i-2" vertex="1"><mxGeometry x="680" y="400" width="85" height="30" as="geometry"/></mxCell><mxCell id="L46nd0V_CUVeUWm5lp1i-15" value="其他栈帧..." style="rounded=0;whiteSpace=wrap;html=1;labelBorderColor=none;fontColor=#000000;strokeColor=#000000;" parent="L46nd0V_CUVeUWm5lp1i-2" vertex="1"><mxGeometry x="430" y="510" width="430" height="100" as="geometry"/></mxCell><mxCell id="L46nd0V_CUVeUWm5lp1i-16" value="&lt;table border=&quot;1&quot; width=&quot;100%&quot; height=&quot;100%&quot; cellpadding=&quot;4&quot; style=&quot;width:100%;height:100%;border-collapse:collapse;&quot;&gt;&lt;tbody&gt;&lt;tr style=&quot;background-color:#A7C942;color:#ffffff;border:1px solid #98bf21;&quot;&gt;&lt;th&gt;序号&lt;/th&gt;&lt;th&gt;本地变量表&lt;/th&gt;&lt;/tr&gt;&lt;tr style=&quot;border:1px solid #98bf21;&quot;&gt;&lt;td&gt;0&lt;/td&gt;&lt;td&gt;args&lt;/td&gt;&lt;/tr&gt;&lt;tr style=&quot;background-color:#EAF2D3;border:1px solid #98bf21;&quot;&gt;&lt;td&gt;1&lt;/td&gt;&lt;td&gt;500&lt;/td&gt;&lt;/tr&gt;&lt;tr style=&quot;border:1px solid #98bf21;&quot;&gt;&lt;td&gt;2&lt;/td&gt;&lt;td&gt;100&lt;/td&gt;&lt;/tr&gt;&lt;tr style=&quot;background-color:#EAF2D3;border:1px solid #98bf21;&quot;&gt;&lt;td&gt;3&lt;/td&gt;&lt;td&gt;&lt;br&gt;&lt;/td&gt;&lt;/tr&gt;&lt;tr&gt;&lt;td&gt;4&lt;/td&gt;&lt;td&gt;&lt;br&gt;&lt;/td&gt;&lt;/tr&gt;&lt;/tbody&gt;&lt;/table&gt;" style="text;html=1;strokeColor=#99FF33;fillColor=#ffffff;overflow=fill;rounded=0;labelBorderColor=none;fontColor=#FF0000;align=center;" parent="L46nd0V_CUVeUWm5lp1i-2" vertex="1"><mxGeometry x="430" y="360" width="160" height="140" as="geometry"/></mxCell><mxCell id="L46nd0V_CUVeUWm5lp1i-17" value="&lt;table border=&quot;1&quot; width=&quot;100%&quot; height=&quot;100%&quot; cellpadding=&quot;4&quot; style=&quot;width:100%;height:100%;border-collapse:collapse;&quot;&gt;&lt;tbody&gt;&lt;tr style=&quot;background-color:#A7C942;color:#ffffff;border:1px solid #98bf21;&quot;&gt;&lt;th&gt;操作数栈&lt;/th&gt;&lt;/tr&gt;&lt;tr style=&quot;border:1px solid #98bf21;&quot;&gt;&lt;td&gt;500&lt;/td&gt;&lt;/tr&gt;&lt;tr style=&quot;background-color:#EAF2D3;border:1px solid #98bf21;&quot;&gt;&lt;td&gt;&lt;br&gt;&lt;/td&gt;&lt;/tr&gt;&lt;tr style=&quot;border:1px solid #98bf21;&quot;&gt;&lt;td&gt;&lt;br&gt;&lt;/td&gt;&lt;/tr&gt;&lt;/tbody&gt;&lt;/table&gt;" style="text;html=1;strokeColor=#c0c0c0;fillColor=#ffffff;overflow=fill;rounded=0;labelBorderColor=none;fontColor=#FF0000;align=center;" parent="L46nd0V_CUVeUWm5lp1i-2" vertex="1"><mxGeometry x="602.5" y="360" width="77.5" height="90" as="geometry"/></mxCell><mxCell id="L46nd0V_CUVeUWm5lp1i-18" value="其他栈帧信息" style="rounded=0;whiteSpace=wrap;html=1;labelBorderColor=none;fontColor=#000000;strokeColor=#99FF33;" parent="L46nd0V_CUVeUWm5lp1i-2" vertex="1"><mxGeometry x="740" y="450" width="110" height="50" as="geometry"/></mxCell><mxCell id="L46nd0V_CUVeUWm5lp1i-19" value="其他栈帧..." style="rounded=0;whiteSpace=wrap;html=1;labelBorderColor=none;fontColor=#000000;strokeColor=#000000;" parent="L46nd0V_CUVeUWm5lp1i-2" vertex="1"><mxGeometry x="430" y="610" width="430" height="100" as="geometry"/></mxCell><mxCell id="L46nd0V_CUVeUWm5lp1i-20" style="edgeStyle=orthogonalEdgeStyle;rounded=0;orthogonalLoop=1;jettySize=auto;html=1;entryX=-0.012;entryY=0.077;entryDx=0;entryDy=0;entryPerimeter=0;fontColor=#FF0000;" parent="L46nd0V_CUVeUWm5lp1i-2" edge="1"><mxGeometry relative="1" as="geometry"><mxPoint x="582" y="103.0200000000001" as="sourcePoint"/><mxPoint x="661.9199999999996" y="103.0200000000001" as="targetPoint"/></mxGeometry></mxCell><mxCell id="L46nd0V_CUVeUWm5lp1i-21" value="将本地变量表1中500压入操作数栈中" style="rounded=0;whiteSpace=wrap;html=1;labelBorderColor=none;fontColor=#FF0000;strokeColor=#000000;" parent="L46nd0V_CUVeUWm5lp1i-2" vertex="1"><mxGeometry x="220" y="83" width="362" height="40" as="geometry"/></mxCell></root></mxGraphModel></diagram><diagram name="6" id="VF8NXzOHRhqveSPc43-l"><mxGraphModel dx="2205" dy="728" grid="1" gridSize="10" guides="1" tooltips="1" connect="1" arrows="1" fold="1" page="1" pageScale="1" pageWidth="827" pageHeight="1169" math="0" shadow="0"><root><mxCell id="xfD_uG-ac2D5PzMO2oPH-0"/><mxCell id="xfD_uG-ac2D5PzMO2oPH-1" parent="xfD_uG-ac2D5PzMO2oPH-0"/><mxCell id="xfD_uG-ac2D5PzMO2oPH-2" value="" style="group" parent="xfD_uG-ac2D5PzMO2oPH-1" vertex="1" connectable="0"><mxGeometry x="-250" y="10" width="1050" height="750" as="geometry"/></mxCell><mxCell id="xfD_uG-ac2D5PzMO2oPH-3" value="" style="rounded=0;whiteSpace=wrap;html=1;labelBorderColor=none;fontColor=#FF0000;strokeColor=#000000;container=1;" parent="xfD_uG-ac2D5PzMO2oPH-2" vertex="1"><mxGeometry width="1050" height="750" as="geometry"><mxRectangle width="50" height="40" as="alternateBounds"/></mxGeometry></mxCell><mxCell id="xfD_uG-ac2D5PzMO2oPH-4" value="&lt;pre style=&quot;background-color:#2b2b2b;color:#a9b7c6;font-family:'JetBrains Mono',monospace;font-size:9.8pt;&quot;&gt;&lt;span style=&quot;color:#cc7832;&quot;&gt;public static void &lt;/span&gt;&lt;span style=&quot;color:#ffc66d;&quot;&gt;main&lt;/span&gt;(String[] args) {&lt;br&gt;    &lt;span style=&quot;color:#cc7832;&quot;&gt;int &lt;/span&gt;x = &lt;span style=&quot;color:#6897bb;&quot;&gt;500&lt;/span&gt;&lt;span style=&quot;color:#cc7832;&quot;&gt;;&lt;br&gt;&lt;/span&gt;&lt;span style=&quot;color:#cc7832;&quot;&gt;    int &lt;/span&gt;y = &lt;span style=&quot;color:#6897bb;&quot;&gt;100&lt;/span&gt;&lt;span style=&quot;color:#cc7832;&quot;&gt;;&lt;br&gt;&lt;/span&gt;&lt;span style=&quot;color:#cc7832;&quot;&gt;    int &lt;/span&gt;a = x / y&lt;span style=&quot;color:#cc7832;&quot;&gt;;&lt;br&gt;&lt;/span&gt;&lt;span style=&quot;color:#cc7832;&quot;&gt;    int &lt;/span&gt;b = &lt;span style=&quot;color:#6897bb;&quot;&gt;50&lt;/span&gt;&lt;span style=&quot;color:#cc7832;&quot;&gt;;&lt;br&gt;&lt;/span&gt;&lt;span style=&quot;color:#cc7832;&quot;&gt;    &lt;/span&gt;System.&lt;span style=&quot;color:#9876aa;font-style:italic;&quot;&gt;out&lt;/span&gt;.println(a + b)&lt;span style=&quot;color:#cc7832;&quot;&gt;;&lt;br&gt;&lt;/span&gt;}&lt;/pre&gt;" style="rounded=0;whiteSpace=wrap;html=1;" parent="xfD_uG-ac2D5PzMO2oPH-2" vertex="1"><mxGeometry x="180" y="440" width="120" height="60" as="geometry"/></mxCell><mxCell id="xfD_uG-ac2D5PzMO2oPH-5" value="方法代码" style="text;html=1;strokeColor=none;fillColor=none;align=center;verticalAlign=middle;whiteSpace=wrap;rounded=0;" parent="xfD_uG-ac2D5PzMO2oPH-2" vertex="1"><mxGeometry x="200" y="380" width="60" height="30" as="geometry"/></mxCell><mxCell id="xfD_uG-ac2D5PzMO2oPH-6" value="&lt;div&gt;&amp;nbsp;0 sipush 500&lt;/div&gt;&lt;div&gt;&amp;nbsp;3 istore_1&lt;/div&gt;&lt;div&gt;&amp;nbsp;4 bipush 100&lt;/div&gt;&lt;div&gt;&amp;nbsp;6 istore_2&lt;/div&gt;&lt;div&gt;&lt;font color=&quot;#ff0000&quot;&gt;&amp;nbsp;&lt;/font&gt;7 iload_1&lt;/div&gt;&lt;div&gt;&lt;font color=&quot;#ff0000&quot;&gt;&amp;nbsp;8 iload_2&lt;/font&gt;&lt;/div&gt;&lt;div&gt;&amp;nbsp;9 idiv&lt;/div&gt;&lt;div&gt;10 istore_3&lt;/div&gt;&lt;div&gt;11 bipush 50&lt;/div&gt;&lt;div&gt;13 istore 4&lt;/div&gt;&lt;div&gt;15 getstatic #2 &amp;lt;java/lang/System.out : Ljava/io/PrintStream;&amp;gt;&lt;/div&gt;&lt;div&gt;18 iload_3&lt;/div&gt;&lt;div&gt;19 iload 4&lt;/div&gt;&lt;div&gt;21 iadd&lt;/div&gt;&lt;div&gt;22 invokevirtual #3 &amp;lt;java/io/PrintStream.println : (I)V&amp;gt;&lt;/div&gt;&lt;div&gt;25 return&lt;/div&gt;&lt;div&gt;&lt;br&gt;&lt;/div&gt;" style="rounded=0;whiteSpace=wrap;html=1;align=left;labelBorderColor=none;" parent="xfD_uG-ac2D5PzMO2oPH-2" vertex="1"><mxGeometry x="664" y="30" width="340" height="260" as="geometry"/></mxCell><mxCell id="xfD_uG-ac2D5PzMO2oPH-7" value="字节码指令" style="text;html=1;align=center;verticalAlign=middle;resizable=0;points=[];autosize=1;strokeColor=none;fillColor=none;" parent="xfD_uG-ac2D5PzMO2oPH-2" vertex="1"><mxGeometry x="794" width="80" height="30" as="geometry"/></mxCell><mxCell id="xfD_uG-ac2D5PzMO2oPH-8" value="&lt;font color=&quot;#ff0000&quot;&gt;8&lt;/font&gt;" style="rounded=0;whiteSpace=wrap;html=1;labelBorderColor=none;" parent="xfD_uG-ac2D5PzMO2oPH-2" vertex="1"><mxGeometry x="230" y="330" width="130" height="40" as="geometry"/></mxCell><mxCell id="xfD_uG-ac2D5PzMO2oPH-9" value="程序计数器" style="text;html=1;strokeColor=none;fillColor=none;align=center;verticalAlign=middle;whiteSpace=wrap;rounded=0;labelBorderColor=none;fontColor=#FF0000;" parent="xfD_uG-ac2D5PzMO2oPH-2" vertex="1"><mxGeometry x="252.5" y="300" width="85" height="30" as="geometry"/></mxCell><mxCell id="xfD_uG-ac2D5PzMO2oPH-10" value="" style="rounded=0;whiteSpace=wrap;html=1;labelBorderColor=none;fontColor=#FF0000;" parent="xfD_uG-ac2D5PzMO2oPH-2" vertex="1"><mxGeometry x="430" y="350" width="580" height="360" as="geometry"/></mxCell><mxCell id="xfD_uG-ac2D5PzMO2oPH-11" value="虚拟机栈" style="text;html=1;strokeColor=none;fillColor=none;align=center;verticalAlign=middle;whiteSpace=wrap;rounded=0;labelBorderColor=none;fontColor=#000000;" parent="xfD_uG-ac2D5PzMO2oPH-2" vertex="1"><mxGeometry x="677.5" y="310" width="85" height="30" as="geometry"/></mxCell><mxCell id="xfD_uG-ac2D5PzMO2oPH-12" value="" style="rounded=0;whiteSpace=wrap;html=1;labelBorderColor=none;fontColor=#FF0000;" parent="xfD_uG-ac2D5PzMO2oPH-2" vertex="1"><mxGeometry x="430" y="350" width="430" height="160" as="geometry"/></mxCell><mxCell id="xfD_uG-ac2D5PzMO2oPH-13" style="edgeStyle=orthogonalEdgeStyle;rounded=0;orthogonalLoop=1;jettySize=auto;html=1;entryX=0.49;entryY=0.011;entryDx=0;entryDy=0;fontColor=#FF0000;entryPerimeter=0;exitX=1;exitY=0.5;exitDx=0;exitDy=0;" parent="xfD_uG-ac2D5PzMO2oPH-2" source="xfD_uG-ac2D5PzMO2oPH-8" target="xfD_uG-ac2D5PzMO2oPH-12" edge="1"><mxGeometry relative="1" as="geometry"><Array as="points"><mxPoint x="400" y="350"/><mxPoint x="400" y="320"/><mxPoint x="641" y="320"/></Array></mxGeometry></mxCell><mxCell id="xfD_uG-ac2D5PzMO2oPH-14" value="当前栈帧" style="text;html=1;strokeColor=none;fillColor=none;align=center;verticalAlign=middle;whiteSpace=wrap;rounded=0;labelBorderColor=none;fontColor=#FF0000;" parent="xfD_uG-ac2D5PzMO2oPH-2" vertex="1"><mxGeometry x="680" y="400" width="85" height="30" as="geometry"/></mxCell><mxCell id="xfD_uG-ac2D5PzMO2oPH-15" value="其他栈帧..." style="rounded=0;whiteSpace=wrap;html=1;labelBorderColor=none;fontColor=#000000;strokeColor=#000000;" parent="xfD_uG-ac2D5PzMO2oPH-2" vertex="1"><mxGeometry x="430" y="510" width="430" height="100" as="geometry"/></mxCell><mxCell id="xfD_uG-ac2D5PzMO2oPH-16" value="&lt;table border=&quot;1&quot; width=&quot;100%&quot; height=&quot;100%&quot; cellpadding=&quot;4&quot; style=&quot;width:100%;height:100%;border-collapse:collapse;&quot;&gt;&lt;tbody&gt;&lt;tr style=&quot;background-color:#A7C942;color:#ffffff;border:1px solid #98bf21;&quot;&gt;&lt;th&gt;序号&lt;/th&gt;&lt;th&gt;本地变量表&lt;/th&gt;&lt;/tr&gt;&lt;tr style=&quot;border:1px solid #98bf21;&quot;&gt;&lt;td&gt;0&lt;/td&gt;&lt;td&gt;args&lt;/td&gt;&lt;/tr&gt;&lt;tr style=&quot;background-color:#EAF2D3;border:1px solid #98bf21;&quot;&gt;&lt;td&gt;1&lt;/td&gt;&lt;td&gt;500&lt;/td&gt;&lt;/tr&gt;&lt;tr style=&quot;border:1px solid #98bf21;&quot;&gt;&lt;td&gt;2&lt;/td&gt;&lt;td&gt;100&lt;/td&gt;&lt;/tr&gt;&lt;tr style=&quot;background-color:#EAF2D3;border:1px solid #98bf21;&quot;&gt;&lt;td&gt;3&lt;/td&gt;&lt;td&gt;&lt;br&gt;&lt;/td&gt;&lt;/tr&gt;&lt;tr&gt;&lt;td&gt;4&lt;/td&gt;&lt;td&gt;&lt;br&gt;&lt;/td&gt;&lt;/tr&gt;&lt;/tbody&gt;&lt;/table&gt;" style="text;html=1;strokeColor=#99FF33;fillColor=#ffffff;overflow=fill;rounded=0;labelBorderColor=none;fontColor=#FF0000;align=center;" parent="xfD_uG-ac2D5PzMO2oPH-2" vertex="1"><mxGeometry x="430" y="360" width="160" height="140" as="geometry"/></mxCell><mxCell id="xfD_uG-ac2D5PzMO2oPH-17" value="&lt;table border=&quot;1&quot; width=&quot;100%&quot; height=&quot;100%&quot; cellpadding=&quot;4&quot; style=&quot;width:100%;height:100%;border-collapse:collapse;&quot;&gt;&lt;tbody&gt;&lt;tr style=&quot;background-color:#A7C942;color:#ffffff;border:1px solid #98bf21;&quot;&gt;&lt;th&gt;操作数栈&lt;/th&gt;&lt;/tr&gt;&lt;tr style=&quot;border:1px solid #98bf21;&quot;&gt;&lt;td&gt;100&lt;/td&gt;&lt;/tr&gt;&lt;tr style=&quot;background-color:#EAF2D3;border:1px solid #98bf21;&quot;&gt;&lt;td&gt;500&lt;/td&gt;&lt;/tr&gt;&lt;tr style=&quot;border:1px solid #98bf21;&quot;&gt;&lt;td&gt;&lt;br&gt;&lt;/td&gt;&lt;/tr&gt;&lt;/tbody&gt;&lt;/table&gt;" style="text;html=1;strokeColor=#c0c0c0;fillColor=#ffffff;overflow=fill;rounded=0;labelBorderColor=none;fontColor=#FF0000;align=center;" parent="xfD_uG-ac2D5PzMO2oPH-2" vertex="1"><mxGeometry x="602.5" y="360" width="77.5" height="90" as="geometry"/></mxCell><mxCell id="xfD_uG-ac2D5PzMO2oPH-18" value="其他栈帧信息" style="rounded=0;whiteSpace=wrap;html=1;labelBorderColor=none;fontColor=#000000;strokeColor=#99FF33;" parent="xfD_uG-ac2D5PzMO2oPH-2" vertex="1"><mxGeometry x="740" y="450" width="110" height="50" as="geometry"/></mxCell><mxCell id="xfD_uG-ac2D5PzMO2oPH-19" value="其他栈帧..." style="rounded=0;whiteSpace=wrap;html=1;labelBorderColor=none;fontColor=#000000;strokeColor=#000000;" parent="xfD_uG-ac2D5PzMO2oPH-2" vertex="1"><mxGeometry x="430" y="610" width="430" height="100" as="geometry"/></mxCell><mxCell id="xfD_uG-ac2D5PzMO2oPH-20" style="edgeStyle=orthogonalEdgeStyle;rounded=0;orthogonalLoop=1;jettySize=auto;html=1;entryX=-0.012;entryY=0.077;entryDx=0;entryDy=0;entryPerimeter=0;fontColor=#FF0000;" parent="xfD_uG-ac2D5PzMO2oPH-2" edge="1"><mxGeometry relative="1" as="geometry"><mxPoint x="582" y="116.0200000000001" as="sourcePoint"/><mxPoint x="661.9199999999996" y="116.0200000000001" as="targetPoint"/></mxGeometry></mxCell><mxCell id="xfD_uG-ac2D5PzMO2oPH-21" value="将本地变量表2中100压入操作数栈中" style="rounded=0;whiteSpace=wrap;html=1;labelBorderColor=none;fontColor=#FF0000;strokeColor=#000000;" parent="xfD_uG-ac2D5PzMO2oPH-2" vertex="1"><mxGeometry x="220" y="96" width="362" height="40" as="geometry"/></mxCell></root></mxGraphModel></diagram><diagram name="7" id="ZUzK_WlmtHTdkhsYOecu"><mxGraphModel dx="2205" dy="728" grid="1" gridSize="10" guides="1" tooltips="1" connect="1" arrows="1" fold="1" page="1" pageScale="1" pageWidth="827" pageHeight="1169" math="0" shadow="0"><root><mxCell id="CuUcJCMueAbeu3ch_9of-0"/><mxCell id="CuUcJCMueAbeu3ch_9of-1" parent="CuUcJCMueAbeu3ch_9of-0"/><mxCell id="CuUcJCMueAbeu3ch_9of-2" value="" style="group" parent="CuUcJCMueAbeu3ch_9of-1" vertex="1" connectable="0"><mxGeometry x="-250" y="10" width="1050" height="750" as="geometry"/></mxCell><mxCell id="CuUcJCMueAbeu3ch_9of-3" value="" style="rounded=0;whiteSpace=wrap;html=1;labelBorderColor=none;fontColor=#FF0000;strokeColor=#000000;container=1;" parent="CuUcJCMueAbeu3ch_9of-2" vertex="1"><mxGeometry width="1050" height="750" as="geometry"><mxRectangle width="50" height="40" as="alternateBounds"/></mxGeometry></mxCell><mxCell id="CuUcJCMueAbeu3ch_9of-4" value="&lt;pre style=&quot;background-color:#2b2b2b;color:#a9b7c6;font-family:'JetBrains Mono',monospace;font-size:9.8pt;&quot;&gt;&lt;span style=&quot;color:#cc7832;&quot;&gt;public static void &lt;/span&gt;&lt;span style=&quot;color:#ffc66d;&quot;&gt;main&lt;/span&gt;(String[] args) {&lt;br&gt;    &lt;span style=&quot;color:#cc7832;&quot;&gt;int &lt;/span&gt;x = &lt;span style=&quot;color:#6897bb;&quot;&gt;500&lt;/span&gt;&lt;span style=&quot;color:#cc7832;&quot;&gt;;&lt;br&gt;&lt;/span&gt;&lt;span style=&quot;color:#cc7832;&quot;&gt;    int &lt;/span&gt;y = &lt;span style=&quot;color:#6897bb;&quot;&gt;100&lt;/span&gt;&lt;span style=&quot;color:#cc7832;&quot;&gt;;&lt;br&gt;&lt;/span&gt;&lt;span style=&quot;color:#cc7832;&quot;&gt;    int &lt;/span&gt;a = x / y&lt;span style=&quot;color:#cc7832;&quot;&gt;;&lt;br&gt;&lt;/span&gt;&lt;span style=&quot;color:#cc7832;&quot;&gt;    int &lt;/span&gt;b = &lt;span style=&quot;color:#6897bb;&quot;&gt;50&lt;/span&gt;&lt;span style=&quot;color:#cc7832;&quot;&gt;;&lt;br&gt;&lt;/span&gt;&lt;span style=&quot;color:#cc7832;&quot;&gt;    &lt;/span&gt;System.&lt;span style=&quot;color:#9876aa;font-style:italic;&quot;&gt;out&lt;/span&gt;.println(a + b)&lt;span style=&quot;color:#cc7832;&quot;&gt;;&lt;br&gt;&lt;/span&gt;}&lt;/pre&gt;" style="rounded=0;whiteSpace=wrap;html=1;" parent="CuUcJCMueAbeu3ch_9of-2" vertex="1"><mxGeometry x="180" y="440" width="120" height="60" as="geometry"/></mxCell><mxCell id="CuUcJCMueAbeu3ch_9of-5" value="方法代码" style="text;html=1;strokeColor=none;fillColor=none;align=center;verticalAlign=middle;whiteSpace=wrap;rounded=0;" parent="CuUcJCMueAbeu3ch_9of-2" vertex="1"><mxGeometry x="200" y="380" width="60" height="30" as="geometry"/></mxCell><mxCell id="CuUcJCMueAbeu3ch_9of-6" value="&lt;div&gt;&amp;nbsp;0 sipush 500&lt;/div&gt;&lt;div&gt;&amp;nbsp;3 istore_1&lt;/div&gt;&lt;div&gt;&amp;nbsp;4 bipush 100&lt;/div&gt;&lt;div&gt;&amp;nbsp;6 istore_2&lt;/div&gt;&lt;div&gt;&lt;font color=&quot;#ff0000&quot;&gt;&amp;nbsp;&lt;/font&gt;7 iload_1&lt;/div&gt;&lt;div&gt;&lt;font color=&quot;#ff0000&quot;&gt;&amp;nbsp;&lt;/font&gt;8 iload_2&lt;/div&gt;&lt;div&gt;&lt;font color=&quot;#ff0000&quot;&gt;&amp;nbsp;9 idiv&lt;/font&gt;&lt;/div&gt;&lt;div&gt;10 istore_3&lt;/div&gt;&lt;div&gt;11 bipush 50&lt;/div&gt;&lt;div&gt;13 istore 4&lt;/div&gt;&lt;div&gt;15 getstatic #2 &amp;lt;java/lang/System.out : Ljava/io/PrintStream;&amp;gt;&lt;/div&gt;&lt;div&gt;18 iload_3&lt;/div&gt;&lt;div&gt;19 iload 4&lt;/div&gt;&lt;div&gt;21 iadd&lt;/div&gt;&lt;div&gt;22 invokevirtual #3 &amp;lt;java/io/PrintStream.println : (I)V&amp;gt;&lt;/div&gt;&lt;div&gt;25 return&lt;/div&gt;&lt;div&gt;&lt;br&gt;&lt;/div&gt;" style="rounded=0;whiteSpace=wrap;html=1;align=left;labelBorderColor=none;" parent="CuUcJCMueAbeu3ch_9of-2" vertex="1"><mxGeometry x="664" y="30" width="340" height="260" as="geometry"/></mxCell><mxCell id="CuUcJCMueAbeu3ch_9of-7" value="字节码指令" style="text;html=1;align=center;verticalAlign=middle;resizable=0;points=[];autosize=1;strokeColor=none;fillColor=none;" parent="CuUcJCMueAbeu3ch_9of-2" vertex="1"><mxGeometry x="794" width="80" height="30" as="geometry"/></mxCell><mxCell id="CuUcJCMueAbeu3ch_9of-8" value="&lt;font color=&quot;#ff0000&quot;&gt;9&lt;/font&gt;" style="rounded=0;whiteSpace=wrap;html=1;labelBorderColor=none;" parent="CuUcJCMueAbeu3ch_9of-2" vertex="1"><mxGeometry x="230" y="330" width="130" height="40" as="geometry"/></mxCell><mxCell id="CuUcJCMueAbeu3ch_9of-9" value="程序计数器" style="text;html=1;strokeColor=none;fillColor=none;align=center;verticalAlign=middle;whiteSpace=wrap;rounded=0;labelBorderColor=none;fontColor=#FF0000;" parent="CuUcJCMueAbeu3ch_9of-2" vertex="1"><mxGeometry x="252.5" y="300" width="85" height="30" as="geometry"/></mxCell><mxCell id="CuUcJCMueAbeu3ch_9of-10" value="" style="rounded=0;whiteSpace=wrap;html=1;labelBorderColor=none;fontColor=#FF0000;" parent="CuUcJCMueAbeu3ch_9of-2" vertex="1"><mxGeometry x="430" y="350" width="580" height="360" as="geometry"/></mxCell><mxCell id="CuUcJCMueAbeu3ch_9of-11" value="虚拟机栈" style="text;html=1;strokeColor=none;fillColor=none;align=center;verticalAlign=middle;whiteSpace=wrap;rounded=0;labelBorderColor=none;fontColor=#000000;" parent="CuUcJCMueAbeu3ch_9of-2" vertex="1"><mxGeometry x="677.5" y="310" width="85" height="30" as="geometry"/></mxCell><mxCell id="CuUcJCMueAbeu3ch_9of-12" value="" style="rounded=0;whiteSpace=wrap;html=1;labelBorderColor=none;fontColor=#FF0000;" parent="CuUcJCMueAbeu3ch_9of-2" vertex="1"><mxGeometry x="430" y="350" width="430" height="160" as="geometry"/></mxCell><mxCell id="CuUcJCMueAbeu3ch_9of-13" style="edgeStyle=orthogonalEdgeStyle;rounded=0;orthogonalLoop=1;jettySize=auto;html=1;entryX=0.49;entryY=0.011;entryDx=0;entryDy=0;fontColor=#FF0000;entryPerimeter=0;exitX=1;exitY=0.5;exitDx=0;exitDy=0;" parent="CuUcJCMueAbeu3ch_9of-2" source="CuUcJCMueAbeu3ch_9of-8" target="CuUcJCMueAbeu3ch_9of-12" edge="1"><mxGeometry relative="1" as="geometry"><Array as="points"><mxPoint x="400" y="350"/><mxPoint x="400" y="320"/><mxPoint x="641" y="320"/></Array></mxGeometry></mxCell><mxCell id="CuUcJCMueAbeu3ch_9of-14" value="当前栈帧" style="text;html=1;strokeColor=none;fillColor=none;align=center;verticalAlign=middle;whiteSpace=wrap;rounded=0;labelBorderColor=none;fontColor=#FF0000;" parent="CuUcJCMueAbeu3ch_9of-2" vertex="1"><mxGeometry x="680" y="400" width="85" height="30" as="geometry"/></mxCell><mxCell id="CuUcJCMueAbeu3ch_9of-15" value="其他栈帧..." style="rounded=0;whiteSpace=wrap;html=1;labelBorderColor=none;fontColor=#000000;strokeColor=#000000;" parent="CuUcJCMueAbeu3ch_9of-2" vertex="1"><mxGeometry x="430" y="510" width="430" height="100" as="geometry"/></mxCell><mxCell id="CuUcJCMueAbeu3ch_9of-16" value="&lt;table border=&quot;1&quot; width=&quot;100%&quot; height=&quot;100%&quot; cellpadding=&quot;4&quot; style=&quot;width:100%;height:100%;border-collapse:collapse;&quot;&gt;&lt;tbody&gt;&lt;tr style=&quot;background-color:#A7C942;color:#ffffff;border:1px solid #98bf21;&quot;&gt;&lt;th&gt;序号&lt;/th&gt;&lt;th&gt;本地变量表&lt;/th&gt;&lt;/tr&gt;&lt;tr style=&quot;border:1px solid #98bf21;&quot;&gt;&lt;td&gt;0&lt;/td&gt;&lt;td&gt;args&lt;/td&gt;&lt;/tr&gt;&lt;tr style=&quot;background-color:#EAF2D3;border:1px solid #98bf21;&quot;&gt;&lt;td&gt;1&lt;/td&gt;&lt;td&gt;500&lt;/td&gt;&lt;/tr&gt;&lt;tr style=&quot;border:1px solid #98bf21;&quot;&gt;&lt;td&gt;2&lt;/td&gt;&lt;td&gt;100&lt;/td&gt;&lt;/tr&gt;&lt;tr style=&quot;background-color:#EAF2D3;border:1px solid #98bf21;&quot;&gt;&lt;td&gt;3&lt;/td&gt;&lt;td&gt;&lt;br&gt;&lt;/td&gt;&lt;/tr&gt;&lt;tr&gt;&lt;td&gt;4&lt;/td&gt;&lt;td&gt;&lt;br&gt;&lt;/td&gt;&lt;/tr&gt;&lt;/tbody&gt;&lt;/table&gt;" style="text;html=1;strokeColor=#99FF33;fillColor=#ffffff;overflow=fill;rounded=0;labelBorderColor=none;fontColor=#FF0000;align=center;" parent="CuUcJCMueAbeu3ch_9of-2" vertex="1"><mxGeometry x="430" y="360" width="160" height="140" as="geometry"/></mxCell><mxCell id="CuUcJCMueAbeu3ch_9of-17" value="&lt;table border=&quot;1&quot; width=&quot;100%&quot; height=&quot;100%&quot; cellpadding=&quot;4&quot; style=&quot;width:100%;height:100%;border-collapse:collapse;&quot;&gt;&lt;tbody&gt;&lt;tr style=&quot;background-color:#A7C942;color:#ffffff;border:1px solid #98bf21;&quot;&gt;&lt;th&gt;操作数栈&lt;/th&gt;&lt;/tr&gt;&lt;tr style=&quot;border:1px solid #98bf21;&quot;&gt;&lt;td&gt;5&lt;/td&gt;&lt;/tr&gt;&lt;tr style=&quot;background-color:#EAF2D3;border:1px solid #98bf21;&quot;&gt;&lt;td&gt;&lt;br&gt;&lt;/td&gt;&lt;/tr&gt;&lt;tr style=&quot;border:1px solid #98bf21;&quot;&gt;&lt;td&gt;&lt;br&gt;&lt;/td&gt;&lt;/tr&gt;&lt;/tbody&gt;&lt;/table&gt;" style="text;html=1;strokeColor=#c0c0c0;fillColor=#ffffff;overflow=fill;rounded=0;labelBorderColor=none;fontColor=#FF0000;align=center;" parent="CuUcJCMueAbeu3ch_9of-2" vertex="1"><mxGeometry x="602.5" y="360" width="77.5" height="90" as="geometry"/></mxCell><mxCell id="CuUcJCMueAbeu3ch_9of-18" value="其他栈帧信息" style="rounded=0;whiteSpace=wrap;html=1;labelBorderColor=none;fontColor=#000000;strokeColor=#99FF33;" parent="CuUcJCMueAbeu3ch_9of-2" vertex="1"><mxGeometry x="740" y="450" width="110" height="50" as="geometry"/></mxCell><mxCell id="CuUcJCMueAbeu3ch_9of-19" value="其他栈帧..." style="rounded=0;whiteSpace=wrap;html=1;labelBorderColor=none;fontColor=#000000;strokeColor=#000000;" parent="CuUcJCMueAbeu3ch_9of-2" vertex="1"><mxGeometry x="430" y="610" width="430" height="100" as="geometry"/></mxCell><mxCell id="CuUcJCMueAbeu3ch_9of-20" style="edgeStyle=orthogonalEdgeStyle;rounded=0;orthogonalLoop=1;jettySize=auto;html=1;entryX=-0.012;entryY=0.077;entryDx=0;entryDy=0;entryPerimeter=0;fontColor=#FF0000;" parent="CuUcJCMueAbeu3ch_9of-2" edge="1"><mxGeometry relative="1" as="geometry"><mxPoint x="582" y="131.0200000000001" as="sourcePoint"/><mxPoint x="661.9199999999996" y="131.0200000000001" as="targetPoint"/></mxGeometry></mxCell><mxCell id="CuUcJCMueAbeu3ch_9of-21" value="将操作数栈中500和100弹出相除结果压入栈顶中" style="rounded=0;whiteSpace=wrap;html=1;labelBorderColor=none;fontColor=#FF0000;strokeColor=#000000;" parent="CuUcJCMueAbeu3ch_9of-2" vertex="1"><mxGeometry x="220" y="111" width="362" height="40" as="geometry"/></mxCell></root></mxGraphModel></diagram><diagram name="8" id="QsZJDp3bO5r7jpdyXOnr"><mxGraphModel dx="2205" dy="728" grid="1" gridSize="10" guides="1" tooltips="1" connect="1" arrows="1" fold="1" page="1" pageScale="1" pageWidth="827" pageHeight="1169" math="0" shadow="0"><root><mxCell id="wdhin_SagIdHIoSmDXEP-0"/><mxCell id="wdhin_SagIdHIoSmDXEP-1" parent="wdhin_SagIdHIoSmDXEP-0"/><mxCell id="wdhin_SagIdHIoSmDXEP-2" value="" style="group" parent="wdhin_SagIdHIoSmDXEP-1" vertex="1" connectable="0"><mxGeometry x="-250" y="10" width="1050" height="750" as="geometry"/></mxCell><mxCell id="wdhin_SagIdHIoSmDXEP-3" value="" style="rounded=0;whiteSpace=wrap;html=1;labelBorderColor=none;fontColor=#FF0000;strokeColor=#000000;container=1;" parent="wdhin_SagIdHIoSmDXEP-2" vertex="1"><mxGeometry width="1050" height="750" as="geometry"><mxRectangle width="50" height="40" as="alternateBounds"/></mxGeometry></mxCell><mxCell id="wdhin_SagIdHIoSmDXEP-4" value="&lt;pre style=&quot;background-color:#2b2b2b;color:#a9b7c6;font-family:'JetBrains Mono',monospace;font-size:9.8pt;&quot;&gt;&lt;span style=&quot;color:#cc7832;&quot;&gt;public static void &lt;/span&gt;&lt;span style=&quot;color:#ffc66d;&quot;&gt;main&lt;/span&gt;(String[] args) {&lt;br&gt;    &lt;span style=&quot;color:#cc7832;&quot;&gt;int &lt;/span&gt;x = &lt;span style=&quot;color:#6897bb;&quot;&gt;500&lt;/span&gt;&lt;span style=&quot;color:#cc7832;&quot;&gt;;&lt;br&gt;&lt;/span&gt;&lt;span style=&quot;color:#cc7832;&quot;&gt;    int &lt;/span&gt;y = &lt;span style=&quot;color:#6897bb;&quot;&gt;100&lt;/span&gt;&lt;span style=&quot;color:#cc7832;&quot;&gt;;&lt;br&gt;&lt;/span&gt;&lt;span style=&quot;color:#cc7832;&quot;&gt;    int &lt;/span&gt;a = x / y&lt;span style=&quot;color:#cc7832;&quot;&gt;;&lt;br&gt;&lt;/span&gt;&lt;span style=&quot;color:#cc7832;&quot;&gt;    int &lt;/span&gt;b = &lt;span style=&quot;color:#6897bb;&quot;&gt;50&lt;/span&gt;&lt;span style=&quot;color:#cc7832;&quot;&gt;;&lt;br&gt;&lt;/span&gt;&lt;span style=&quot;color:#cc7832;&quot;&gt;    &lt;/span&gt;System.&lt;span style=&quot;color:#9876aa;font-style:italic;&quot;&gt;out&lt;/span&gt;.println(a + b)&lt;span style=&quot;color:#cc7832;&quot;&gt;;&lt;br&gt;&lt;/span&gt;}&lt;/pre&gt;" style="rounded=0;whiteSpace=wrap;html=1;" parent="wdhin_SagIdHIoSmDXEP-2" vertex="1"><mxGeometry x="180" y="440" width="120" height="60" as="geometry"/></mxCell><mxCell id="wdhin_SagIdHIoSmDXEP-5" value="方法代码" style="text;html=1;strokeColor=none;fillColor=none;align=center;verticalAlign=middle;whiteSpace=wrap;rounded=0;" parent="wdhin_SagIdHIoSmDXEP-2" vertex="1"><mxGeometry x="200" y="380" width="60" height="30" as="geometry"/></mxCell><mxCell id="wdhin_SagIdHIoSmDXEP-6" value="&lt;div&gt;&amp;nbsp;0 sipush 500&lt;/div&gt;&lt;div&gt;&amp;nbsp;3 istore_1&lt;/div&gt;&lt;div&gt;&amp;nbsp;4 bipush 100&lt;/div&gt;&lt;div&gt;&amp;nbsp;6 istore_2&lt;/div&gt;&lt;div&gt;&amp;nbsp;7 iload_1&lt;/div&gt;&lt;div&gt;&amp;nbsp;8 iload_2&lt;/div&gt;&lt;div&gt;&amp;nbsp;9 idiv&lt;/div&gt;&lt;div&gt;&lt;font color=&quot;#ff0000&quot;&gt;10 istore_3&lt;/font&gt;&lt;/div&gt;&lt;div&gt;11 bipush 50&lt;/div&gt;&lt;div&gt;13 istore 4&lt;/div&gt;&lt;div&gt;15 getstatic #2 &amp;lt;java/lang/System.out : Ljava/io/PrintStream;&amp;gt;&lt;/div&gt;&lt;div&gt;18 iload_3&lt;/div&gt;&lt;div&gt;19 iload 4&lt;/div&gt;&lt;div&gt;21 iadd&lt;/div&gt;&lt;div&gt;22 invokevirtual #3 &amp;lt;java/io/PrintStream.println : (I)V&amp;gt;&lt;/div&gt;&lt;div&gt;25 return&lt;/div&gt;&lt;div&gt;&lt;br&gt;&lt;/div&gt;" style="rounded=0;whiteSpace=wrap;html=1;align=left;labelBorderColor=none;" parent="wdhin_SagIdHIoSmDXEP-2" vertex="1"><mxGeometry x="664" y="30" width="340" height="260" as="geometry"/></mxCell><mxCell id="wdhin_SagIdHIoSmDXEP-7" value="字节码指令" style="text;html=1;align=center;verticalAlign=middle;resizable=0;points=[];autosize=1;strokeColor=none;fillColor=none;" parent="wdhin_SagIdHIoSmDXEP-2" vertex="1"><mxGeometry x="794" width="80" height="30" as="geometry"/></mxCell><mxCell id="wdhin_SagIdHIoSmDXEP-8" value="&lt;font color=&quot;#ff0000&quot;&gt;10&lt;/font&gt;" style="rounded=0;whiteSpace=wrap;html=1;labelBorderColor=none;" parent="wdhin_SagIdHIoSmDXEP-2" vertex="1"><mxGeometry x="230" y="330" width="130" height="40" as="geometry"/></mxCell><mxCell id="wdhin_SagIdHIoSmDXEP-9" value="程序计数器" style="text;html=1;strokeColor=none;fillColor=none;align=center;verticalAlign=middle;whiteSpace=wrap;rounded=0;labelBorderColor=none;fontColor=#FF0000;" parent="wdhin_SagIdHIoSmDXEP-2" vertex="1"><mxGeometry x="252.5" y="300" width="85" height="30" as="geometry"/></mxCell><mxCell id="wdhin_SagIdHIoSmDXEP-10" value="" style="rounded=0;whiteSpace=wrap;html=1;labelBorderColor=none;fontColor=#FF0000;" parent="wdhin_SagIdHIoSmDXEP-2" vertex="1"><mxGeometry x="430" y="350" width="580" height="360" as="geometry"/></mxCell><mxCell id="wdhin_SagIdHIoSmDXEP-11" value="虚拟机栈" style="text;html=1;strokeColor=none;fillColor=none;align=center;verticalAlign=middle;whiteSpace=wrap;rounded=0;labelBorderColor=none;fontColor=#000000;" parent="wdhin_SagIdHIoSmDXEP-2" vertex="1"><mxGeometry x="677.5" y="310" width="85" height="30" as="geometry"/></mxCell><mxCell id="wdhin_SagIdHIoSmDXEP-12" value="" style="rounded=0;whiteSpace=wrap;html=1;labelBorderColor=none;fontColor=#FF0000;" parent="wdhin_SagIdHIoSmDXEP-2" vertex="1"><mxGeometry x="430" y="350" width="430" height="160" as="geometry"/></mxCell><mxCell id="wdhin_SagIdHIoSmDXEP-13" style="edgeStyle=orthogonalEdgeStyle;rounded=0;orthogonalLoop=1;jettySize=auto;html=1;entryX=0.49;entryY=0.011;entryDx=0;entryDy=0;fontColor=#FF0000;entryPerimeter=0;exitX=1;exitY=0.5;exitDx=0;exitDy=0;" parent="wdhin_SagIdHIoSmDXEP-2" source="wdhin_SagIdHIoSmDXEP-8" target="wdhin_SagIdHIoSmDXEP-12" edge="1"><mxGeometry relative="1" as="geometry"><Array as="points"><mxPoint x="400" y="350"/><mxPoint x="400" y="320"/><mxPoint x="641" y="320"/></Array></mxGeometry></mxCell><mxCell id="wdhin_SagIdHIoSmDXEP-14" value="当前栈帧" style="text;html=1;strokeColor=none;fillColor=none;align=center;verticalAlign=middle;whiteSpace=wrap;rounded=0;labelBorderColor=none;fontColor=#FF0000;" parent="wdhin_SagIdHIoSmDXEP-2" vertex="1"><mxGeometry x="680" y="400" width="85" height="30" as="geometry"/></mxCell><mxCell id="wdhin_SagIdHIoSmDXEP-15" value="其他栈帧..." style="rounded=0;whiteSpace=wrap;html=1;labelBorderColor=none;fontColor=#000000;strokeColor=#000000;" parent="wdhin_SagIdHIoSmDXEP-2" vertex="1"><mxGeometry x="430" y="510" width="430" height="100" as="geometry"/></mxCell><mxCell id="wdhin_SagIdHIoSmDXEP-16" value="&lt;table border=&quot;1&quot; width=&quot;100%&quot; height=&quot;100%&quot; cellpadding=&quot;4&quot; style=&quot;width:100%;height:100%;border-collapse:collapse;&quot;&gt;&lt;tbody&gt;&lt;tr style=&quot;background-color:#A7C942;color:#ffffff;border:1px solid #98bf21;&quot;&gt;&lt;th&gt;序号&lt;/th&gt;&lt;th&gt;本地变量表&lt;/th&gt;&lt;/tr&gt;&lt;tr style=&quot;border:1px solid #98bf21;&quot;&gt;&lt;td&gt;0&lt;/td&gt;&lt;td&gt;args&lt;/td&gt;&lt;/tr&gt;&lt;tr style=&quot;background-color:#EAF2D3;border:1px solid #98bf21;&quot;&gt;&lt;td&gt;1&lt;/td&gt;&lt;td&gt;500&lt;/td&gt;&lt;/tr&gt;&lt;tr style=&quot;border:1px solid #98bf21;&quot;&gt;&lt;td&gt;2&lt;/td&gt;&lt;td&gt;100&lt;/td&gt;&lt;/tr&gt;&lt;tr style=&quot;background-color:#EAF2D3;border:1px solid #98bf21;&quot;&gt;&lt;td&gt;3&lt;/td&gt;&lt;td&gt;5&lt;/td&gt;&lt;/tr&gt;&lt;tr&gt;&lt;td&gt;4&lt;/td&gt;&lt;td&gt;&lt;br&gt;&lt;/td&gt;&lt;/tr&gt;&lt;/tbody&gt;&lt;/table&gt;" style="text;html=1;strokeColor=#99FF33;fillColor=#ffffff;overflow=fill;rounded=0;labelBorderColor=none;fontColor=#FF0000;align=center;" parent="wdhin_SagIdHIoSmDXEP-2" vertex="1"><mxGeometry x="430" y="360" width="160" height="140" as="geometry"/></mxCell><mxCell id="wdhin_SagIdHIoSmDXEP-17" value="&lt;table border=&quot;1&quot; width=&quot;100%&quot; height=&quot;100%&quot; cellpadding=&quot;4&quot; style=&quot;width:100%;height:100%;border-collapse:collapse;&quot;&gt;&lt;tbody&gt;&lt;tr style=&quot;background-color:#A7C942;color:#ffffff;border:1px solid #98bf21;&quot;&gt;&lt;th&gt;操作数栈&lt;/th&gt;&lt;/tr&gt;&lt;tr style=&quot;border:1px solid #98bf21;&quot;&gt;&lt;td&gt;&lt;br&gt;&lt;/td&gt;&lt;/tr&gt;&lt;tr style=&quot;background-color:#EAF2D3;border:1px solid #98bf21;&quot;&gt;&lt;td&gt;&lt;br&gt;&lt;/td&gt;&lt;/tr&gt;&lt;tr style=&quot;border:1px solid #98bf21;&quot;&gt;&lt;td&gt;&lt;br&gt;&lt;/td&gt;&lt;/tr&gt;&lt;/tbody&gt;&lt;/table&gt;" style="text;html=1;strokeColor=#c0c0c0;fillColor=#ffffff;overflow=fill;rounded=0;labelBorderColor=none;fontColor=#FF0000;align=center;" parent="wdhin_SagIdHIoSmDXEP-2" vertex="1"><mxGeometry x="602.5" y="360" width="77.5" height="90" as="geometry"/></mxCell><mxCell id="wdhin_SagIdHIoSmDXEP-18" value="其他栈帧信息" style="rounded=0;whiteSpace=wrap;html=1;labelBorderColor=none;fontColor=#000000;strokeColor=#99FF33;" parent="wdhin_SagIdHIoSmDXEP-2" vertex="1"><mxGeometry x="740" y="450" width="110" height="50" as="geometry"/></mxCell><mxCell id="wdhin_SagIdHIoSmDXEP-19" value="其他栈帧..." style="rounded=0;whiteSpace=wrap;html=1;labelBorderColor=none;fontColor=#000000;strokeColor=#000000;" parent="wdhin_SagIdHIoSmDXEP-2" vertex="1"><mxGeometry x="430" y="610" width="430" height="100" as="geometry"/></mxCell><mxCell id="wdhin_SagIdHIoSmDXEP-20" style="edgeStyle=orthogonalEdgeStyle;rounded=0;orthogonalLoop=1;jettySize=auto;html=1;entryX=-0.012;entryY=0.077;entryDx=0;entryDy=0;entryPerimeter=0;fontColor=#FF0000;" parent="wdhin_SagIdHIoSmDXEP-2" edge="1"><mxGeometry relative="1" as="geometry"><mxPoint x="582" y="147.0200000000001" as="sourcePoint"/><mxPoint x="661.9199999999996" y="147.0200000000001" as="targetPoint"/></mxGeometry></mxCell><mxCell id="wdhin_SagIdHIoSmDXEP-21" value="将操作数栈中5弹出保存至本地变量表3中" style="rounded=0;whiteSpace=wrap;html=1;labelBorderColor=none;fontColor=#FF0000;strokeColor=#000000;" parent="wdhin_SagIdHIoSmDXEP-2" vertex="1"><mxGeometry x="220" y="127" width="362" height="40" as="geometry"/></mxCell></root></mxGraphModel></diagram><diagram name="9" id="xPuMhFmTP1ZzYsqWj6oP"><mxGraphModel dx="2205" dy="728" grid="1" gridSize="10" guides="1" tooltips="1" connect="1" arrows="1" fold="1" page="1" pageScale="1" pageWidth="827" pageHeight="1169" math="0" shadow="0"><root><mxCell id="crkdT-yWxg3GylZK4ynA-0"/><mxCell id="crkdT-yWxg3GylZK4ynA-1" parent="crkdT-yWxg3GylZK4ynA-0"/><mxCell id="crkdT-yWxg3GylZK4ynA-2" value="" style="group" parent="crkdT-yWxg3GylZK4ynA-1" vertex="1" connectable="0"><mxGeometry x="-250" y="10" width="1050" height="750" as="geometry"/></mxCell><mxCell id="crkdT-yWxg3GylZK4ynA-3" value="" style="rounded=0;whiteSpace=wrap;html=1;labelBorderColor=none;fontColor=#FF0000;strokeColor=#000000;container=1;" parent="crkdT-yWxg3GylZK4ynA-2" vertex="1"><mxGeometry width="1050" height="750" as="geometry"><mxRectangle width="50" height="40" as="alternateBounds"/></mxGeometry></mxCell><mxCell id="crkdT-yWxg3GylZK4ynA-4" value="&lt;pre style=&quot;background-color:#2b2b2b;color:#a9b7c6;font-family:'JetBrains Mono',monospace;font-size:9.8pt;&quot;&gt;&lt;span style=&quot;color:#cc7832;&quot;&gt;public static void &lt;/span&gt;&lt;span style=&quot;color:#ffc66d;&quot;&gt;main&lt;/span&gt;(String[] args) {&lt;br&gt;    &lt;span style=&quot;color:#cc7832;&quot;&gt;int &lt;/span&gt;x = &lt;span style=&quot;color:#6897bb;&quot;&gt;500&lt;/span&gt;&lt;span style=&quot;color:#cc7832;&quot;&gt;;&lt;br&gt;&lt;/span&gt;&lt;span style=&quot;color:#cc7832;&quot;&gt;    int &lt;/span&gt;y = &lt;span style=&quot;color:#6897bb;&quot;&gt;100&lt;/span&gt;&lt;span style=&quot;color:#cc7832;&quot;&gt;;&lt;br&gt;&lt;/span&gt;&lt;span style=&quot;color:#cc7832;&quot;&gt;    int &lt;/span&gt;a = x / y&lt;span style=&quot;color:#cc7832;&quot;&gt;;&lt;br&gt;&lt;/span&gt;&lt;span style=&quot;color:#cc7832;&quot;&gt;    int &lt;/span&gt;b = &lt;span style=&quot;color:#6897bb;&quot;&gt;50&lt;/span&gt;&lt;span style=&quot;color:#cc7832;&quot;&gt;;&lt;br&gt;&lt;/span&gt;&lt;span style=&quot;color:#cc7832;&quot;&gt;    &lt;/span&gt;System.&lt;span style=&quot;color:#9876aa;font-style:italic;&quot;&gt;out&lt;/span&gt;.println(a + b)&lt;span style=&quot;color:#cc7832;&quot;&gt;;&lt;br&gt;&lt;/span&gt;}&lt;/pre&gt;" style="rounded=0;whiteSpace=wrap;html=1;" parent="crkdT-yWxg3GylZK4ynA-2" vertex="1"><mxGeometry x="180" y="440" width="120" height="60" as="geometry"/></mxCell><mxCell id="crkdT-yWxg3GylZK4ynA-5" value="方法代码" style="text;html=1;strokeColor=none;fillColor=none;align=center;verticalAlign=middle;whiteSpace=wrap;rounded=0;" parent="crkdT-yWxg3GylZK4ynA-2" vertex="1"><mxGeometry x="200" y="380" width="60" height="30" as="geometry"/></mxCell><mxCell id="crkdT-yWxg3GylZK4ynA-6" value="&lt;div&gt;&amp;nbsp;0 sipush 500&lt;/div&gt;&lt;div&gt;&amp;nbsp;3 istore_1&lt;/div&gt;&lt;div&gt;&amp;nbsp;4 bipush 100&lt;/div&gt;&lt;div&gt;&amp;nbsp;6 istore_2&lt;/div&gt;&lt;div&gt;&amp;nbsp;7 iload_1&lt;/div&gt;&lt;div&gt;&amp;nbsp;8 iload_2&lt;/div&gt;&lt;div&gt;&amp;nbsp;9 idiv&lt;/div&gt;&lt;div&gt;10 istore_3&lt;/div&gt;&lt;div&gt;&lt;font color=&quot;#ff0000&quot;&gt;11 bipush 50&lt;/font&gt;&lt;/div&gt;&lt;div&gt;13 istore 4&lt;/div&gt;&lt;div&gt;15 getstatic #2 &amp;lt;java/lang/System.out : Ljava/io/PrintStream;&amp;gt;&lt;/div&gt;&lt;div&gt;18 iload_3&lt;/div&gt;&lt;div&gt;19 iload 4&lt;/div&gt;&lt;div&gt;21 iadd&lt;/div&gt;&lt;div&gt;22 invokevirtual #3 &amp;lt;java/io/PrintStream.println : (I)V&amp;gt;&lt;/div&gt;&lt;div&gt;25 return&lt;/div&gt;&lt;div&gt;&lt;br&gt;&lt;/div&gt;" style="rounded=0;whiteSpace=wrap;html=1;align=left;labelBorderColor=none;" parent="crkdT-yWxg3GylZK4ynA-2" vertex="1"><mxGeometry x="664" y="30" width="340" height="260" as="geometry"/></mxCell><mxCell id="crkdT-yWxg3GylZK4ynA-7" value="字节码指令" style="text;html=1;align=center;verticalAlign=middle;resizable=0;points=[];autosize=1;strokeColor=none;fillColor=none;" parent="crkdT-yWxg3GylZK4ynA-2" vertex="1"><mxGeometry x="794" width="80" height="30" as="geometry"/></mxCell><mxCell id="crkdT-yWxg3GylZK4ynA-8" value="&lt;font color=&quot;#ff0000&quot;&gt;11&lt;/font&gt;" style="rounded=0;whiteSpace=wrap;html=1;labelBorderColor=none;" parent="crkdT-yWxg3GylZK4ynA-2" vertex="1"><mxGeometry x="230" y="330" width="130" height="40" as="geometry"/></mxCell><mxCell id="crkdT-yWxg3GylZK4ynA-9" value="程序计数器" style="text;html=1;strokeColor=none;fillColor=none;align=center;verticalAlign=middle;whiteSpace=wrap;rounded=0;labelBorderColor=none;fontColor=#FF0000;" parent="crkdT-yWxg3GylZK4ynA-2" vertex="1"><mxGeometry x="252.5" y="300" width="85" height="30" as="geometry"/></mxCell><mxCell id="crkdT-yWxg3GylZK4ynA-10" value="" style="rounded=0;whiteSpace=wrap;html=1;labelBorderColor=none;fontColor=#FF0000;" parent="crkdT-yWxg3GylZK4ynA-2" vertex="1"><mxGeometry x="430" y="350" width="580" height="360" as="geometry"/></mxCell><mxCell id="crkdT-yWxg3GylZK4ynA-11" value="虚拟机栈" style="text;html=1;strokeColor=none;fillColor=none;align=center;verticalAlign=middle;whiteSpace=wrap;rounded=0;labelBorderColor=none;fontColor=#000000;" parent="crkdT-yWxg3GylZK4ynA-2" vertex="1"><mxGeometry x="677.5" y="310" width="85" height="30" as="geometry"/></mxCell><mxCell id="crkdT-yWxg3GylZK4ynA-12" value="" style="rounded=0;whiteSpace=wrap;html=1;labelBorderColor=none;fontColor=#FF0000;" parent="crkdT-yWxg3GylZK4ynA-2" vertex="1"><mxGeometry x="430" y="350" width="430" height="160" as="geometry"/></mxCell><mxCell id="crkdT-yWxg3GylZK4ynA-13" style="edgeStyle=orthogonalEdgeStyle;rounded=0;orthogonalLoop=1;jettySize=auto;html=1;entryX=0.49;entryY=0.011;entryDx=0;entryDy=0;fontColor=#FF0000;entryPerimeter=0;exitX=1;exitY=0.5;exitDx=0;exitDy=0;" parent="crkdT-yWxg3GylZK4ynA-2" source="crkdT-yWxg3GylZK4ynA-8" target="crkdT-yWxg3GylZK4ynA-12" edge="1"><mxGeometry relative="1" as="geometry"><Array as="points"><mxPoint x="400" y="350"/><mxPoint x="400" y="320"/><mxPoint x="641" y="320"/></Array></mxGeometry></mxCell><mxCell id="crkdT-yWxg3GylZK4ynA-14" value="当前栈帧" style="text;html=1;strokeColor=none;fillColor=none;align=center;verticalAlign=middle;whiteSpace=wrap;rounded=0;labelBorderColor=none;fontColor=#FF0000;" parent="crkdT-yWxg3GylZK4ynA-2" vertex="1"><mxGeometry x="680" y="400" width="85" height="30" as="geometry"/></mxCell><mxCell id="crkdT-yWxg3GylZK4ynA-15" value="其他栈帧..." style="rounded=0;whiteSpace=wrap;html=1;labelBorderColor=none;fontColor=#000000;strokeColor=#000000;" parent="crkdT-yWxg3GylZK4ynA-2" vertex="1"><mxGeometry x="430" y="510" width="430" height="100" as="geometry"/></mxCell><mxCell id="crkdT-yWxg3GylZK4ynA-16" value="&lt;table border=&quot;1&quot; width=&quot;100%&quot; height=&quot;100%&quot; cellpadding=&quot;4&quot; style=&quot;width:100%;height:100%;border-collapse:collapse;&quot;&gt;&lt;tbody&gt;&lt;tr style=&quot;background-color:#A7C942;color:#ffffff;border:1px solid #98bf21;&quot;&gt;&lt;th&gt;序号&lt;/th&gt;&lt;th&gt;本地变量表&lt;/th&gt;&lt;/tr&gt;&lt;tr style=&quot;border:1px solid #98bf21;&quot;&gt;&lt;td&gt;0&lt;/td&gt;&lt;td&gt;args&lt;/td&gt;&lt;/tr&gt;&lt;tr style=&quot;background-color:#EAF2D3;border:1px solid #98bf21;&quot;&gt;&lt;td&gt;1&lt;/td&gt;&lt;td&gt;500&lt;/td&gt;&lt;/tr&gt;&lt;tr style=&quot;border:1px solid #98bf21;&quot;&gt;&lt;td&gt;2&lt;/td&gt;&lt;td&gt;100&lt;/td&gt;&lt;/tr&gt;&lt;tr style=&quot;background-color:#EAF2D3;border:1px solid #98bf21;&quot;&gt;&lt;td&gt;3&lt;/td&gt;&lt;td&gt;5&lt;/td&gt;&lt;/tr&gt;&lt;tr&gt;&lt;td&gt;4&lt;/td&gt;&lt;td&gt;&lt;br&gt;&lt;/td&gt;&lt;/tr&gt;&lt;/tbody&gt;&lt;/table&gt;" style="text;html=1;strokeColor=#99FF33;fillColor=#ffffff;overflow=fill;rounded=0;labelBorderColor=none;fontColor=#FF0000;align=center;" parent="crkdT-yWxg3GylZK4ynA-2" vertex="1"><mxGeometry x="430" y="360" width="160" height="140" as="geometry"/></mxCell><mxCell id="crkdT-yWxg3GylZK4ynA-17" value="&lt;table border=&quot;1&quot; width=&quot;100%&quot; height=&quot;100%&quot; cellpadding=&quot;4&quot; style=&quot;width:100%;height:100%;border-collapse:collapse;&quot;&gt;&lt;tbody&gt;&lt;tr style=&quot;background-color:#A7C942;color:#ffffff;border:1px solid #98bf21;&quot;&gt;&lt;th&gt;操作数栈&lt;/th&gt;&lt;/tr&gt;&lt;tr style=&quot;border:1px solid #98bf21;&quot;&gt;&lt;td&gt;50&lt;/td&gt;&lt;/tr&gt;&lt;tr style=&quot;background-color:#EAF2D3;border:1px solid #98bf21;&quot;&gt;&lt;td&gt;&lt;br&gt;&lt;/td&gt;&lt;/tr&gt;&lt;tr style=&quot;border:1px solid #98bf21;&quot;&gt;&lt;td&gt;&lt;br&gt;&lt;/td&gt;&lt;/tr&gt;&lt;/tbody&gt;&lt;/table&gt;" style="text;html=1;strokeColor=#c0c0c0;fillColor=#ffffff;overflow=fill;rounded=0;labelBorderColor=none;fontColor=#FF0000;align=center;" parent="crkdT-yWxg3GylZK4ynA-2" vertex="1"><mxGeometry x="602.5" y="360" width="77.5" height="90" as="geometry"/></mxCell><mxCell id="crkdT-yWxg3GylZK4ynA-18" value="其他栈帧信息" style="rounded=0;whiteSpace=wrap;html=1;labelBorderColor=none;fontColor=#000000;strokeColor=#99FF33;" parent="crkdT-yWxg3GylZK4ynA-2" vertex="1"><mxGeometry x="740" y="450" width="110" height="50" as="geometry"/></mxCell><mxCell id="crkdT-yWxg3GylZK4ynA-19" value="其他栈帧..." style="rounded=0;whiteSpace=wrap;html=1;labelBorderColor=none;fontColor=#000000;strokeColor=#000000;" parent="crkdT-yWxg3GylZK4ynA-2" vertex="1"><mxGeometry x="430" y="610" width="430" height="100" as="geometry"/></mxCell><mxCell id="crkdT-yWxg3GylZK4ynA-20" style="edgeStyle=orthogonalEdgeStyle;rounded=0;orthogonalLoop=1;jettySize=auto;html=1;entryX=-0.012;entryY=0.077;entryDx=0;entryDy=0;entryPerimeter=0;fontColor=#FF0000;" parent="crkdT-yWxg3GylZK4ynA-2" edge="1"><mxGeometry relative="1" as="geometry"><mxPoint x="582" y="159.0200000000001" as="sourcePoint"/><mxPoint x="661.9199999999996" y="159.0200000000001" as="targetPoint"/></mxGeometry></mxCell><mxCell id="crkdT-yWxg3GylZK4ynA-21" value="将byte型数据50压入操作数栈中" style="rounded=0;whiteSpace=wrap;html=1;labelBorderColor=none;fontColor=#FF0000;strokeColor=#000000;" parent="crkdT-yWxg3GylZK4ynA-2" vertex="1"><mxGeometry x="220" y="139" width="362" height="40" as="geometry"/></mxCell></root></mxGraphModel></diagram><diagram name="10" id="jYVgIKhjnTXXVmMHDqPd"><mxGraphModel dx="2205" dy="728" grid="1" gridSize="10" guides="1" tooltips="1" connect="1" arrows="1" fold="1" page="1" pageScale="1" pageWidth="827" pageHeight="1169" math="0" shadow="0"><root><mxCell id="A6QGBBt3vIordmEV4H_n-0"/><mxCell id="A6QGBBt3vIordmEV4H_n-1" parent="A6QGBBt3vIordmEV4H_n-0"/><mxCell id="A6QGBBt3vIordmEV4H_n-2" value="" style="group" parent="A6QGBBt3vIordmEV4H_n-1" vertex="1" connectable="0"><mxGeometry x="-250" y="10" width="1050" height="750" as="geometry"/></mxCell><mxCell id="A6QGBBt3vIordmEV4H_n-3" value="" style="rounded=0;whiteSpace=wrap;html=1;labelBorderColor=none;fontColor=#FF0000;strokeColor=#000000;container=1;" parent="A6QGBBt3vIordmEV4H_n-2" vertex="1"><mxGeometry width="1050" height="750" as="geometry"><mxRectangle width="50" height="40" as="alternateBounds"/></mxGeometry></mxCell><mxCell id="A6QGBBt3vIordmEV4H_n-4" value="&lt;pre style=&quot;background-color:#2b2b2b;color:#a9b7c6;font-family:'JetBrains Mono',monospace;font-size:9.8pt;&quot;&gt;&lt;span style=&quot;color:#cc7832;&quot;&gt;public static void &lt;/span&gt;&lt;span style=&quot;color:#ffc66d;&quot;&gt;main&lt;/span&gt;(String[] args) {&lt;br&gt;    &lt;span style=&quot;color:#cc7832;&quot;&gt;int &lt;/span&gt;x = &lt;span style=&quot;color:#6897bb;&quot;&gt;500&lt;/span&gt;&lt;span style=&quot;color:#cc7832;&quot;&gt;;&lt;br&gt;&lt;/span&gt;&lt;span style=&quot;color:#cc7832;&quot;&gt;    int &lt;/span&gt;y = &lt;span style=&quot;color:#6897bb;&quot;&gt;100&lt;/span&gt;&lt;span style=&quot;color:#cc7832;&quot;&gt;;&lt;br&gt;&lt;/span&gt;&lt;span style=&quot;color:#cc7832;&quot;&gt;    int &lt;/span&gt;a = x / y&lt;span style=&quot;color:#cc7832;&quot;&gt;;&lt;br&gt;&lt;/span&gt;&lt;span style=&quot;color:#cc7832;&quot;&gt;    int &lt;/span&gt;b = &lt;span style=&quot;color:#6897bb;&quot;&gt;50&lt;/span&gt;&lt;span style=&quot;color:#cc7832;&quot;&gt;;&lt;br&gt;&lt;/span&gt;&lt;span style=&quot;color:#cc7832;&quot;&gt;    &lt;/span&gt;System.&lt;span style=&quot;color:#9876aa;font-style:italic;&quot;&gt;out&lt;/span&gt;.println(a + b)&lt;span style=&quot;color:#cc7832;&quot;&gt;;&lt;br&gt;&lt;/span&gt;}&lt;/pre&gt;" style="rounded=0;whiteSpace=wrap;html=1;" parent="A6QGBBt3vIordmEV4H_n-2" vertex="1"><mxGeometry x="180" y="440" width="120" height="60" as="geometry"/></mxCell><mxCell id="A6QGBBt3vIordmEV4H_n-5" value="方法代码" style="text;html=1;strokeColor=none;fillColor=none;align=center;verticalAlign=middle;whiteSpace=wrap;rounded=0;" parent="A6QGBBt3vIordmEV4H_n-2" vertex="1"><mxGeometry x="200" y="380" width="60" height="30" as="geometry"/></mxCell><mxCell id="A6QGBBt3vIordmEV4H_n-6" value="&lt;div&gt;&amp;nbsp;0 sipush 500&lt;/div&gt;&lt;div&gt;&amp;nbsp;3 istore_1&lt;/div&gt;&lt;div&gt;&amp;nbsp;4 bipush 100&lt;/div&gt;&lt;div&gt;&amp;nbsp;6 istore_2&lt;/div&gt;&lt;div&gt;&amp;nbsp;7 iload_1&lt;/div&gt;&lt;div&gt;&amp;nbsp;8 iload_2&lt;/div&gt;&lt;div&gt;&amp;nbsp;9 idiv&lt;/div&gt;&lt;div&gt;10 istore_3&lt;/div&gt;&lt;div&gt;11 bipush 50&lt;/div&gt;&lt;div&gt;&lt;font color=&quot;#ff0000&quot;&gt;13 istore 4&lt;/font&gt;&lt;/div&gt;&lt;div&gt;15 getstatic #2 &amp;lt;java/lang/System.out : Ljava/io/PrintStream;&amp;gt;&lt;/div&gt;&lt;div&gt;18 iload_3&lt;/div&gt;&lt;div&gt;19 iload 4&lt;/div&gt;&lt;div&gt;21 iadd&lt;/div&gt;&lt;div&gt;22 invokevirtual #3 &amp;lt;java/io/PrintStream.println : (I)V&amp;gt;&lt;/div&gt;&lt;div&gt;25 return&lt;/div&gt;&lt;div&gt;&lt;br&gt;&lt;/div&gt;" style="rounded=0;whiteSpace=wrap;html=1;align=left;labelBorderColor=none;" parent="A6QGBBt3vIordmEV4H_n-2" vertex="1"><mxGeometry x="664" y="30" width="340" height="260" as="geometry"/></mxCell><mxCell id="A6QGBBt3vIordmEV4H_n-7" value="字节码指令" style="text;html=1;align=center;verticalAlign=middle;resizable=0;points=[];autosize=1;strokeColor=none;fillColor=none;" parent="A6QGBBt3vIordmEV4H_n-2" vertex="1"><mxGeometry x="794" width="80" height="30" as="geometry"/></mxCell><mxCell id="A6QGBBt3vIordmEV4H_n-8" value="&lt;font color=&quot;#ff0000&quot;&gt;13&lt;/font&gt;" style="rounded=0;whiteSpace=wrap;html=1;labelBorderColor=none;" parent="A6QGBBt3vIordmEV4H_n-2" vertex="1"><mxGeometry x="230" y="330" width="130" height="40" as="geometry"/></mxCell><mxCell id="A6QGBBt3vIordmEV4H_n-9" value="程序计数器" style="text;html=1;strokeColor=none;fillColor=none;align=center;verticalAlign=middle;whiteSpace=wrap;rounded=0;labelBorderColor=none;fontColor=#FF0000;" parent="A6QGBBt3vIordmEV4H_n-2" vertex="1"><mxGeometry x="252.5" y="300" width="85" height="30" as="geometry"/></mxCell><mxCell id="A6QGBBt3vIordmEV4H_n-10" value="" style="rounded=0;whiteSpace=wrap;html=1;labelBorderColor=none;fontColor=#FF0000;" parent="A6QGBBt3vIordmEV4H_n-2" vertex="1"><mxGeometry x="430" y="350" width="580" height="360" as="geometry"/></mxCell><mxCell id="A6QGBBt3vIordmEV4H_n-11" value="虚拟机栈" style="text;html=1;strokeColor=none;fillColor=none;align=center;verticalAlign=middle;whiteSpace=wrap;rounded=0;labelBorderColor=none;fontColor=#000000;" parent="A6QGBBt3vIordmEV4H_n-2" vertex="1"><mxGeometry x="677.5" y="310" width="85" height="30" as="geometry"/></mxCell><mxCell id="A6QGBBt3vIordmEV4H_n-12" value="" style="rounded=0;whiteSpace=wrap;html=1;labelBorderColor=none;fontColor=#FF0000;" parent="A6QGBBt3vIordmEV4H_n-2" vertex="1"><mxGeometry x="430" y="350" width="430" height="160" as="geometry"/></mxCell><mxCell id="A6QGBBt3vIordmEV4H_n-13" style="edgeStyle=orthogonalEdgeStyle;rounded=0;orthogonalLoop=1;jettySize=auto;html=1;entryX=0.49;entryY=0.011;entryDx=0;entryDy=0;fontColor=#FF0000;entryPerimeter=0;exitX=1;exitY=0.5;exitDx=0;exitDy=0;" parent="A6QGBBt3vIordmEV4H_n-2" source="A6QGBBt3vIordmEV4H_n-8" target="A6QGBBt3vIordmEV4H_n-12" edge="1"><mxGeometry relative="1" as="geometry"><Array as="points"><mxPoint x="400" y="350"/><mxPoint x="400" y="320"/><mxPoint x="641" y="320"/></Array></mxGeometry></mxCell><mxCell id="A6QGBBt3vIordmEV4H_n-14" value="当前栈帧" style="text;html=1;strokeColor=none;fillColor=none;align=center;verticalAlign=middle;whiteSpace=wrap;rounded=0;labelBorderColor=none;fontColor=#FF0000;" parent="A6QGBBt3vIordmEV4H_n-2" vertex="1"><mxGeometry x="680" y="400" width="85" height="30" as="geometry"/></mxCell><mxCell id="A6QGBBt3vIordmEV4H_n-15" value="其他栈帧..." style="rounded=0;whiteSpace=wrap;html=1;labelBorderColor=none;fontColor=#000000;strokeColor=#000000;" parent="A6QGBBt3vIordmEV4H_n-2" vertex="1"><mxGeometry x="430" y="510" width="430" height="100" as="geometry"/></mxCell><mxCell id="A6QGBBt3vIordmEV4H_n-16" value="&lt;table border=&quot;1&quot; width=&quot;100%&quot; height=&quot;100%&quot; cellpadding=&quot;4&quot; style=&quot;width:100%;height:100%;border-collapse:collapse;&quot;&gt;&lt;tbody&gt;&lt;tr style=&quot;background-color:#A7C942;color:#ffffff;border:1px solid #98bf21;&quot;&gt;&lt;th&gt;序号&lt;/th&gt;&lt;th&gt;本地变量表&lt;/th&gt;&lt;/tr&gt;&lt;tr style=&quot;border:1px solid #98bf21;&quot;&gt;&lt;td&gt;0&lt;/td&gt;&lt;td&gt;args&lt;/td&gt;&lt;/tr&gt;&lt;tr style=&quot;background-color:#EAF2D3;border:1px solid #98bf21;&quot;&gt;&lt;td&gt;1&lt;/td&gt;&lt;td&gt;500&lt;/td&gt;&lt;/tr&gt;&lt;tr style=&quot;border:1px solid #98bf21;&quot;&gt;&lt;td&gt;2&lt;/td&gt;&lt;td&gt;100&lt;/td&gt;&lt;/tr&gt;&lt;tr style=&quot;background-color:#EAF2D3;border:1px solid #98bf21;&quot;&gt;&lt;td&gt;3&lt;/td&gt;&lt;td&gt;5&lt;/td&gt;&lt;/tr&gt;&lt;tr&gt;&lt;td&gt;4&lt;/td&gt;&lt;td&gt;50&lt;/td&gt;&lt;/tr&gt;&lt;/tbody&gt;&lt;/table&gt;" style="text;html=1;strokeColor=#99FF33;fillColor=#ffffff;overflow=fill;rounded=0;labelBorderColor=none;fontColor=#FF0000;align=center;" parent="A6QGBBt3vIordmEV4H_n-2" vertex="1"><mxGeometry x="430" y="360" width="160" height="140" as="geometry"/></mxCell><mxCell id="A6QGBBt3vIordmEV4H_n-17" value="&lt;table border=&quot;1&quot; width=&quot;100%&quot; height=&quot;100%&quot; cellpadding=&quot;4&quot; style=&quot;width:100%;height:100%;border-collapse:collapse;&quot;&gt;&lt;tbody&gt;&lt;tr style=&quot;background-color:#A7C942;color:#ffffff;border:1px solid #98bf21;&quot;&gt;&lt;th&gt;操作数栈&lt;/th&gt;&lt;/tr&gt;&lt;tr style=&quot;border:1px solid #98bf21;&quot;&gt;&lt;td&gt;&lt;br&gt;&lt;/td&gt;&lt;/tr&gt;&lt;tr style=&quot;background-color:#EAF2D3;border:1px solid #98bf21;&quot;&gt;&lt;td&gt;&lt;br&gt;&lt;/td&gt;&lt;/tr&gt;&lt;tr style=&quot;border:1px solid #98bf21;&quot;&gt;&lt;td&gt;&lt;br&gt;&lt;/td&gt;&lt;/tr&gt;&lt;/tbody&gt;&lt;/table&gt;" style="text;html=1;strokeColor=#c0c0c0;fillColor=#ffffff;overflow=fill;rounded=0;labelBorderColor=none;fontColor=#FF0000;align=center;" parent="A6QGBBt3vIordmEV4H_n-2" vertex="1"><mxGeometry x="602.5" y="360" width="77.5" height="90" as="geometry"/></mxCell><mxCell id="A6QGBBt3vIordmEV4H_n-18" value="其他栈帧信息" style="rounded=0;whiteSpace=wrap;html=1;labelBorderColor=none;fontColor=#000000;strokeColor=#99FF33;" parent="A6QGBBt3vIordmEV4H_n-2" vertex="1"><mxGeometry x="740" y="450" width="110" height="50" as="geometry"/></mxCell><mxCell id="A6QGBBt3vIordmEV4H_n-19" value="其他栈帧..." style="rounded=0;whiteSpace=wrap;html=1;labelBorderColor=none;fontColor=#000000;strokeColor=#000000;" parent="A6QGBBt3vIordmEV4H_n-2" vertex="1"><mxGeometry x="430" y="610" width="430" height="100" as="geometry"/></mxCell><mxCell id="A6QGBBt3vIordmEV4H_n-20" style="edgeStyle=orthogonalEdgeStyle;rounded=0;orthogonalLoop=1;jettySize=auto;html=1;entryX=-0.012;entryY=0.077;entryDx=0;entryDy=0;entryPerimeter=0;fontColor=#FF0000;" parent="A6QGBBt3vIordmEV4H_n-2" edge="1"><mxGeometry relative="1" as="geometry"><mxPoint x="582" y="176.0200000000001" as="sourcePoint"/><mxPoint x="661.9199999999996" y="176.0200000000001" as="targetPoint"/></mxGeometry></mxCell><mxCell id="A6QGBBt3vIordmEV4H_n-21" value="将操作数栈顶数据50弹出并保存至本地变量表4中" style="rounded=0;whiteSpace=wrap;html=1;labelBorderColor=none;fontColor=#FF0000;strokeColor=#000000;" parent="A6QGBBt3vIordmEV4H_n-2" vertex="1"><mxGeometry x="220" y="156" width="362" height="40" as="geometry"/></mxCell></root></mxGraphModel></diagram><diagram name="11" id="XuUqOjd3go6BNWYOtnnt"><mxGraphModel dx="2205" dy="728" grid="1" gridSize="10" guides="1" tooltips="1" connect="1" arrows="1" fold="1" page="1" pageScale="1" pageWidth="827" pageHeight="1169" math="0" shadow="0"><root><mxCell id="ceAP30q-iIAI5CzixKxh-0"/><mxCell id="ceAP30q-iIAI5CzixKxh-1" parent="ceAP30q-iIAI5CzixKxh-0"/><mxCell id="ceAP30q-iIAI5CzixKxh-2" value="" style="group" parent="ceAP30q-iIAI5CzixKxh-1" vertex="1" connectable="0"><mxGeometry x="-250" y="10" width="1050" height="750" as="geometry"/></mxCell><mxCell id="ceAP30q-iIAI5CzixKxh-3" value="" style="rounded=0;whiteSpace=wrap;html=1;labelBorderColor=none;fontColor=#FF0000;strokeColor=#000000;container=1;" parent="ceAP30q-iIAI5CzixKxh-2" vertex="1"><mxGeometry width="1050" height="750" as="geometry"><mxRectangle width="50" height="40" as="alternateBounds"/></mxGeometry></mxCell><mxCell id="ceAP30q-iIAI5CzixKxh-4" value="&lt;pre style=&quot;background-color:#2b2b2b;color:#a9b7c6;font-family:'JetBrains Mono',monospace;font-size:9.8pt;&quot;&gt;&lt;span style=&quot;color:#cc7832;&quot;&gt;public static void &lt;/span&gt;&lt;span style=&quot;color:#ffc66d;&quot;&gt;main&lt;/span&gt;(String[] args) {&lt;br&gt;    &lt;span style=&quot;color:#cc7832;&quot;&gt;int &lt;/span&gt;x = &lt;span style=&quot;color:#6897bb;&quot;&gt;500&lt;/span&gt;&lt;span style=&quot;color:#cc7832;&quot;&gt;;&lt;br&gt;&lt;/span&gt;&lt;span style=&quot;color:#cc7832;&quot;&gt;    int &lt;/span&gt;y = &lt;span style=&quot;color:#6897bb;&quot;&gt;100&lt;/span&gt;&lt;span style=&quot;color:#cc7832;&quot;&gt;;&lt;br&gt;&lt;/span&gt;&lt;span style=&quot;color:#cc7832;&quot;&gt;    int &lt;/span&gt;a = x / y&lt;span style=&quot;color:#cc7832;&quot;&gt;;&lt;br&gt;&lt;/span&gt;&lt;span style=&quot;color:#cc7832;&quot;&gt;    int &lt;/span&gt;b = &lt;span style=&quot;color:#6897bb;&quot;&gt;50&lt;/span&gt;&lt;span style=&quot;color:#cc7832;&quot;&gt;;&lt;br&gt;&lt;/span&gt;&lt;span style=&quot;color:#cc7832;&quot;&gt;    &lt;/span&gt;System.&lt;span style=&quot;color:#9876aa;font-style:italic;&quot;&gt;out&lt;/span&gt;.println(a + b)&lt;span style=&quot;color:#cc7832;&quot;&gt;;&lt;br&gt;&lt;/span&gt;}&lt;/pre&gt;" style="rounded=0;whiteSpace=wrap;html=1;" parent="ceAP30q-iIAI5CzixKxh-2" vertex="1"><mxGeometry x="180" y="440" width="120" height="60" as="geometry"/></mxCell><mxCell id="ceAP30q-iIAI5CzixKxh-5" value="方法代码" style="text;html=1;strokeColor=none;fillColor=none;align=center;verticalAlign=middle;whiteSpace=wrap;rounded=0;" parent="ceAP30q-iIAI5CzixKxh-2" vertex="1"><mxGeometry x="200" y="380" width="60" height="30" as="geometry"/></mxCell><mxCell id="ceAP30q-iIAI5CzixKxh-6" value="&lt;div&gt;&amp;nbsp;0 sipush 500&lt;/div&gt;&lt;div&gt;&amp;nbsp;3 istore_1&lt;/div&gt;&lt;div&gt;&amp;nbsp;4 bipush 100&lt;/div&gt;&lt;div&gt;&amp;nbsp;6 istore_2&lt;/div&gt;&lt;div&gt;&amp;nbsp;7 iload_1&lt;/div&gt;&lt;div&gt;&amp;nbsp;8 iload_2&lt;/div&gt;&lt;div&gt;&amp;nbsp;9 idiv&lt;/div&gt;&lt;div&gt;10 istore_3&lt;/div&gt;&lt;div&gt;11 bipush 50&lt;/div&gt;&lt;div&gt;13 istore 4&lt;/div&gt;&lt;div&gt;&lt;font color=&quot;#ff0000&quot;&gt;15 getstatic #2 &amp;lt;java/lang/System.out : Ljava/io/PrintStream;&amp;gt;&lt;/font&gt;&lt;/div&gt;&lt;div&gt;18 iload_3&lt;/div&gt;&lt;div&gt;19 iload 4&lt;/div&gt;&lt;div&gt;21 iadd&lt;/div&gt;&lt;div&gt;22 invokevirtual #3 &amp;lt;java/io/PrintStream.println : (I)V&amp;gt;&lt;/div&gt;&lt;div&gt;25 return&lt;/div&gt;&lt;div&gt;&lt;br&gt;&lt;/div&gt;" style="rounded=0;whiteSpace=wrap;html=1;align=left;labelBorderColor=none;" parent="ceAP30q-iIAI5CzixKxh-2" vertex="1"><mxGeometry x="664" y="30" width="340" height="260" as="geometry"/></mxCell><mxCell id="ceAP30q-iIAI5CzixKxh-7" value="字节码指令" style="text;html=1;align=center;verticalAlign=middle;resizable=0;points=[];autosize=1;strokeColor=none;fillColor=none;" parent="ceAP30q-iIAI5CzixKxh-2" vertex="1"><mxGeometry x="794" width="80" height="30" as="geometry"/></mxCell><mxCell id="ceAP30q-iIAI5CzixKxh-8" value="&lt;font color=&quot;#ff0000&quot;&gt;15&lt;/font&gt;" style="rounded=0;whiteSpace=wrap;html=1;labelBorderColor=none;" parent="ceAP30q-iIAI5CzixKxh-2" vertex="1"><mxGeometry x="230" y="330" width="130" height="40" as="geometry"/></mxCell><mxCell id="ceAP30q-iIAI5CzixKxh-9" value="程序计数器" style="text;html=1;strokeColor=none;fillColor=none;align=center;verticalAlign=middle;whiteSpace=wrap;rounded=0;labelBorderColor=none;fontColor=#FF0000;" parent="ceAP30q-iIAI5CzixKxh-2" vertex="1"><mxGeometry x="252.5" y="300" width="85" height="30" as="geometry"/></mxCell><mxCell id="ceAP30q-iIAI5CzixKxh-10" value="" style="rounded=0;whiteSpace=wrap;html=1;labelBorderColor=none;fontColor=#FF0000;" parent="ceAP30q-iIAI5CzixKxh-2" vertex="1"><mxGeometry x="430" y="350" width="580" height="360" as="geometry"/></mxCell><mxCell id="ceAP30q-iIAI5CzixKxh-11" value="虚拟机栈" style="text;html=1;strokeColor=none;fillColor=none;align=center;verticalAlign=middle;whiteSpace=wrap;rounded=0;labelBorderColor=none;fontColor=#000000;" parent="ceAP30q-iIAI5CzixKxh-2" vertex="1"><mxGeometry x="677.5" y="310" width="85" height="30" as="geometry"/></mxCell><mxCell id="ceAP30q-iIAI5CzixKxh-12" value="" style="rounded=0;whiteSpace=wrap;html=1;labelBorderColor=none;fontColor=#FF0000;" parent="ceAP30q-iIAI5CzixKxh-2" vertex="1"><mxGeometry x="430" y="350" width="430" height="160" as="geometry"/></mxCell><mxCell id="ceAP30q-iIAI5CzixKxh-13" style="edgeStyle=orthogonalEdgeStyle;rounded=0;orthogonalLoop=1;jettySize=auto;html=1;entryX=0.49;entryY=0.011;entryDx=0;entryDy=0;fontColor=#FF0000;entryPerimeter=0;exitX=1;exitY=0.5;exitDx=0;exitDy=0;" parent="ceAP30q-iIAI5CzixKxh-2" source="ceAP30q-iIAI5CzixKxh-8" target="ceAP30q-iIAI5CzixKxh-12" edge="1"><mxGeometry relative="1" as="geometry"><Array as="points"><mxPoint x="400" y="350"/><mxPoint x="400" y="320"/><mxPoint x="641" y="320"/></Array></mxGeometry></mxCell><mxCell id="ceAP30q-iIAI5CzixKxh-14" value="当前栈帧" style="text;html=1;strokeColor=none;fillColor=none;align=center;verticalAlign=middle;whiteSpace=wrap;rounded=0;labelBorderColor=none;fontColor=#FF0000;" parent="ceAP30q-iIAI5CzixKxh-2" vertex="1"><mxGeometry x="680" y="400" width="85" height="30" as="geometry"/></mxCell><mxCell id="ceAP30q-iIAI5CzixKxh-15" value="其他栈帧..." style="rounded=0;whiteSpace=wrap;html=1;labelBorderColor=none;fontColor=#000000;strokeColor=#000000;" parent="ceAP30q-iIAI5CzixKxh-2" vertex="1"><mxGeometry x="430" y="510" width="430" height="100" as="geometry"/></mxCell><mxCell id="ceAP30q-iIAI5CzixKxh-16" value="&lt;table border=&quot;1&quot; width=&quot;100%&quot; height=&quot;100%&quot; cellpadding=&quot;4&quot; style=&quot;width:100%;height:100%;border-collapse:collapse;&quot;&gt;&lt;tbody&gt;&lt;tr style=&quot;background-color:#A7C942;color:#ffffff;border:1px solid #98bf21;&quot;&gt;&lt;th&gt;序号&lt;/th&gt;&lt;th&gt;本地变量表&lt;/th&gt;&lt;/tr&gt;&lt;tr style=&quot;border:1px solid #98bf21;&quot;&gt;&lt;td&gt;0&lt;/td&gt;&lt;td&gt;args&lt;/td&gt;&lt;/tr&gt;&lt;tr style=&quot;background-color:#EAF2D3;border:1px solid #98bf21;&quot;&gt;&lt;td&gt;1&lt;/td&gt;&lt;td&gt;500&lt;/td&gt;&lt;/tr&gt;&lt;tr style=&quot;border:1px solid #98bf21;&quot;&gt;&lt;td&gt;2&lt;/td&gt;&lt;td&gt;100&lt;/td&gt;&lt;/tr&gt;&lt;tr style=&quot;background-color:#EAF2D3;border:1px solid #98bf21;&quot;&gt;&lt;td&gt;3&lt;/td&gt;&lt;td&gt;5&lt;/td&gt;&lt;/tr&gt;&lt;tr&gt;&lt;td&gt;4&lt;/td&gt;&lt;td&gt;50&lt;/td&gt;&lt;/tr&gt;&lt;/tbody&gt;&lt;/table&gt;" style="text;html=1;strokeColor=#99FF33;fillColor=#ffffff;overflow=fill;rounded=0;labelBorderColor=none;fontColor=#FF0000;align=center;" parent="ceAP30q-iIAI5CzixKxh-2" vertex="1"><mxGeometry x="430" y="360" width="160" height="140" as="geometry"/></mxCell><mxCell id="ceAP30q-iIAI5CzixKxh-17" value="&lt;table border=&quot;1&quot; width=&quot;100%&quot; height=&quot;100%&quot; cellpadding=&quot;4&quot; style=&quot;width:100%;height:100%;border-collapse:collapse;&quot;&gt;&lt;tbody&gt;&lt;tr style=&quot;background-color:#A7C942;color:#ffffff;border:1px solid #98bf21;&quot;&gt;&lt;th&gt;操作数栈&lt;/th&gt;&lt;/tr&gt;&lt;tr style=&quot;border:1px solid #98bf21;&quot;&gt;&lt;td&gt;#2&lt;/td&gt;&lt;/tr&gt;&lt;tr style=&quot;background-color:#EAF2D3;border:1px solid #98bf21;&quot;&gt;&lt;td&gt;&lt;br&gt;&lt;/td&gt;&lt;/tr&gt;&lt;tr style=&quot;border:1px solid #98bf21;&quot;&gt;&lt;td&gt;&lt;br&gt;&lt;/td&gt;&lt;/tr&gt;&lt;/tbody&gt;&lt;/table&gt;" style="text;html=1;strokeColor=#c0c0c0;fillColor=#ffffff;overflow=fill;rounded=0;labelBorderColor=none;fontColor=#FF0000;align=center;" parent="ceAP30q-iIAI5CzixKxh-2" vertex="1"><mxGeometry x="602.5" y="360" width="77.5" height="90" as="geometry"/></mxCell><mxCell id="ceAP30q-iIAI5CzixKxh-18" value="其他栈帧信息" style="rounded=0;whiteSpace=wrap;html=1;labelBorderColor=none;fontColor=#000000;strokeColor=#99FF33;" parent="ceAP30q-iIAI5CzixKxh-2" vertex="1"><mxGeometry x="740" y="450" width="110" height="50" as="geometry"/></mxCell><mxCell id="ceAP30q-iIAI5CzixKxh-19" value="其他栈帧..." style="rounded=0;whiteSpace=wrap;html=1;labelBorderColor=none;fontColor=#000000;strokeColor=#000000;" parent="ceAP30q-iIAI5CzixKxh-2" vertex="1"><mxGeometry x="430" y="610" width="430" height="100" as="geometry"/></mxCell><mxCell id="ceAP30q-iIAI5CzixKxh-20" style="edgeStyle=orthogonalEdgeStyle;rounded=0;orthogonalLoop=1;jettySize=auto;html=1;entryX=-0.012;entryY=0.077;entryDx=0;entryDy=0;entryPerimeter=0;fontColor=#FF0000;" parent="ceAP30q-iIAI5CzixKxh-2" edge="1"><mxGeometry relative="1" as="geometry"><mxPoint x="582" y="188.0200000000001" as="sourcePoint"/><mxPoint x="661.9199999999996" y="188.0200000000001" as="targetPoint"/></mxGeometry></mxCell><mxCell id="ceAP30q-iIAI5CzixKxh-21" value="获取静态属性值System.out,将out对象引用压入操作数栈中" style="rounded=0;whiteSpace=wrap;html=1;labelBorderColor=none;fontColor=#FF0000;strokeColor=#000000;" parent="ceAP30q-iIAI5CzixKxh-2" vertex="1"><mxGeometry x="220" y="168" width="362" height="40" as="geometry"/></mxCell></root></mxGraphModel></diagram><diagram name="12" id="yhehG9pjUKyiIntsLaKq"><mxGraphModel dx="2205" dy="728" grid="1" gridSize="10" guides="1" tooltips="1" connect="1" arrows="1" fold="1" page="1" pageScale="1" pageWidth="827" pageHeight="1169" math="0" shadow="0"><root><mxCell id="NPl-hfHkhrL8Qzu21oQn-0"/><mxCell id="NPl-hfHkhrL8Qzu21oQn-1" parent="NPl-hfHkhrL8Qzu21oQn-0"/><mxCell id="NPl-hfHkhrL8Qzu21oQn-2" value="" style="group" parent="NPl-hfHkhrL8Qzu21oQn-1" vertex="1" connectable="0"><mxGeometry x="-250" y="10" width="1050" height="750" as="geometry"/></mxCell><mxCell id="NPl-hfHkhrL8Qzu21oQn-3" value="" style="rounded=0;whiteSpace=wrap;html=1;labelBorderColor=none;fontColor=#FF0000;strokeColor=#000000;container=1;" parent="NPl-hfHkhrL8Qzu21oQn-2" vertex="1"><mxGeometry width="1050" height="750" as="geometry"><mxRectangle width="50" height="40" as="alternateBounds"/></mxGeometry></mxCell><mxCell id="NPl-hfHkhrL8Qzu21oQn-4" value="&lt;pre style=&quot;background-color:#2b2b2b;color:#a9b7c6;font-family:'JetBrains Mono',monospace;font-size:9.8pt;&quot;&gt;&lt;span style=&quot;color:#cc7832;&quot;&gt;public static void &lt;/span&gt;&lt;span style=&quot;color:#ffc66d;&quot;&gt;main&lt;/span&gt;(String[] args) {&lt;br&gt;    &lt;span style=&quot;color:#cc7832;&quot;&gt;int &lt;/span&gt;x = &lt;span style=&quot;color:#6897bb;&quot;&gt;500&lt;/span&gt;&lt;span style=&quot;color:#cc7832;&quot;&gt;;&lt;br&gt;&lt;/span&gt;&lt;span style=&quot;color:#cc7832;&quot;&gt;    int &lt;/span&gt;y = &lt;span style=&quot;color:#6897bb;&quot;&gt;100&lt;/span&gt;&lt;span style=&quot;color:#cc7832;&quot;&gt;;&lt;br&gt;&lt;/span&gt;&lt;span style=&quot;color:#cc7832;&quot;&gt;    int &lt;/span&gt;a = x / y&lt;span style=&quot;color:#cc7832;&quot;&gt;;&lt;br&gt;&lt;/span&gt;&lt;span style=&quot;color:#cc7832;&quot;&gt;    int &lt;/span&gt;b = &lt;span style=&quot;color:#6897bb;&quot;&gt;50&lt;/span&gt;&lt;span style=&quot;color:#cc7832;&quot;&gt;;&lt;br&gt;&lt;/span&gt;&lt;span style=&quot;color:#cc7832;&quot;&gt;    &lt;/span&gt;System.&lt;span style=&quot;color:#9876aa;font-style:italic;&quot;&gt;out&lt;/span&gt;.println(a + b)&lt;span style=&quot;color:#cc7832;&quot;&gt;;&lt;br&gt;&lt;/span&gt;}&lt;/pre&gt;" style="rounded=0;whiteSpace=wrap;html=1;" parent="NPl-hfHkhrL8Qzu21oQn-2" vertex="1"><mxGeometry x="180" y="440" width="120" height="60" as="geometry"/></mxCell><mxCell id="NPl-hfHkhrL8Qzu21oQn-5" value="方法代码" style="text;html=1;strokeColor=none;fillColor=none;align=center;verticalAlign=middle;whiteSpace=wrap;rounded=0;" parent="NPl-hfHkhrL8Qzu21oQn-2" vertex="1"><mxGeometry x="200" y="380" width="60" height="30" as="geometry"/></mxCell><mxCell id="NPl-hfHkhrL8Qzu21oQn-6" value="&lt;div&gt;&amp;nbsp;0 sipush 500&lt;/div&gt;&lt;div&gt;&amp;nbsp;3 istore_1&lt;/div&gt;&lt;div&gt;&amp;nbsp;4 bipush 100&lt;/div&gt;&lt;div&gt;&amp;nbsp;6 istore_2&lt;/div&gt;&lt;div&gt;&amp;nbsp;7 iload_1&lt;/div&gt;&lt;div&gt;&amp;nbsp;8 iload_2&lt;/div&gt;&lt;div&gt;&amp;nbsp;9 idiv&lt;/div&gt;&lt;div&gt;10 istore_3&lt;/div&gt;&lt;div&gt;11 bipush 50&lt;/div&gt;&lt;div&gt;13 istore 4&lt;/div&gt;&lt;div&gt;15 getstatic #2 &amp;lt;java/lang/System.out : Ljava/io/PrintStream;&amp;gt;&lt;/div&gt;&lt;div&gt;&lt;font color=&quot;#ff0000&quot;&gt;18 iload_3&lt;/font&gt;&lt;/div&gt;&lt;div&gt;19 iload 4&lt;/div&gt;&lt;div&gt;21 iadd&lt;/div&gt;&lt;div&gt;22 invokevirtual #3 &amp;lt;java/io/PrintStream.println : (I)V&amp;gt;&lt;/div&gt;&lt;div&gt;25 return&lt;/div&gt;&lt;div&gt;&lt;br&gt;&lt;/div&gt;" style="rounded=0;whiteSpace=wrap;html=1;align=left;labelBorderColor=none;" parent="NPl-hfHkhrL8Qzu21oQn-2" vertex="1"><mxGeometry x="664" y="30" width="340" height="260" as="geometry"/></mxCell><mxCell id="NPl-hfHkhrL8Qzu21oQn-7" value="字节码指令" style="text;html=1;align=center;verticalAlign=middle;resizable=0;points=[];autosize=1;strokeColor=none;fillColor=none;" parent="NPl-hfHkhrL8Qzu21oQn-2" vertex="1"><mxGeometry x="794" width="80" height="30" as="geometry"/></mxCell><mxCell id="NPl-hfHkhrL8Qzu21oQn-8" value="&lt;font color=&quot;#ff0000&quot;&gt;18&lt;/font&gt;" style="rounded=0;whiteSpace=wrap;html=1;labelBorderColor=none;" parent="NPl-hfHkhrL8Qzu21oQn-2" vertex="1"><mxGeometry x="230" y="330" width="130" height="40" as="geometry"/></mxCell><mxCell id="NPl-hfHkhrL8Qzu21oQn-9" value="程序计数器" style="text;html=1;strokeColor=none;fillColor=none;align=center;verticalAlign=middle;whiteSpace=wrap;rounded=0;labelBorderColor=none;fontColor=#FF0000;" parent="NPl-hfHkhrL8Qzu21oQn-2" vertex="1"><mxGeometry x="252.5" y="300" width="85" height="30" as="geometry"/></mxCell><mxCell id="NPl-hfHkhrL8Qzu21oQn-10" value="" style="rounded=0;whiteSpace=wrap;html=1;labelBorderColor=none;fontColor=#FF0000;" parent="NPl-hfHkhrL8Qzu21oQn-2" vertex="1"><mxGeometry x="430" y="350" width="580" height="360" as="geometry"/></mxCell><mxCell id="NPl-hfHkhrL8Qzu21oQn-11" value="虚拟机栈" style="text;html=1;strokeColor=none;fillColor=none;align=center;verticalAlign=middle;whiteSpace=wrap;rounded=0;labelBorderColor=none;fontColor=#000000;" parent="NPl-hfHkhrL8Qzu21oQn-2" vertex="1"><mxGeometry x="677.5" y="310" width="85" height="30" as="geometry"/></mxCell><mxCell id="NPl-hfHkhrL8Qzu21oQn-12" value="" style="rounded=0;whiteSpace=wrap;html=1;labelBorderColor=none;fontColor=#FF0000;" parent="NPl-hfHkhrL8Qzu21oQn-2" vertex="1"><mxGeometry x="430" y="350" width="430" height="160" as="geometry"/></mxCell><mxCell id="NPl-hfHkhrL8Qzu21oQn-13" style="edgeStyle=orthogonalEdgeStyle;rounded=0;orthogonalLoop=1;jettySize=auto;html=1;entryX=0.49;entryY=0.011;entryDx=0;entryDy=0;fontColor=#FF0000;entryPerimeter=0;exitX=1;exitY=0.5;exitDx=0;exitDy=0;" parent="NPl-hfHkhrL8Qzu21oQn-2" source="NPl-hfHkhrL8Qzu21oQn-8" target="NPl-hfHkhrL8Qzu21oQn-12" edge="1"><mxGeometry relative="1" as="geometry"><Array as="points"><mxPoint x="400" y="350"/><mxPoint x="400" y="320"/><mxPoint x="641" y="320"/></Array></mxGeometry></mxCell><mxCell id="NPl-hfHkhrL8Qzu21oQn-14" value="当前栈帧" style="text;html=1;strokeColor=none;fillColor=none;align=center;verticalAlign=middle;whiteSpace=wrap;rounded=0;labelBorderColor=none;fontColor=#FF0000;" parent="NPl-hfHkhrL8Qzu21oQn-2" vertex="1"><mxGeometry x="680" y="400" width="85" height="30" as="geometry"/></mxCell><mxCell id="NPl-hfHkhrL8Qzu21oQn-15" value="其他栈帧..." style="rounded=0;whiteSpace=wrap;html=1;labelBorderColor=none;fontColor=#000000;strokeColor=#000000;" parent="NPl-hfHkhrL8Qzu21oQn-2" vertex="1"><mxGeometry x="430" y="510" width="430" height="100" as="geometry"/></mxCell><mxCell id="NPl-hfHkhrL8Qzu21oQn-16" value="&lt;table border=&quot;1&quot; width=&quot;100%&quot; height=&quot;100%&quot; cellpadding=&quot;4&quot; style=&quot;width:100%;height:100%;border-collapse:collapse;&quot;&gt;&lt;tbody&gt;&lt;tr style=&quot;background-color:#A7C942;color:#ffffff;border:1px solid #98bf21;&quot;&gt;&lt;th&gt;序号&lt;/th&gt;&lt;th&gt;本地变量表&lt;/th&gt;&lt;/tr&gt;&lt;tr style=&quot;border:1px solid #98bf21;&quot;&gt;&lt;td&gt;0&lt;/td&gt;&lt;td&gt;args&lt;/td&gt;&lt;/tr&gt;&lt;tr style=&quot;background-color:#EAF2D3;border:1px solid #98bf21;&quot;&gt;&lt;td&gt;1&lt;/td&gt;&lt;td&gt;500&lt;/td&gt;&lt;/tr&gt;&lt;tr style=&quot;border:1px solid #98bf21;&quot;&gt;&lt;td&gt;2&lt;/td&gt;&lt;td&gt;100&lt;/td&gt;&lt;/tr&gt;&lt;tr style=&quot;background-color:#EAF2D3;border:1px solid #98bf21;&quot;&gt;&lt;td&gt;3&lt;/td&gt;&lt;td&gt;5&lt;/td&gt;&lt;/tr&gt;&lt;tr&gt;&lt;td&gt;4&lt;/td&gt;&lt;td&gt;50&lt;/td&gt;&lt;/tr&gt;&lt;/tbody&gt;&lt;/table&gt;" style="text;html=1;strokeColor=#99FF33;fillColor=#ffffff;overflow=fill;rounded=0;labelBorderColor=none;fontColor=#FF0000;align=center;" parent="NPl-hfHkhrL8Qzu21oQn-2" vertex="1"><mxGeometry x="430" y="360" width="160" height="140" as="geometry"/></mxCell><mxCell id="NPl-hfHkhrL8Qzu21oQn-17" value="&lt;table border=&quot;1&quot; width=&quot;100%&quot; height=&quot;100%&quot; cellpadding=&quot;4&quot; style=&quot;width:100%;height:100%;border-collapse:collapse;&quot;&gt;&lt;tbody&gt;&lt;tr style=&quot;background-color:#A7C942;color:#ffffff;border:1px solid #98bf21;&quot;&gt;&lt;th&gt;操作数栈&lt;/th&gt;&lt;/tr&gt;&lt;tr style=&quot;border:1px solid #98bf21;&quot;&gt;&lt;td&gt;5&lt;/td&gt;&lt;/tr&gt;&lt;tr style=&quot;background-color:#EAF2D3;border:1px solid #98bf21;&quot;&gt;&lt;td&gt;#2&lt;/td&gt;&lt;/tr&gt;&lt;tr style=&quot;border:1px solid #98bf21;&quot;&gt;&lt;td&gt;&lt;br&gt;&lt;/td&gt;&lt;/tr&gt;&lt;/tbody&gt;&lt;/table&gt;" style="text;html=1;strokeColor=#c0c0c0;fillColor=#ffffff;overflow=fill;rounded=0;labelBorderColor=none;fontColor=#FF0000;align=center;" parent="NPl-hfHkhrL8Qzu21oQn-2" vertex="1"><mxGeometry x="602.5" y="360" width="77.5" height="90" as="geometry"/></mxCell><mxCell id="NPl-hfHkhrL8Qzu21oQn-18" value="其他栈帧信息" style="rounded=0;whiteSpace=wrap;html=1;labelBorderColor=none;fontColor=#000000;strokeColor=#99FF33;" parent="NPl-hfHkhrL8Qzu21oQn-2" vertex="1"><mxGeometry x="740" y="450" width="110" height="50" as="geometry"/></mxCell><mxCell id="NPl-hfHkhrL8Qzu21oQn-19" value="其他栈帧..." style="rounded=0;whiteSpace=wrap;html=1;labelBorderColor=none;fontColor=#000000;strokeColor=#000000;" parent="NPl-hfHkhrL8Qzu21oQn-2" vertex="1"><mxGeometry x="430" y="610" width="430" height="100" as="geometry"/></mxCell><mxCell id="NPl-hfHkhrL8Qzu21oQn-20" style="edgeStyle=orthogonalEdgeStyle;rounded=0;orthogonalLoop=1;jettySize=auto;html=1;entryX=-0.012;entryY=0.077;entryDx=0;entryDy=0;entryPerimeter=0;fontColor=#FF0000;" parent="NPl-hfHkhrL8Qzu21oQn-2" edge="1"><mxGeometry relative="1" as="geometry"><mxPoint x="582" y="201.0200000000001" as="sourcePoint"/><mxPoint x="661.9199999999996" y="201.0200000000001" as="targetPoint"/></mxGeometry></mxCell><mxCell id="NPl-hfHkhrL8Qzu21oQn-21" value="将本地变量表3中5压入操作数栈中" style="rounded=0;whiteSpace=wrap;html=1;labelBorderColor=none;fontColor=#FF0000;strokeColor=#000000;" parent="NPl-hfHkhrL8Qzu21oQn-2" vertex="1"><mxGeometry x="220" y="181" width="362" height="40" as="geometry"/></mxCell></root></mxGraphModel></diagram><diagram name="13" id="H8qL83ZxQHOwJ5M8gt2n"><mxGraphModel dx="2205" dy="728" grid="1" gridSize="10" guides="1" tooltips="1" connect="1" arrows="1" fold="1" page="1" pageScale="1" pageWidth="827" pageHeight="1169" math="0" shadow="0"><root><mxCell id="AEUPLnMgaKr2-QCYAXoB-0"/><mxCell id="AEUPLnMgaKr2-QCYAXoB-1" parent="AEUPLnMgaKr2-QCYAXoB-0"/><mxCell id="AEUPLnMgaKr2-QCYAXoB-2" value="" style="group" parent="AEUPLnMgaKr2-QCYAXoB-1" vertex="1" connectable="0"><mxGeometry x="-250" y="10" width="1050" height="750" as="geometry"/></mxCell><mxCell id="AEUPLnMgaKr2-QCYAXoB-3" value="" style="rounded=0;whiteSpace=wrap;html=1;labelBorderColor=none;fontColor=#FF0000;strokeColor=#000000;container=1;" parent="AEUPLnMgaKr2-QCYAXoB-2" vertex="1"><mxGeometry width="1050" height="750" as="geometry"><mxRectangle width="50" height="40" as="alternateBounds"/></mxGeometry></mxCell><mxCell id="AEUPLnMgaKr2-QCYAXoB-4" value="&lt;pre style=&quot;background-color:#2b2b2b;color:#a9b7c6;font-family:'JetBrains Mono',monospace;font-size:9.8pt;&quot;&gt;&lt;span style=&quot;color:#cc7832;&quot;&gt;public static void &lt;/span&gt;&lt;span style=&quot;color:#ffc66d;&quot;&gt;main&lt;/span&gt;(String[] args) {&lt;br&gt;    &lt;span style=&quot;color:#cc7832;&quot;&gt;int &lt;/span&gt;x = &lt;span style=&quot;color:#6897bb;&quot;&gt;500&lt;/span&gt;&lt;span style=&quot;color:#cc7832;&quot;&gt;;&lt;br&gt;&lt;/span&gt;&lt;span style=&quot;color:#cc7832;&quot;&gt;    int &lt;/span&gt;y = &lt;span style=&quot;color:#6897bb;&quot;&gt;100&lt;/span&gt;&lt;span style=&quot;color:#cc7832;&quot;&gt;;&lt;br&gt;&lt;/span&gt;&lt;span style=&quot;color:#cc7832;&quot;&gt;    int &lt;/span&gt;a = x / y&lt;span style=&quot;color:#cc7832;&quot;&gt;;&lt;br&gt;&lt;/span&gt;&lt;span style=&quot;color:#cc7832;&quot;&gt;    int &lt;/span&gt;b = &lt;span style=&quot;color:#6897bb;&quot;&gt;50&lt;/span&gt;&lt;span style=&quot;color:#cc7832;&quot;&gt;;&lt;br&gt;&lt;/span&gt;&lt;span style=&quot;color:#cc7832;&quot;&gt;    &lt;/span&gt;System.&lt;span style=&quot;color:#9876aa;font-style:italic;&quot;&gt;out&lt;/span&gt;.println(a + b)&lt;span style=&quot;color:#cc7832;&quot;&gt;;&lt;br&gt;&lt;/span&gt;}&lt;/pre&gt;" style="rounded=0;whiteSpace=wrap;html=1;" parent="AEUPLnMgaKr2-QCYAXoB-2" vertex="1"><mxGeometry x="180" y="440" width="120" height="60" as="geometry"/></mxCell><mxCell id="AEUPLnMgaKr2-QCYAXoB-5" value="方法代码" style="text;html=1;strokeColor=none;fillColor=none;align=center;verticalAlign=middle;whiteSpace=wrap;rounded=0;" parent="AEUPLnMgaKr2-QCYAXoB-2" vertex="1"><mxGeometry x="200" y="380" width="60" height="30" as="geometry"/></mxCell><mxCell id="AEUPLnMgaKr2-QCYAXoB-6" value="&lt;div&gt;&amp;nbsp;0 sipush 500&lt;/div&gt;&lt;div&gt;&amp;nbsp;3 istore_1&lt;/div&gt;&lt;div&gt;&amp;nbsp;4 bipush 100&lt;/div&gt;&lt;div&gt;&amp;nbsp;6 istore_2&lt;/div&gt;&lt;div&gt;&amp;nbsp;7 iload_1&lt;/div&gt;&lt;div&gt;&amp;nbsp;8 iload_2&lt;/div&gt;&lt;div&gt;&amp;nbsp;9 idiv&lt;/div&gt;&lt;div&gt;10 istore_3&lt;/div&gt;&lt;div&gt;11 bipush 50&lt;/div&gt;&lt;div&gt;13 istore 4&lt;/div&gt;&lt;div&gt;15 getstatic #2 &amp;lt;java/lang/System.out : Ljava/io/PrintStream;&amp;gt;&lt;/div&gt;&lt;div&gt;18 iload_3&lt;/div&gt;&lt;div&gt;&lt;font color=&quot;#ff0000&quot;&gt;19 iload 4&lt;/font&gt;&lt;/div&gt;&lt;div&gt;21 iadd&lt;/div&gt;&lt;div&gt;22 invokevirtual #3 &amp;lt;java/io/PrintStream.println : (I)V&amp;gt;&lt;/div&gt;&lt;div&gt;25 return&lt;/div&gt;&lt;div&gt;&lt;br&gt;&lt;/div&gt;" style="rounded=0;whiteSpace=wrap;html=1;align=left;labelBorderColor=none;" parent="AEUPLnMgaKr2-QCYAXoB-2" vertex="1"><mxGeometry x="664" y="30" width="340" height="260" as="geometry"/></mxCell><mxCell id="AEUPLnMgaKr2-QCYAXoB-7" value="字节码指令" style="text;html=1;align=center;verticalAlign=middle;resizable=0;points=[];autosize=1;strokeColor=none;fillColor=none;" parent="AEUPLnMgaKr2-QCYAXoB-2" vertex="1"><mxGeometry x="794" width="80" height="30" as="geometry"/></mxCell><mxCell id="AEUPLnMgaKr2-QCYAXoB-8" value="&lt;font color=&quot;#ff0000&quot;&gt;19&lt;/font&gt;" style="rounded=0;whiteSpace=wrap;html=1;labelBorderColor=none;" parent="AEUPLnMgaKr2-QCYAXoB-2" vertex="1"><mxGeometry x="230" y="330" width="130" height="40" as="geometry"/></mxCell><mxCell id="AEUPLnMgaKr2-QCYAXoB-9" value="程序计数器" style="text;html=1;strokeColor=none;fillColor=none;align=center;verticalAlign=middle;whiteSpace=wrap;rounded=0;labelBorderColor=none;fontColor=#FF0000;" parent="AEUPLnMgaKr2-QCYAXoB-2" vertex="1"><mxGeometry x="252.5" y="300" width="85" height="30" as="geometry"/></mxCell><mxCell id="AEUPLnMgaKr2-QCYAXoB-10" value="" style="rounded=0;whiteSpace=wrap;html=1;labelBorderColor=none;fontColor=#FF0000;" parent="AEUPLnMgaKr2-QCYAXoB-2" vertex="1"><mxGeometry x="430" y="350" width="580" height="360" as="geometry"/></mxCell><mxCell id="AEUPLnMgaKr2-QCYAXoB-11" value="虚拟机栈" style="text;html=1;strokeColor=none;fillColor=none;align=center;verticalAlign=middle;whiteSpace=wrap;rounded=0;labelBorderColor=none;fontColor=#000000;" parent="AEUPLnMgaKr2-QCYAXoB-2" vertex="1"><mxGeometry x="677.5" y="310" width="85" height="30" as="geometry"/></mxCell><mxCell id="AEUPLnMgaKr2-QCYAXoB-12" value="" style="rounded=0;whiteSpace=wrap;html=1;labelBorderColor=none;fontColor=#FF0000;" parent="AEUPLnMgaKr2-QCYAXoB-2" vertex="1"><mxGeometry x="430" y="350" width="430" height="160" as="geometry"/></mxCell><mxCell id="AEUPLnMgaKr2-QCYAXoB-13" style="edgeStyle=orthogonalEdgeStyle;rounded=0;orthogonalLoop=1;jettySize=auto;html=1;entryX=0.49;entryY=0.011;entryDx=0;entryDy=0;fontColor=#FF0000;entryPerimeter=0;exitX=1;exitY=0.5;exitDx=0;exitDy=0;" parent="AEUPLnMgaKr2-QCYAXoB-2" source="AEUPLnMgaKr2-QCYAXoB-8" target="AEUPLnMgaKr2-QCYAXoB-12" edge="1"><mxGeometry relative="1" as="geometry"><Array as="points"><mxPoint x="400" y="350"/><mxPoint x="400" y="320"/><mxPoint x="641" y="320"/></Array></mxGeometry></mxCell><mxCell id="AEUPLnMgaKr2-QCYAXoB-14" value="当前栈帧" style="text;html=1;strokeColor=none;fillColor=none;align=center;verticalAlign=middle;whiteSpace=wrap;rounded=0;labelBorderColor=none;fontColor=#FF0000;" parent="AEUPLnMgaKr2-QCYAXoB-2" vertex="1"><mxGeometry x="680" y="400" width="85" height="30" as="geometry"/></mxCell><mxCell id="AEUPLnMgaKr2-QCYAXoB-15" value="其他栈帧..." style="rounded=0;whiteSpace=wrap;html=1;labelBorderColor=none;fontColor=#000000;strokeColor=#000000;" parent="AEUPLnMgaKr2-QCYAXoB-2" vertex="1"><mxGeometry x="430" y="510" width="430" height="100" as="geometry"/></mxCell><mxCell id="AEUPLnMgaKr2-QCYAXoB-16" value="&lt;table border=&quot;1&quot; width=&quot;100%&quot; height=&quot;100%&quot; cellpadding=&quot;4&quot; style=&quot;width:100%;height:100%;border-collapse:collapse;&quot;&gt;&lt;tbody&gt;&lt;tr style=&quot;background-color:#A7C942;color:#ffffff;border:1px solid #98bf21;&quot;&gt;&lt;th&gt;序号&lt;/th&gt;&lt;th&gt;本地变量表&lt;/th&gt;&lt;/tr&gt;&lt;tr style=&quot;border:1px solid #98bf21;&quot;&gt;&lt;td&gt;0&lt;/td&gt;&lt;td&gt;args&lt;/td&gt;&lt;/tr&gt;&lt;tr style=&quot;background-color:#EAF2D3;border:1px solid #98bf21;&quot;&gt;&lt;td&gt;1&lt;/td&gt;&lt;td&gt;500&lt;/td&gt;&lt;/tr&gt;&lt;tr style=&quot;border:1px solid #98bf21;&quot;&gt;&lt;td&gt;2&lt;/td&gt;&lt;td&gt;100&lt;/td&gt;&lt;/tr&gt;&lt;tr style=&quot;background-color:#EAF2D3;border:1px solid #98bf21;&quot;&gt;&lt;td&gt;3&lt;/td&gt;&lt;td&gt;5&lt;/td&gt;&lt;/tr&gt;&lt;tr&gt;&lt;td&gt;4&lt;/td&gt;&lt;td&gt;50&lt;/td&gt;&lt;/tr&gt;&lt;/tbody&gt;&lt;/table&gt;" style="text;html=1;strokeColor=#99FF33;fillColor=#ffffff;overflow=fill;rounded=0;labelBorderColor=none;fontColor=#FF0000;align=center;" parent="AEUPLnMgaKr2-QCYAXoB-2" vertex="1"><mxGeometry x="430" y="360" width="160" height="140" as="geometry"/></mxCell><mxCell id="AEUPLnMgaKr2-QCYAXoB-17" value="&lt;table border=&quot;1&quot; width=&quot;100%&quot; height=&quot;100%&quot; cellpadding=&quot;4&quot; style=&quot;width:100%;height:100%;border-collapse:collapse;&quot;&gt;&lt;tbody&gt;&lt;tr style=&quot;background-color:#A7C942;color:#ffffff;border:1px solid #98bf21;&quot;&gt;&lt;th&gt;操作数栈&lt;/th&gt;&lt;/tr&gt;&lt;tr style=&quot;border:1px solid #98bf21;&quot;&gt;&lt;td&gt;50&lt;/td&gt;&lt;/tr&gt;&lt;tr style=&quot;background-color:#EAF2D3;border:1px solid #98bf21;&quot;&gt;&lt;td&gt;&lt;span style=&quot;background-color: rgb(248, 249, 250);&quot;&gt;5&lt;/span&gt;&lt;br&gt;&lt;/td&gt;&lt;/tr&gt;&lt;tr style=&quot;border:1px solid #98bf21;&quot;&gt;&lt;td&gt;&lt;span style=&quot;background-color: rgb(234, 242, 211);&quot;&gt;#2&lt;/span&gt;&lt;br&gt;&lt;/td&gt;&lt;/tr&gt;&lt;/tbody&gt;&lt;/table&gt;" style="text;html=1;strokeColor=#c0c0c0;fillColor=#ffffff;overflow=fill;rounded=0;labelBorderColor=none;fontColor=#FF0000;align=center;" parent="AEUPLnMgaKr2-QCYAXoB-2" vertex="1"><mxGeometry x="602.5" y="360" width="77.5" height="90" as="geometry"/></mxCell><mxCell id="AEUPLnMgaKr2-QCYAXoB-18" value="其他栈帧信息" style="rounded=0;whiteSpace=wrap;html=1;labelBorderColor=none;fontColor=#000000;strokeColor=#99FF33;" parent="AEUPLnMgaKr2-QCYAXoB-2" vertex="1"><mxGeometry x="740" y="450" width="110" height="50" as="geometry"/></mxCell><mxCell id="AEUPLnMgaKr2-QCYAXoB-19" value="其他栈帧..." style="rounded=0;whiteSpace=wrap;html=1;labelBorderColor=none;fontColor=#000000;strokeColor=#000000;" parent="AEUPLnMgaKr2-QCYAXoB-2" vertex="1"><mxGeometry x="430" y="610" width="430" height="100" as="geometry"/></mxCell><mxCell id="AEUPLnMgaKr2-QCYAXoB-20" style="edgeStyle=orthogonalEdgeStyle;rounded=0;orthogonalLoop=1;jettySize=auto;html=1;entryX=-0.012;entryY=0.077;entryDx=0;entryDy=0;entryPerimeter=0;fontColor=#FF0000;" parent="AEUPLnMgaKr2-QCYAXoB-2" edge="1"><mxGeometry relative="1" as="geometry"><mxPoint x="582" y="218.0200000000001" as="sourcePoint"/><mxPoint x="661.9199999999996" y="218.0200000000001" as="targetPoint"/></mxGeometry></mxCell><mxCell id="AEUPLnMgaKr2-QCYAXoB-21" value="将本地变量表4中50压入操作数栈中" style="rounded=0;whiteSpace=wrap;html=1;labelBorderColor=none;fontColor=#FF0000;strokeColor=#000000;" parent="AEUPLnMgaKr2-QCYAXoB-2" vertex="1"><mxGeometry x="220" y="198" width="362" height="40" as="geometry"/></mxCell></root></mxGraphModel></diagram><diagram name="14" id="OuWNDooAI18mJ5Wi6BNE"><mxGraphModel dx="2205" dy="728" grid="1" gridSize="10" guides="1" tooltips="1" connect="1" arrows="1" fold="1" page="1" pageScale="1" pageWidth="827" pageHeight="1169" math="0" shadow="0"><root><mxCell id="tQWAiSWtsNazyru74D8C-0"/><mxCell id="tQWAiSWtsNazyru74D8C-1" parent="tQWAiSWtsNazyru74D8C-0"/><mxCell id="tQWAiSWtsNazyru74D8C-2" value="" style="group" parent="tQWAiSWtsNazyru74D8C-1" vertex="1" connectable="0"><mxGeometry x="-250" y="10" width="1050" height="750" as="geometry"/></mxCell><mxCell id="tQWAiSWtsNazyru74D8C-3" value="" style="rounded=0;whiteSpace=wrap;html=1;labelBorderColor=none;fontColor=#FF0000;strokeColor=#000000;container=1;" parent="tQWAiSWtsNazyru74D8C-2" vertex="1"><mxGeometry width="1050" height="750" as="geometry"><mxRectangle width="50" height="40" as="alternateBounds"/></mxGeometry></mxCell><mxCell id="tQWAiSWtsNazyru74D8C-4" value="&lt;pre style=&quot;background-color:#2b2b2b;color:#a9b7c6;font-family:'JetBrains Mono',monospace;font-size:9.8pt;&quot;&gt;&lt;span style=&quot;color:#cc7832;&quot;&gt;public static void &lt;/span&gt;&lt;span style=&quot;color:#ffc66d;&quot;&gt;main&lt;/span&gt;(String[] args) {&lt;br&gt;    &lt;span style=&quot;color:#cc7832;&quot;&gt;int &lt;/span&gt;x = &lt;span style=&quot;color:#6897bb;&quot;&gt;500&lt;/span&gt;&lt;span style=&quot;color:#cc7832;&quot;&gt;;&lt;br&gt;&lt;/span&gt;&lt;span style=&quot;color:#cc7832;&quot;&gt;    int &lt;/span&gt;y = &lt;span style=&quot;color:#6897bb;&quot;&gt;100&lt;/span&gt;&lt;span style=&quot;color:#cc7832;&quot;&gt;;&lt;br&gt;&lt;/span&gt;&lt;span style=&quot;color:#cc7832;&quot;&gt;    int &lt;/span&gt;a = x / y&lt;span style=&quot;color:#cc7832;&quot;&gt;;&lt;br&gt;&lt;/span&gt;&lt;span style=&quot;color:#cc7832;&quot;&gt;    int &lt;/span&gt;b = &lt;span style=&quot;color:#6897bb;&quot;&gt;50&lt;/span&gt;&lt;span style=&quot;color:#cc7832;&quot;&gt;;&lt;br&gt;&lt;/span&gt;&lt;span style=&quot;color:#cc7832;&quot;&gt;    &lt;/span&gt;System.&lt;span style=&quot;color:#9876aa;font-style:italic;&quot;&gt;out&lt;/span&gt;.println(a + b)&lt;span style=&quot;color:#cc7832;&quot;&gt;;&lt;br&gt;&lt;/span&gt;}&lt;/pre&gt;" style="rounded=0;whiteSpace=wrap;html=1;" parent="tQWAiSWtsNazyru74D8C-2" vertex="1"><mxGeometry x="180" y="440" width="120" height="60" as="geometry"/></mxCell><mxCell id="tQWAiSWtsNazyru74D8C-5" value="方法代码" style="text;html=1;strokeColor=none;fillColor=none;align=center;verticalAlign=middle;whiteSpace=wrap;rounded=0;" parent="tQWAiSWtsNazyru74D8C-2" vertex="1"><mxGeometry x="200" y="380" width="60" height="30" as="geometry"/></mxCell><mxCell id="tQWAiSWtsNazyru74D8C-6" value="&lt;div&gt;&amp;nbsp;0 sipush 500&lt;/div&gt;&lt;div&gt;&amp;nbsp;3 istore_1&lt;/div&gt;&lt;div&gt;&amp;nbsp;4 bipush 100&lt;/div&gt;&lt;div&gt;&amp;nbsp;6 istore_2&lt;/div&gt;&lt;div&gt;&amp;nbsp;7 iload_1&lt;/div&gt;&lt;div&gt;&amp;nbsp;8 iload_2&lt;/div&gt;&lt;div&gt;&amp;nbsp;9 idiv&lt;/div&gt;&lt;div&gt;10 istore_3&lt;/div&gt;&lt;div&gt;11 bipush 50&lt;/div&gt;&lt;div&gt;13 istore 4&lt;/div&gt;&lt;div&gt;15 getstatic #2 &amp;lt;java/lang/System.out : Ljava/io/PrintStream;&amp;gt;&lt;/div&gt;&lt;div&gt;18 iload_3&lt;/div&gt;&lt;div&gt;19 iload 4&lt;/div&gt;&lt;div&gt;&lt;font color=&quot;#ff0000&quot;&gt;21 iadd&lt;/font&gt;&lt;/div&gt;&lt;div&gt;22 invokevirtual #3 &amp;lt;java/io/PrintStream.println : (I)V&amp;gt;&lt;/div&gt;&lt;div&gt;25 return&lt;/div&gt;&lt;div&gt;&lt;br&gt;&lt;/div&gt;" style="rounded=0;whiteSpace=wrap;html=1;align=left;labelBorderColor=none;" parent="tQWAiSWtsNazyru74D8C-2" vertex="1"><mxGeometry x="664" y="30" width="340" height="260" as="geometry"/></mxCell><mxCell id="tQWAiSWtsNazyru74D8C-7" value="字节码指令" style="text;html=1;align=center;verticalAlign=middle;resizable=0;points=[];autosize=1;strokeColor=none;fillColor=none;" parent="tQWAiSWtsNazyru74D8C-2" vertex="1"><mxGeometry x="794" width="80" height="30" as="geometry"/></mxCell><mxCell id="tQWAiSWtsNazyru74D8C-8" value="&lt;font color=&quot;#ff0000&quot;&gt;21&lt;/font&gt;" style="rounded=0;whiteSpace=wrap;html=1;labelBorderColor=none;" parent="tQWAiSWtsNazyru74D8C-2" vertex="1"><mxGeometry x="230" y="330" width="130" height="40" as="geometry"/></mxCell><mxCell id="tQWAiSWtsNazyru74D8C-9" value="程序计数器" style="text;html=1;strokeColor=none;fillColor=none;align=center;verticalAlign=middle;whiteSpace=wrap;rounded=0;labelBorderColor=none;fontColor=#FF0000;" parent="tQWAiSWtsNazyru74D8C-2" vertex="1"><mxGeometry x="252.5" y="300" width="85" height="30" as="geometry"/></mxCell><mxCell id="tQWAiSWtsNazyru74D8C-10" value="" style="rounded=0;whiteSpace=wrap;html=1;labelBorderColor=none;fontColor=#FF0000;" parent="tQWAiSWtsNazyru74D8C-2" vertex="1"><mxGeometry x="430" y="350" width="580" height="360" as="geometry"/></mxCell><mxCell id="tQWAiSWtsNazyru74D8C-11" value="虚拟机栈" style="text;html=1;strokeColor=none;fillColor=none;align=center;verticalAlign=middle;whiteSpace=wrap;rounded=0;labelBorderColor=none;fontColor=#000000;" parent="tQWAiSWtsNazyru74D8C-2" vertex="1"><mxGeometry x="677.5" y="310" width="85" height="30" as="geometry"/></mxCell><mxCell id="tQWAiSWtsNazyru74D8C-12" value="" style="rounded=0;whiteSpace=wrap;html=1;labelBorderColor=none;fontColor=#FF0000;" parent="tQWAiSWtsNazyru74D8C-2" vertex="1"><mxGeometry x="430" y="350" width="430" height="160" as="geometry"/></mxCell><mxCell id="tQWAiSWtsNazyru74D8C-13" style="edgeStyle=orthogonalEdgeStyle;rounded=0;orthogonalLoop=1;jettySize=auto;html=1;entryX=0.49;entryY=0.011;entryDx=0;entryDy=0;fontColor=#FF0000;entryPerimeter=0;exitX=1;exitY=0.5;exitDx=0;exitDy=0;" parent="tQWAiSWtsNazyru74D8C-2" source="tQWAiSWtsNazyru74D8C-8" target="tQWAiSWtsNazyru74D8C-12" edge="1"><mxGeometry relative="1" as="geometry"><Array as="points"><mxPoint x="400" y="350"/><mxPoint x="400" y="320"/><mxPoint x="641" y="320"/></Array></mxGeometry></mxCell><mxCell id="tQWAiSWtsNazyru74D8C-14" value="当前栈帧" style="text;html=1;strokeColor=none;fillColor=none;align=center;verticalAlign=middle;whiteSpace=wrap;rounded=0;labelBorderColor=none;fontColor=#FF0000;" parent="tQWAiSWtsNazyru74D8C-2" vertex="1"><mxGeometry x="680" y="400" width="85" height="30" as="geometry"/></mxCell><mxCell id="tQWAiSWtsNazyru74D8C-15" value="其他栈帧..." style="rounded=0;whiteSpace=wrap;html=1;labelBorderColor=none;fontColor=#000000;strokeColor=#000000;" parent="tQWAiSWtsNazyru74D8C-2" vertex="1"><mxGeometry x="430" y="510" width="430" height="100" as="geometry"/></mxCell><mxCell id="tQWAiSWtsNazyru74D8C-16" value="&lt;table border=&quot;1&quot; width=&quot;100%&quot; height=&quot;100%&quot; cellpadding=&quot;4&quot; style=&quot;width:100%;height:100%;border-collapse:collapse;&quot;&gt;&lt;tbody&gt;&lt;tr style=&quot;background-color:#A7C942;color:#ffffff;border:1px solid #98bf21;&quot;&gt;&lt;th&gt;序号&lt;/th&gt;&lt;th&gt;本地变量表&lt;/th&gt;&lt;/tr&gt;&lt;tr style=&quot;border:1px solid #98bf21;&quot;&gt;&lt;td&gt;0&lt;/td&gt;&lt;td&gt;args&lt;/td&gt;&lt;/tr&gt;&lt;tr style=&quot;background-color:#EAF2D3;border:1px solid #98bf21;&quot;&gt;&lt;td&gt;1&lt;/td&gt;&lt;td&gt;500&lt;/td&gt;&lt;/tr&gt;&lt;tr style=&quot;border:1px solid #98bf21;&quot;&gt;&lt;td&gt;2&lt;/td&gt;&lt;td&gt;100&lt;/td&gt;&lt;/tr&gt;&lt;tr style=&quot;background-color:#EAF2D3;border:1px solid #98bf21;&quot;&gt;&lt;td&gt;3&lt;/td&gt;&lt;td&gt;5&lt;/td&gt;&lt;/tr&gt;&lt;tr&gt;&lt;td&gt;4&lt;/td&gt;&lt;td&gt;50&lt;/td&gt;&lt;/tr&gt;&lt;/tbody&gt;&lt;/table&gt;" style="text;html=1;strokeColor=#99FF33;fillColor=#ffffff;overflow=fill;rounded=0;labelBorderColor=none;fontColor=#FF0000;align=center;" parent="tQWAiSWtsNazyru74D8C-2" vertex="1"><mxGeometry x="430" y="360" width="160" height="140" as="geometry"/></mxCell><mxCell id="tQWAiSWtsNazyru74D8C-17" value="&lt;table border=&quot;1&quot; width=&quot;100%&quot; height=&quot;100%&quot; cellpadding=&quot;4&quot; style=&quot;width:100%;height:100%;border-collapse:collapse;&quot;&gt;&lt;tbody&gt;&lt;tr style=&quot;background-color:#A7C942;color:#ffffff;border:1px solid #98bf21;&quot;&gt;&lt;th&gt;操作数栈&lt;/th&gt;&lt;/tr&gt;&lt;tr style=&quot;border:1px solid #98bf21;&quot;&gt;&lt;td&gt;55&lt;/td&gt;&lt;/tr&gt;&lt;tr style=&quot;background-color:#EAF2D3;border:1px solid #98bf21;&quot;&gt;&lt;td&gt;#2&lt;br&gt;&lt;/td&gt;&lt;/tr&gt;&lt;tr style=&quot;border:1px solid #98bf21;&quot;&gt;&lt;td&gt;&lt;br&gt;&lt;/td&gt;&lt;/tr&gt;&lt;/tbody&gt;&lt;/table&gt;" style="text;html=1;strokeColor=#c0c0c0;fillColor=#ffffff;overflow=fill;rounded=0;labelBorderColor=none;fontColor=#FF0000;align=center;" parent="tQWAiSWtsNazyru74D8C-2" vertex="1"><mxGeometry x="602.5" y="360" width="77.5" height="90" as="geometry"/></mxCell><mxCell id="tQWAiSWtsNazyru74D8C-18" value="其他栈帧信息" style="rounded=0;whiteSpace=wrap;html=1;labelBorderColor=none;fontColor=#000000;strokeColor=#99FF33;" parent="tQWAiSWtsNazyru74D8C-2" vertex="1"><mxGeometry x="740" y="450" width="110" height="50" as="geometry"/></mxCell><mxCell id="tQWAiSWtsNazyru74D8C-19" value="其他栈帧..." style="rounded=0;whiteSpace=wrap;html=1;labelBorderColor=none;fontColor=#000000;strokeColor=#000000;" parent="tQWAiSWtsNazyru74D8C-2" vertex="1"><mxGeometry x="430" y="610" width="430" height="100" as="geometry"/></mxCell><mxCell id="tQWAiSWtsNazyru74D8C-20" style="edgeStyle=orthogonalEdgeStyle;rounded=0;orthogonalLoop=1;jettySize=auto;html=1;entryX=-0.012;entryY=0.077;entryDx=0;entryDy=0;entryPerimeter=0;fontColor=#FF0000;" parent="tQWAiSWtsNazyru74D8C-2" edge="1"><mxGeometry relative="1" as="geometry"><mxPoint x="582" y="231.0200000000001" as="sourcePoint"/><mxPoint x="661.9199999999996" y="231.0200000000001" as="targetPoint"/></mxGeometry></mxCell><mxCell id="tQWAiSWtsNazyru74D8C-21" value="将栈顶数据50和5弹出相加结果压入操作数栈中" style="rounded=0;whiteSpace=wrap;html=1;labelBorderColor=none;fontColor=#FF0000;strokeColor=#000000;" parent="tQWAiSWtsNazyru74D8C-2" vertex="1"><mxGeometry x="220" y="211" width="362" height="42" as="geometry"/></mxCell></root></mxGraphModel></diagram><diagram name="15" id="8463b_9i3Hc8yDAmnjBz"><mxGraphModel dx="2205" dy="728" grid="1" gridSize="10" guides="1" tooltips="1" connect="1" arrows="1" fold="1" page="1" pageScale="1" pageWidth="827" pageHeight="1169" math="0" shadow="0"><root><mxCell id="tM7snCYVyfXTT4juk-JJ-0"/><mxCell id="tM7snCYVyfXTT4juk-JJ-1" parent="tM7snCYVyfXTT4juk-JJ-0"/><mxCell id="tM7snCYVyfXTT4juk-JJ-2" value="" style="group" parent="tM7snCYVyfXTT4juk-JJ-1" vertex="1" connectable="0"><mxGeometry x="-250" y="10" width="1050" height="750" as="geometry"/></mxCell><mxCell id="tM7snCYVyfXTT4juk-JJ-3" value="" style="rounded=0;whiteSpace=wrap;html=1;labelBorderColor=none;fontColor=#FF0000;strokeColor=#000000;container=1;" parent="tM7snCYVyfXTT4juk-JJ-2" vertex="1"><mxGeometry width="1050" height="750" as="geometry"><mxRectangle width="50" height="40" as="alternateBounds"/></mxGeometry></mxCell><mxCell id="tM7snCYVyfXTT4juk-JJ-4" value="&lt;pre style=&quot;background-color:#2b2b2b;color:#a9b7c6;font-family:'JetBrains Mono',monospace;font-size:9.8pt;&quot;&gt;&lt;span style=&quot;color:#cc7832;&quot;&gt;public static void &lt;/span&gt;&lt;span style=&quot;color:#ffc66d;&quot;&gt;main&lt;/span&gt;(String[] args) {&lt;br&gt;    &lt;span style=&quot;color:#cc7832;&quot;&gt;int &lt;/span&gt;x = &lt;span style=&quot;color:#6897bb;&quot;&gt;500&lt;/span&gt;&lt;span style=&quot;color:#cc7832;&quot;&gt;;&lt;br&gt;&lt;/span&gt;&lt;span style=&quot;color:#cc7832;&quot;&gt;    int &lt;/span&gt;y = &lt;span style=&quot;color:#6897bb;&quot;&gt;100&lt;/span&gt;&lt;span style=&quot;color:#cc7832;&quot;&gt;;&lt;br&gt;&lt;/span&gt;&lt;span style=&quot;color:#cc7832;&quot;&gt;    int &lt;/span&gt;a = x / y&lt;span style=&quot;color:#cc7832;&quot;&gt;;&lt;br&gt;&lt;/span&gt;&lt;span style=&quot;color:#cc7832;&quot;&gt;    int &lt;/span&gt;b = &lt;span style=&quot;color:#6897bb;&quot;&gt;50&lt;/span&gt;&lt;span style=&quot;color:#cc7832;&quot;&gt;;&lt;br&gt;&lt;/span&gt;&lt;span style=&quot;color:#cc7832;&quot;&gt;    &lt;/span&gt;System.&lt;span style=&quot;color:#9876aa;font-style:italic;&quot;&gt;out&lt;/span&gt;.println(a + b)&lt;span style=&quot;color:#cc7832;&quot;&gt;;&lt;br&gt;&lt;/span&gt;}&lt;/pre&gt;" style="rounded=0;whiteSpace=wrap;html=1;" parent="tM7snCYVyfXTT4juk-JJ-2" vertex="1"><mxGeometry x="180" y="440" width="120" height="60" as="geometry"/></mxCell><mxCell id="tM7snCYVyfXTT4juk-JJ-5" value="方法代码" style="text;html=1;strokeColor=none;fillColor=none;align=center;verticalAlign=middle;whiteSpace=wrap;rounded=0;" parent="tM7snCYVyfXTT4juk-JJ-2" vertex="1"><mxGeometry x="200" y="380" width="60" height="30" as="geometry"/></mxCell><mxCell id="tM7snCYVyfXTT4juk-JJ-6" value="&lt;div&gt;&amp;nbsp;0 sipush 500&lt;/div&gt;&lt;div&gt;&amp;nbsp;3 istore_1&lt;/div&gt;&lt;div&gt;&amp;nbsp;4 bipush 100&lt;/div&gt;&lt;div&gt;&amp;nbsp;6 istore_2&lt;/div&gt;&lt;div&gt;&amp;nbsp;7 iload_1&lt;/div&gt;&lt;div&gt;&amp;nbsp;8 iload_2&lt;/div&gt;&lt;div&gt;&amp;nbsp;9 idiv&lt;/div&gt;&lt;div&gt;10 istore_3&lt;/div&gt;&lt;div&gt;11 bipush 50&lt;/div&gt;&lt;div&gt;13 istore 4&lt;/div&gt;&lt;div&gt;15 getstatic #2 &amp;lt;java/lang/System.out : Ljava/io/PrintStream;&amp;gt;&lt;/div&gt;&lt;div&gt;18 iload_3&lt;/div&gt;&lt;div&gt;19 iload 4&lt;/div&gt;&lt;div&gt;21 iadd&lt;/div&gt;&lt;div&gt;&lt;font color=&quot;#ff0000&quot;&gt;22 invokevirtual #3 &amp;lt;java/io/PrintStream.println : (I)V&amp;gt;&lt;/font&gt;&lt;/div&gt;&lt;div&gt;25 return&lt;/div&gt;&lt;div&gt;&lt;br&gt;&lt;/div&gt;" style="rounded=0;whiteSpace=wrap;html=1;align=left;labelBorderColor=none;" parent="tM7snCYVyfXTT4juk-JJ-2" vertex="1"><mxGeometry x="664" y="30" width="340" height="260" as="geometry"/></mxCell><mxCell id="tM7snCYVyfXTT4juk-JJ-7" value="字节码指令" style="text;html=1;align=center;verticalAlign=middle;resizable=0;points=[];autosize=1;strokeColor=none;fillColor=none;" parent="tM7snCYVyfXTT4juk-JJ-2" vertex="1"><mxGeometry x="794" width="80" height="30" as="geometry"/></mxCell><mxCell id="tM7snCYVyfXTT4juk-JJ-8" value="&lt;font color=&quot;#ff0000&quot;&gt;22&lt;/font&gt;" style="rounded=0;whiteSpace=wrap;html=1;labelBorderColor=none;" parent="tM7snCYVyfXTT4juk-JJ-2" vertex="1"><mxGeometry x="230" y="330" width="130" height="40" as="geometry"/></mxCell><mxCell id="tM7snCYVyfXTT4juk-JJ-9" value="程序计数器" style="text;html=1;strokeColor=none;fillColor=none;align=center;verticalAlign=middle;whiteSpace=wrap;rounded=0;labelBorderColor=none;fontColor=#FF0000;" parent="tM7snCYVyfXTT4juk-JJ-2" vertex="1"><mxGeometry x="252.5" y="300" width="85" height="30" as="geometry"/></mxCell><mxCell id="tM7snCYVyfXTT4juk-JJ-10" value="" style="rounded=0;whiteSpace=wrap;html=1;labelBorderColor=none;fontColor=#FF0000;" parent="tM7snCYVyfXTT4juk-JJ-2" vertex="1"><mxGeometry x="430" y="350" width="580" height="360" as="geometry"/></mxCell><mxCell id="tM7snCYVyfXTT4juk-JJ-11" value="虚拟机栈" style="text;html=1;strokeColor=none;fillColor=none;align=center;verticalAlign=middle;whiteSpace=wrap;rounded=0;labelBorderColor=none;fontColor=#000000;" parent="tM7snCYVyfXTT4juk-JJ-2" vertex="1"><mxGeometry x="677.5" y="310" width="85" height="30" as="geometry"/></mxCell><mxCell id="tM7snCYVyfXTT4juk-JJ-12" value="" style="rounded=0;whiteSpace=wrap;html=1;labelBorderColor=none;fontColor=#FF0000;" parent="tM7snCYVyfXTT4juk-JJ-2" vertex="1"><mxGeometry x="430" y="350" width="430" height="160" as="geometry"/></mxCell><mxCell id="tM7snCYVyfXTT4juk-JJ-13" style="edgeStyle=orthogonalEdgeStyle;rounded=0;orthogonalLoop=1;jettySize=auto;html=1;entryX=0.49;entryY=0.011;entryDx=0;entryDy=0;fontColor=#FF0000;entryPerimeter=0;exitX=1;exitY=0.5;exitDx=0;exitDy=0;" parent="tM7snCYVyfXTT4juk-JJ-2" source="tM7snCYVyfXTT4juk-JJ-8" target="tM7snCYVyfXTT4juk-JJ-12" edge="1"><mxGeometry relative="1" as="geometry"><Array as="points"><mxPoint x="400" y="350"/><mxPoint x="400" y="320"/><mxPoint x="641" y="320"/></Array></mxGeometry></mxCell><mxCell id="tM7snCYVyfXTT4juk-JJ-14" value="当前栈帧" style="text;html=1;strokeColor=none;fillColor=none;align=center;verticalAlign=middle;whiteSpace=wrap;rounded=0;labelBorderColor=none;fontColor=#FF0000;" parent="tM7snCYVyfXTT4juk-JJ-2" vertex="1"><mxGeometry x="680" y="400" width="85" height="30" as="geometry"/></mxCell><mxCell id="tM7snCYVyfXTT4juk-JJ-15" value="其他栈帧..." style="rounded=0;whiteSpace=wrap;html=1;labelBorderColor=none;fontColor=#000000;strokeColor=#000000;" parent="tM7snCYVyfXTT4juk-JJ-2" vertex="1"><mxGeometry x="430" y="510" width="430" height="100" as="geometry"/></mxCell><mxCell id="tM7snCYVyfXTT4juk-JJ-16" value="&lt;table border=&quot;1&quot; width=&quot;100%&quot; height=&quot;100%&quot; cellpadding=&quot;4&quot; style=&quot;width:100%;height:100%;border-collapse:collapse;&quot;&gt;&lt;tbody&gt;&lt;tr style=&quot;background-color:#A7C942;color:#ffffff;border:1px solid #98bf21;&quot;&gt;&lt;th&gt;序号&lt;/th&gt;&lt;th&gt;本地变量表&lt;/th&gt;&lt;/tr&gt;&lt;tr style=&quot;border:1px solid #98bf21;&quot;&gt;&lt;td&gt;0&lt;/td&gt;&lt;td&gt;args&lt;/td&gt;&lt;/tr&gt;&lt;tr style=&quot;background-color:#EAF2D3;border:1px solid #98bf21;&quot;&gt;&lt;td&gt;1&lt;/td&gt;&lt;td&gt;500&lt;/td&gt;&lt;/tr&gt;&lt;tr style=&quot;border:1px solid #98bf21;&quot;&gt;&lt;td&gt;2&lt;/td&gt;&lt;td&gt;100&lt;/td&gt;&lt;/tr&gt;&lt;tr style=&quot;background-color:#EAF2D3;border:1px solid #98bf21;&quot;&gt;&lt;td&gt;3&lt;/td&gt;&lt;td&gt;5&lt;/td&gt;&lt;/tr&gt;&lt;tr&gt;&lt;td&gt;4&lt;/td&gt;&lt;td&gt;50&lt;/td&gt;&lt;/tr&gt;&lt;/tbody&gt;&lt;/table&gt;" style="text;html=1;strokeColor=#99FF33;fillColor=#ffffff;overflow=fill;rounded=0;labelBorderColor=none;fontColor=#FF0000;align=center;" parent="tM7snCYVyfXTT4juk-JJ-2" vertex="1"><mxGeometry x="430" y="360" width="160" height="140" as="geometry"/></mxCell><mxCell id="tM7snCYVyfXTT4juk-JJ-17" value="&lt;table border=&quot;1&quot; width=&quot;100%&quot; height=&quot;100%&quot; cellpadding=&quot;4&quot; style=&quot;width:100%;height:100%;border-collapse:collapse;&quot;&gt;&lt;tbody&gt;&lt;tr style=&quot;background-color:#A7C942;color:#ffffff;border:1px solid #98bf21;&quot;&gt;&lt;th&gt;操作数栈&lt;/th&gt;&lt;/tr&gt;&lt;tr style=&quot;border:1px solid #98bf21;&quot;&gt;&lt;td&gt;&lt;br&gt;&lt;/td&gt;&lt;/tr&gt;&lt;tr style=&quot;background-color:#EAF2D3;border:1px solid #98bf21;&quot;&gt;&lt;td&gt;&lt;br&gt;&lt;/td&gt;&lt;/tr&gt;&lt;tr style=&quot;border:1px solid #98bf21;&quot;&gt;&lt;td&gt;&lt;br&gt;&lt;/td&gt;&lt;/tr&gt;&lt;/tbody&gt;&lt;/table&gt;" style="text;html=1;strokeColor=#c0c0c0;fillColor=#ffffff;overflow=fill;rounded=0;labelBorderColor=none;fontColor=#FF0000;align=center;" parent="tM7snCYVyfXTT4juk-JJ-2" vertex="1"><mxGeometry x="602.5" y="360" width="77.5" height="90" as="geometry"/></mxCell><mxCell id="tM7snCYVyfXTT4juk-JJ-18" value="其他栈帧信息" style="rounded=0;whiteSpace=wrap;html=1;labelBorderColor=none;fontColor=#000000;strokeColor=#99FF33;" parent="tM7snCYVyfXTT4juk-JJ-2" vertex="1"><mxGeometry x="740" y="450" width="110" height="50" as="geometry"/></mxCell><mxCell id="tM7snCYVyfXTT4juk-JJ-19" value="其他栈帧..." style="rounded=0;whiteSpace=wrap;html=1;labelBorderColor=none;fontColor=#000000;strokeColor=#000000;" parent="tM7snCYVyfXTT4juk-JJ-2" vertex="1"><mxGeometry x="430" y="610" width="430" height="100" as="geometry"/></mxCell><mxCell id="tM7snCYVyfXTT4juk-JJ-20" style="edgeStyle=orthogonalEdgeStyle;rounded=0;orthogonalLoop=1;jettySize=auto;html=1;entryX=-0.012;entryY=0.077;entryDx=0;entryDy=0;entryPerimeter=0;fontColor=#FF0000;" parent="tM7snCYVyfXTT4juk-JJ-2" edge="1"><mxGeometry relative="1" as="geometry"><mxPoint x="582" y="247.0200000000001" as="sourcePoint"/><mxPoint x="661.9199999999996" y="247.0200000000001" as="targetPoint"/></mxGeometry></mxCell><mxCell id="tM7snCYVyfXTT4juk-JJ-21" value="将栈顶55和#2对象引用弹出，调用#2对象的println方法，即新增1栈帧调用println方法，结束后弹出该栈帧" style="rounded=0;whiteSpace=wrap;html=1;labelBorderColor=none;fontColor=#FF0000;strokeColor=#000000;" parent="tM7snCYVyfXTT4juk-JJ-2" vertex="1"><mxGeometry x="220" y="227" width="362" height="42" as="geometry"/></mxCell></root></mxGraphModel></diagram><diagram name="16" id="MLiIROURVN2RixRJOOcY"><mxGraphModel dx="2205" dy="728" grid="1" gridSize="10" guides="1" tooltips="1" connect="1" arrows="1" fold="1" page="1" pageScale="1" pageWidth="827" pageHeight="1169" math="0" shadow="0"><root><mxCell id="GwkJ9HVngVxdH82FA1Tr-0"/><mxCell id="GwkJ9HVngVxdH82FA1Tr-1" parent="GwkJ9HVngVxdH82FA1Tr-0"/><mxCell id="GwkJ9HVngVxdH82FA1Tr-2" value="" style="group" parent="GwkJ9HVngVxdH82FA1Tr-1" vertex="1" connectable="0"><mxGeometry x="-250" y="10" width="1050" height="750" as="geometry"/></mxCell><mxCell id="GwkJ9HVngVxdH82FA1Tr-3" value="" style="rounded=0;whiteSpace=wrap;html=1;labelBorderColor=none;fontColor=#FF0000;strokeColor=#000000;container=1;" parent="GwkJ9HVngVxdH82FA1Tr-2" vertex="1"><mxGeometry width="1050" height="750" as="geometry"><mxRectangle width="50" height="40" as="alternateBounds"/></mxGeometry></mxCell><mxCell id="GwkJ9HVngVxdH82FA1Tr-4" value="&lt;pre style=&quot;background-color:#2b2b2b;color:#a9b7c6;font-family:'JetBrains Mono',monospace;font-size:9.8pt;&quot;&gt;&lt;span style=&quot;color:#cc7832;&quot;&gt;public static void &lt;/span&gt;&lt;span style=&quot;color:#ffc66d;&quot;&gt;main&lt;/span&gt;(String[] args) {&lt;br&gt;    &lt;span style=&quot;color:#cc7832;&quot;&gt;int &lt;/span&gt;x = &lt;span style=&quot;color:#6897bb;&quot;&gt;500&lt;/span&gt;&lt;span style=&quot;color:#cc7832;&quot;&gt;;&lt;br&gt;&lt;/span&gt;&lt;span style=&quot;color:#cc7832;&quot;&gt;    int &lt;/span&gt;y = &lt;span style=&quot;color:#6897bb;&quot;&gt;100&lt;/span&gt;&lt;span style=&quot;color:#cc7832;&quot;&gt;;&lt;br&gt;&lt;/span&gt;&lt;span style=&quot;color:#cc7832;&quot;&gt;    int &lt;/span&gt;a = x / y&lt;span style=&quot;color:#cc7832;&quot;&gt;;&lt;br&gt;&lt;/span&gt;&lt;span style=&quot;color:#cc7832;&quot;&gt;    int &lt;/span&gt;b = &lt;span style=&quot;color:#6897bb;&quot;&gt;50&lt;/span&gt;&lt;span style=&quot;color:#cc7832;&quot;&gt;;&lt;br&gt;&lt;/span&gt;&lt;span style=&quot;color:#cc7832;&quot;&gt;    &lt;/span&gt;System.&lt;span style=&quot;color:#9876aa;font-style:italic;&quot;&gt;out&lt;/span&gt;.println(a + b)&lt;span style=&quot;color:#cc7832;&quot;&gt;;&lt;br&gt;&lt;/span&gt;}&lt;/pre&gt;" style="rounded=0;whiteSpace=wrap;html=1;" parent="GwkJ9HVngVxdH82FA1Tr-2" vertex="1"><mxGeometry x="180" y="440" width="120" height="60" as="geometry"/></mxCell><mxCell id="GwkJ9HVngVxdH82FA1Tr-5" value="方法代码" style="text;html=1;strokeColor=none;fillColor=none;align=center;verticalAlign=middle;whiteSpace=wrap;rounded=0;" parent="GwkJ9HVngVxdH82FA1Tr-2" vertex="1"><mxGeometry x="200" y="380" width="60" height="30" as="geometry"/></mxCell><mxCell id="GwkJ9HVngVxdH82FA1Tr-6" value="&lt;div&gt;&amp;nbsp;0 sipush 500&lt;/div&gt;&lt;div&gt;&amp;nbsp;3 istore_1&lt;/div&gt;&lt;div&gt;&amp;nbsp;4 bipush 100&lt;/div&gt;&lt;div&gt;&amp;nbsp;6 istore_2&lt;/div&gt;&lt;div&gt;&amp;nbsp;7 iload_1&lt;/div&gt;&lt;div&gt;&amp;nbsp;8 iload_2&lt;/div&gt;&lt;div&gt;&amp;nbsp;9 idiv&lt;/div&gt;&lt;div&gt;10 istore_3&lt;/div&gt;&lt;div&gt;11 bipush 50&lt;/div&gt;&lt;div&gt;13 istore 4&lt;/div&gt;&lt;div&gt;15 getstatic #2 &amp;lt;java/lang/System.out : Ljava/io/PrintStream;&amp;gt;&lt;/div&gt;&lt;div&gt;18 iload_3&lt;/div&gt;&lt;div&gt;19 iload 4&lt;/div&gt;&lt;div&gt;21 iadd&lt;/div&gt;&lt;div&gt;22 invokevirtual #3 &amp;lt;java/io/PrintStream.println : (I)V&amp;gt;&lt;/div&gt;&lt;div&gt;&lt;font color=&quot;#ff0000&quot;&gt;25 return&lt;/font&gt;&lt;/div&gt;&lt;div&gt;&lt;br&gt;&lt;/div&gt;" style="rounded=0;whiteSpace=wrap;html=1;align=left;labelBorderColor=none;" parent="GwkJ9HVngVxdH82FA1Tr-2" vertex="1"><mxGeometry x="664" y="30" width="340" height="260" as="geometry"/></mxCell><mxCell id="GwkJ9HVngVxdH82FA1Tr-7" value="字节码指令" style="text;html=1;align=center;verticalAlign=middle;resizable=0;points=[];autosize=1;strokeColor=none;fillColor=none;" parent="GwkJ9HVngVxdH82FA1Tr-2" vertex="1"><mxGeometry x="794" width="80" height="30" as="geometry"/></mxCell><mxCell id="GwkJ9HVngVxdH82FA1Tr-8" value="&lt;font color=&quot;#ff0000&quot;&gt;25&lt;/font&gt;" style="rounded=0;whiteSpace=wrap;html=1;labelBorderColor=none;" parent="GwkJ9HVngVxdH82FA1Tr-2" vertex="1"><mxGeometry x="230" y="330" width="130" height="40" as="geometry"/></mxCell><mxCell id="GwkJ9HVngVxdH82FA1Tr-9" value="程序计数器" style="text;html=1;strokeColor=none;fillColor=none;align=center;verticalAlign=middle;whiteSpace=wrap;rounded=0;labelBorderColor=none;fontColor=#FF0000;" parent="GwkJ9HVngVxdH82FA1Tr-2" vertex="1"><mxGeometry x="252.5" y="300" width="85" height="30" as="geometry"/></mxCell><mxCell id="GwkJ9HVngVxdH82FA1Tr-10" value="" style="rounded=0;whiteSpace=wrap;html=1;labelBorderColor=none;fontColor=#FF0000;" parent="GwkJ9HVngVxdH82FA1Tr-2" vertex="1"><mxGeometry x="430" y="350" width="580" height="360" as="geometry"/></mxCell><mxCell id="GwkJ9HVngVxdH82FA1Tr-11" value="虚拟机栈" style="text;html=1;strokeColor=none;fillColor=none;align=center;verticalAlign=middle;whiteSpace=wrap;rounded=0;labelBorderColor=none;fontColor=#000000;" parent="GwkJ9HVngVxdH82FA1Tr-2" vertex="1"><mxGeometry x="677.5" y="310" width="85" height="30" as="geometry"/></mxCell><mxCell id="GwkJ9HVngVxdH82FA1Tr-12" value="" style="rounded=0;whiteSpace=wrap;html=1;labelBorderColor=none;fontColor=#FF0000;" parent="GwkJ9HVngVxdH82FA1Tr-2" vertex="1"><mxGeometry x="430" y="350" width="430" height="160" as="geometry"/></mxCell><mxCell id="GwkJ9HVngVxdH82FA1Tr-13" style="edgeStyle=orthogonalEdgeStyle;rounded=0;orthogonalLoop=1;jettySize=auto;html=1;entryX=0.49;entryY=0.011;entryDx=0;entryDy=0;fontColor=#FF0000;entryPerimeter=0;exitX=1;exitY=0.5;exitDx=0;exitDy=0;" parent="GwkJ9HVngVxdH82FA1Tr-2" source="GwkJ9HVngVxdH82FA1Tr-8" target="GwkJ9HVngVxdH82FA1Tr-12" edge="1"><mxGeometry relative="1" as="geometry"><Array as="points"><mxPoint x="400" y="350"/><mxPoint x="400" y="320"/><mxPoint x="641" y="320"/></Array></mxGeometry></mxCell><mxCell id="GwkJ9HVngVxdH82FA1Tr-14" value="当前栈帧" style="text;html=1;strokeColor=none;fillColor=none;align=center;verticalAlign=middle;whiteSpace=wrap;rounded=0;labelBorderColor=none;fontColor=#FF0000;" parent="GwkJ9HVngVxdH82FA1Tr-2" vertex="1"><mxGeometry x="680" y="400" width="85" height="30" as="geometry"/></mxCell><mxCell id="GwkJ9HVngVxdH82FA1Tr-15" value="其他栈帧..." style="rounded=0;whiteSpace=wrap;html=1;labelBorderColor=none;fontColor=#000000;strokeColor=#000000;" parent="GwkJ9HVngVxdH82FA1Tr-2" vertex="1"><mxGeometry x="430" y="510" width="430" height="100" as="geometry"/></mxCell><mxCell id="GwkJ9HVngVxdH82FA1Tr-16" value="&lt;table border=&quot;1&quot; width=&quot;100%&quot; height=&quot;100%&quot; cellpadding=&quot;4&quot; style=&quot;width:100%;height:100%;border-collapse:collapse;&quot;&gt;&lt;tbody&gt;&lt;tr style=&quot;background-color:#A7C942;color:#ffffff;border:1px solid #98bf21;&quot;&gt;&lt;th&gt;序号&lt;/th&gt;&lt;th&gt;本地变量表&lt;/th&gt;&lt;/tr&gt;&lt;tr style=&quot;border:1px solid #98bf21;&quot;&gt;&lt;td&gt;0&lt;/td&gt;&lt;td&gt;args&lt;/td&gt;&lt;/tr&gt;&lt;tr style=&quot;background-color:#EAF2D3;border:1px solid #98bf21;&quot;&gt;&lt;td&gt;1&lt;/td&gt;&lt;td&gt;500&lt;/td&gt;&lt;/tr&gt;&lt;tr style=&quot;border:1px solid #98bf21;&quot;&gt;&lt;td&gt;2&lt;/td&gt;&lt;td&gt;100&lt;/td&gt;&lt;/tr&gt;&lt;tr style=&quot;background-color:#EAF2D3;border:1px solid #98bf21;&quot;&gt;&lt;td&gt;3&lt;/td&gt;&lt;td&gt;5&lt;/td&gt;&lt;/tr&gt;&lt;tr&gt;&lt;td&gt;4&lt;/td&gt;&lt;td&gt;50&lt;/td&gt;&lt;/tr&gt;&lt;/tbody&gt;&lt;/table&gt;" style="text;html=1;strokeColor=#99FF33;fillColor=#ffffff;overflow=fill;rounded=0;labelBorderColor=none;fontColor=#FF0000;align=center;" parent="GwkJ9HVngVxdH82FA1Tr-2" vertex="1"><mxGeometry x="430" y="360" width="160" height="140" as="geometry"/></mxCell><mxCell id="GwkJ9HVngVxdH82FA1Tr-17" value="&lt;table border=&quot;1&quot; width=&quot;100%&quot; height=&quot;100%&quot; cellpadding=&quot;4&quot; style=&quot;width:100%;height:100%;border-collapse:collapse;&quot;&gt;&lt;tbody&gt;&lt;tr style=&quot;background-color:#A7C942;color:#ffffff;border:1px solid #98bf21;&quot;&gt;&lt;th&gt;操作数栈&lt;/th&gt;&lt;/tr&gt;&lt;tr style=&quot;border:1px solid #98bf21;&quot;&gt;&lt;td&gt;&lt;br&gt;&lt;/td&gt;&lt;/tr&gt;&lt;tr style=&quot;background-color:#EAF2D3;border:1px solid #98bf21;&quot;&gt;&lt;td&gt;&lt;br&gt;&lt;/td&gt;&lt;/tr&gt;&lt;tr style=&quot;border:1px solid #98bf21;&quot;&gt;&lt;td&gt;&lt;br&gt;&lt;/td&gt;&lt;/tr&gt;&lt;/tbody&gt;&lt;/table&gt;" style="text;html=1;strokeColor=#c0c0c0;fillColor=#ffffff;overflow=fill;rounded=0;labelBorderColor=none;fontColor=#FF0000;align=center;" parent="GwkJ9HVngVxdH82FA1Tr-2" vertex="1"><mxGeometry x="602.5" y="360" width="77.5" height="90" as="geometry"/></mxCell><mxCell id="GwkJ9HVngVxdH82FA1Tr-18" value="其他栈帧信息" style="rounded=0;whiteSpace=wrap;html=1;labelBorderColor=none;fontColor=#000000;strokeColor=#99FF33;" parent="GwkJ9HVngVxdH82FA1Tr-2" vertex="1"><mxGeometry x="740" y="450" width="110" height="50" as="geometry"/></mxCell><mxCell id="GwkJ9HVngVxdH82FA1Tr-19" value="其他栈帧..." style="rounded=0;whiteSpace=wrap;html=1;labelBorderColor=none;fontColor=#000000;strokeColor=#000000;" parent="GwkJ9HVngVxdH82FA1Tr-2" vertex="1"><mxGeometry x="430" y="610" width="430" height="100" as="geometry"/></mxCell><mxCell id="GwkJ9HVngVxdH82FA1Tr-20" style="edgeStyle=orthogonalEdgeStyle;rounded=0;orthogonalLoop=1;jettySize=auto;html=1;entryX=-0.012;entryY=0.077;entryDx=0;entryDy=0;entryPerimeter=0;fontColor=#FF0000;" parent="GwkJ9HVngVxdH82FA1Tr-2" edge="1"><mxGeometry relative="1" as="geometry"><mxPoint x="582" y="260.0200000000001" as="sourcePoint"/><mxPoint x="661.9199999999996" y="260.0200000000001" as="targetPoint"/></mxGeometry></mxCell><mxCell id="GwkJ9HVngVxdH82FA1Tr-21" value="方法结束弹出该栈帧" style="rounded=0;whiteSpace=wrap;html=1;labelBorderColor=none;fontColor=#FF0000;strokeColor=#000000;" parent="GwkJ9HVngVxdH82FA1Tr-2" vertex="1"><mxGeometry x="220" y="240" width="362" height="42" as="geometry"/></mxCell></root></mxGraphModel></diagram></mxfile>